G04 (created by PCBNEW (2013-07-07 BZR 4022)-stable) date 8/13/2015 10:27:12 AM*
%MOIN*%
G04 Gerber Fmt 3.4, Leading zero omitted, Abs format*
%FSLAX34Y34*%
G01*
G70*
G90*
G04 APERTURE LIST*
%ADD10C,0.00590551*%
%ADD11C,0.110236*%
%ADD12C,0.472441*%
%ADD13R,0.059X0.0512*%
%ADD14R,0.021X0.078*%
%ADD15C,0.055*%
%ADD16R,0.0590551X0.0590551*%
%ADD17C,0.0590551*%
%ADD18R,0.0512X0.059*%
G04 APERTURE END LIST*
G54D10*
G54D11*
X94741Y-84834D03*
X96662Y-84405D03*
X92820Y-85264D03*
X93249Y-87185D03*
X62739Y-84834D03*
X64660Y-85264D03*
X60817Y-84405D03*
X60388Y-86326D03*
X101520Y-61799D03*
X103300Y-60958D03*
X99741Y-62640D03*
X100582Y-64420D03*
X92699Y-65063D03*
X94599Y-64547D03*
X90800Y-65579D03*
X91316Y-67478D03*
X83444Y-66720D03*
X85405Y-66548D03*
X81483Y-66892D03*
X81655Y-68853D03*
X64780Y-65063D03*
X66680Y-65579D03*
X62880Y-64547D03*
X62364Y-66446D03*
X55959Y-61799D03*
X57739Y-62640D03*
X54179Y-60958D03*
X53338Y-62737D03*
X74035Y-66720D03*
X75996Y-66892D03*
X72074Y-66548D03*
X71903Y-68509D03*
G54D12*
X72830Y-58667D03*
X84650Y-58667D03*
G54D13*
X81700Y-85304D03*
X81700Y-84554D03*
X83708Y-85304D03*
X83708Y-84554D03*
X85645Y-85304D03*
X85645Y-84554D03*
X75393Y-75928D03*
X75393Y-76678D03*
X77755Y-85304D03*
X77755Y-84554D03*
G54D14*
X76990Y-77820D03*
X77990Y-77820D03*
X78490Y-77820D03*
X78990Y-77820D03*
X79490Y-77820D03*
X79990Y-77820D03*
X80490Y-77820D03*
X80490Y-79660D03*
X79990Y-79660D03*
X79490Y-79660D03*
X78990Y-79660D03*
X78490Y-79660D03*
X77990Y-79660D03*
X77490Y-79660D03*
X76990Y-79660D03*
X77490Y-77820D03*
G54D15*
X94968Y-74533D03*
X93968Y-74533D03*
G54D16*
X79718Y-86964D03*
G54D17*
X77750Y-86964D03*
X75781Y-86964D03*
X73812Y-86964D03*
X71844Y-86964D03*
X81687Y-86964D03*
X83655Y-86964D03*
X85624Y-86964D03*
X87592Y-86964D03*
G54D18*
X94012Y-75992D03*
X94762Y-75992D03*
M02*
