M48
;DRILL file {Pcbnew (2013-07-07 BZR 4022)-stable} date 8/13/2015 10:27:19 AM
;FORMAT={-:-/ absolute / inch / decimal}
FMAT,2
INCH,TZ
T1C0.025
T2C0.032
T3C0.039
T4C0.061
%
G90
G05
M72
T1
X7.3819Y-7.6673
X7.9488Y-8.0555
X8.1654Y-7.7835
X8.3701Y-7.6575
X8.5669Y-7.5866
X9.6234Y-7.5992
T2
X9.3969Y-7.4533
X9.4969Y-7.4533
T3
X7.1844Y-8.6965
X7.3813Y-8.6965
X7.5781Y-8.6965
X7.775Y-8.6965
X7.9719Y-8.6965
X8.1687Y-8.6965
X8.3656Y-8.6965
X8.5624Y-8.6965
X8.7593Y-8.6965
T4
X5.3338Y-6.2738
X5.418Y-6.0958
X5.5959Y-6.1799
X5.7739Y-6.2641
X6.0389Y-8.6326
X6.0818Y-8.4405
X6.2365Y-6.6447
X6.2739Y-8.4835
X6.2881Y-6.4547
X6.466Y-8.5264
X6.4781Y-6.5063
X6.668Y-6.5579
X7.1903Y-6.851
X7.2075Y-6.6549
X7.4036Y-6.6721
X7.5997Y-6.6892
X8.1484Y-6.6892
X8.1655Y-6.8853
X8.3445Y-6.6721
X8.5406Y-6.6549
X9.08Y-6.5579
X9.1316Y-6.7479
X9.27Y-6.5063
X9.282Y-8.5264
X9.325Y-8.7185
X9.4599Y-6.4547
X9.4741Y-8.4835
X9.6662Y-8.4405
X9.9741Y-6.2641
X10.0583Y-6.442
X10.1521Y-6.1799
X10.3301Y-6.0958
T0
M30
