G04 (created by PCBNEW (2013-07-07 BZR 4022)-stable) date 8/13/2015 10:27:12 AM*
%MOIN*%
G04 Gerber Fmt 3.4, Leading zero omitted, Abs format*
%FSLAX34Y34*%
G01*
G70*
G90*
G04 APERTURE LIST*
%ADD10C,0.00590551*%
%ADD11C,0.00393701*%
%ADD12C,0.0019685*%
%ADD13C,0.00787402*%
%ADD14C,0.019685*%
%ADD15C,0.011811*%
%ADD16C,0.0708661*%
G04 APERTURE END LIST*
G54D10*
G54D11*
X102482Y-89077D02*
X102437Y-89092D01*
X102362Y-89092D01*
X102332Y-89077D01*
X102317Y-89062D01*
X102302Y-89032D01*
X102302Y-89002D01*
X102317Y-88972D01*
X102332Y-88957D01*
X102362Y-88942D01*
X102422Y-88927D01*
X102452Y-88912D01*
X102467Y-88897D01*
X102482Y-88867D01*
X102482Y-88837D01*
X102467Y-88807D01*
X102452Y-88792D01*
X102422Y-88777D01*
X102347Y-88777D01*
X102302Y-88792D01*
X102032Y-88882D02*
X102032Y-89092D01*
X102167Y-88882D02*
X102167Y-89047D01*
X102152Y-89077D01*
X102122Y-89092D01*
X102077Y-89092D01*
X102047Y-89077D01*
X102032Y-89062D01*
X101882Y-89092D02*
X101882Y-88882D01*
X101882Y-88912D02*
X101867Y-88897D01*
X101837Y-88882D01*
X101792Y-88882D01*
X101762Y-88897D01*
X101747Y-88927D01*
X101747Y-89092D01*
X101747Y-88927D02*
X101732Y-88897D01*
X101702Y-88882D01*
X101657Y-88882D01*
X101627Y-88897D01*
X101612Y-88927D01*
X101612Y-89092D01*
X101462Y-89092D02*
X101462Y-88882D01*
X101462Y-88912D02*
X101447Y-88897D01*
X101417Y-88882D01*
X101372Y-88882D01*
X101342Y-88897D01*
X101327Y-88927D01*
X101327Y-89092D01*
X101327Y-88927D02*
X101312Y-88897D01*
X101282Y-88882D01*
X101237Y-88882D01*
X101207Y-88897D01*
X101192Y-88927D01*
X101192Y-89092D01*
X100922Y-89077D02*
X100952Y-89092D01*
X101012Y-89092D01*
X101042Y-89077D01*
X101057Y-89047D01*
X101057Y-88927D01*
X101042Y-88897D01*
X101012Y-88882D01*
X100952Y-88882D01*
X100922Y-88897D01*
X100907Y-88927D01*
X100907Y-88957D01*
X101057Y-88987D01*
X100772Y-89092D02*
X100772Y-88882D01*
X100772Y-88942D02*
X100757Y-88912D01*
X100742Y-88897D01*
X100712Y-88882D01*
X100682Y-88882D01*
X100353Y-88807D02*
X100338Y-88792D01*
X100308Y-88777D01*
X100233Y-88777D01*
X100203Y-88792D01*
X100188Y-88807D01*
X100173Y-88837D01*
X100173Y-88867D01*
X100188Y-88912D01*
X100368Y-89092D01*
X100173Y-89092D01*
X99978Y-88777D02*
X99948Y-88777D01*
X99918Y-88792D01*
X99903Y-88807D01*
X99888Y-88837D01*
X99873Y-88897D01*
X99873Y-88972D01*
X99888Y-89032D01*
X99903Y-89062D01*
X99918Y-89077D01*
X99948Y-89092D01*
X99978Y-89092D01*
X100008Y-89077D01*
X100023Y-89062D01*
X100038Y-89032D01*
X100053Y-88972D01*
X100053Y-88897D01*
X100038Y-88837D01*
X100023Y-88807D01*
X100008Y-88792D01*
X99978Y-88777D01*
X99573Y-89092D02*
X99753Y-89092D01*
X99663Y-89092D02*
X99663Y-88777D01*
X99693Y-88822D01*
X99723Y-88852D01*
X99753Y-88867D01*
X99288Y-88777D02*
X99438Y-88777D01*
X99453Y-88927D01*
X99438Y-88912D01*
X99408Y-88897D01*
X99333Y-88897D01*
X99303Y-88912D01*
X99288Y-88927D01*
X99273Y-88957D01*
X99273Y-89032D01*
X99288Y-89062D01*
X99303Y-89077D01*
X99333Y-89092D01*
X99408Y-89092D01*
X99438Y-89077D01*
X99453Y-89062D01*
G54D12*
X103683Y-88942D02*
X103683Y-89092D01*
X103788Y-88777D02*
X103683Y-88942D01*
X103578Y-88777D01*
X103503Y-88777D02*
X103293Y-89092D01*
X103293Y-88777D02*
X103503Y-89092D01*
X103173Y-89092D02*
X103173Y-88777D01*
X102993Y-89092D01*
X102993Y-88777D01*
X102843Y-89092D02*
X102843Y-88882D01*
X102843Y-88777D02*
X102858Y-88792D01*
X102843Y-88807D01*
X102828Y-88792D01*
X102843Y-88777D01*
X102843Y-88807D01*
G54D13*
X57314Y-81328D02*
X57311Y-81328D01*
G54D14*
X60809Y-77834D02*
X57314Y-81328D01*
X61549Y-79527D02*
G75*
G03X61549Y-79527I-2494J0D01*
G74*
G01*
G54D15*
X60601Y-78355D02*
X59476Y-78355D01*
X60039Y-80324D02*
X60039Y-78355D01*
X58820Y-80324D02*
X58820Y-78355D01*
X58070Y-78355D01*
X57883Y-78449D01*
X57789Y-78543D01*
X57695Y-78730D01*
X57695Y-79011D01*
X57789Y-79199D01*
X57883Y-79293D01*
X58070Y-79386D01*
X58820Y-79386D01*
G54D16*
X95950Y-70187D02*
X95950Y-73562D01*
X96175Y-74237D01*
X96625Y-74687D01*
X97300Y-74912D01*
X97750Y-74912D01*
X93700Y-74912D02*
X93700Y-70187D01*
X89201Y-74912D02*
X91451Y-74912D01*
X91451Y-70187D01*
X87851Y-73562D02*
X85601Y-73562D01*
X88301Y-74912D02*
X86726Y-70187D01*
X85151Y-74912D01*
X78177Y-74687D02*
X78627Y-74912D01*
X79527Y-74912D01*
X79977Y-74687D01*
X80202Y-74237D01*
X80202Y-72437D01*
X79977Y-71987D01*
X79527Y-71762D01*
X78627Y-71762D01*
X78177Y-71987D01*
X77952Y-72437D01*
X77952Y-72887D01*
X80202Y-73337D01*
X75928Y-72437D02*
X74353Y-72437D01*
X73678Y-74912D02*
X75928Y-74912D01*
X75928Y-70187D01*
X73678Y-70187D01*
X71653Y-74912D02*
X71653Y-70187D01*
X70528Y-70187D01*
X69853Y-70412D01*
X69403Y-70862D01*
X69178Y-71312D01*
X68953Y-72212D01*
X68953Y-72887D01*
X69178Y-73787D01*
X69403Y-74237D01*
X69853Y-74687D01*
X70528Y-74912D01*
X71653Y-74912D01*
X66929Y-74912D02*
X66929Y-70187D01*
X65354Y-73562D01*
X63779Y-70187D01*
X63779Y-74912D01*
M02*
