G04 (created by PCBNEW (2013-07-07 BZR 4022)-stable) date 8/13/2015 10:27:12 AM*
%MOIN*%
G04 Gerber Fmt 3.4, Leading zero omitted, Abs format*
%FSLAX34Y34*%
G01*
G70*
G90*
G04 APERTURE LIST*
%ADD10C,0.00590551*%
%ADD11C,0.110236*%
%ADD12C,0.472441*%
%ADD13C,0.055*%
%ADD14R,0.0590551X0.0590551*%
%ADD15C,0.0590551*%
%ADD16C,0.035*%
%ADD17C,0.021*%
%ADD18C,0.011811*%
G04 APERTURE END LIST*
G54D10*
G54D11*
X94741Y-84834D03*
X96662Y-84405D03*
X92820Y-85264D03*
X93249Y-87185D03*
X62739Y-84834D03*
X64660Y-85264D03*
X60817Y-84405D03*
X60388Y-86326D03*
X101520Y-61799D03*
X103300Y-60958D03*
X99741Y-62640D03*
X100582Y-64420D03*
X92699Y-65063D03*
X94599Y-64547D03*
X90800Y-65579D03*
X91316Y-67478D03*
X83444Y-66720D03*
X85405Y-66548D03*
X81483Y-66892D03*
X81655Y-68853D03*
X64780Y-65063D03*
X66680Y-65579D03*
X62880Y-64547D03*
X62364Y-66446D03*
X55959Y-61799D03*
X57739Y-62640D03*
X54179Y-60958D03*
X53338Y-62737D03*
X74035Y-66720D03*
X75996Y-66892D03*
X72074Y-66548D03*
X71903Y-68509D03*
G54D12*
X72830Y-58667D03*
X84650Y-58667D03*
G54D13*
X94968Y-74533D03*
X93968Y-74533D03*
G54D14*
X79718Y-86964D03*
G54D15*
X77750Y-86964D03*
X75781Y-86964D03*
X73812Y-86964D03*
X71844Y-86964D03*
X81687Y-86964D03*
X83655Y-86964D03*
X85624Y-86964D03*
X87592Y-86964D03*
G54D16*
X85669Y-75866D03*
X83700Y-76574D03*
X81653Y-77834D03*
X79488Y-80555D03*
X96234Y-75992D03*
X73818Y-76673D03*
G54D17*
X85629Y-75905D02*
X85629Y-86933D01*
X85669Y-75866D02*
X85629Y-75905D01*
X83661Y-76614D02*
X83661Y-86933D01*
X83700Y-76574D02*
X83661Y-76614D01*
X81692Y-77874D02*
X81692Y-86933D01*
X81653Y-77834D02*
X81692Y-77874D01*
X79488Y-80555D02*
X79476Y-80566D01*
X79476Y-80566D02*
X79476Y-85212D01*
X79476Y-85212D02*
X77755Y-86933D01*
X60817Y-84405D02*
X60817Y-82967D01*
X71844Y-82972D02*
X71844Y-86964D01*
X71838Y-82966D02*
X71844Y-82972D01*
X60818Y-82966D02*
X71838Y-82966D01*
X60817Y-82967D02*
X60818Y-82966D01*
X90800Y-64074D02*
X90800Y-62743D01*
X90902Y-62640D02*
X99741Y-62640D01*
X90800Y-62743D02*
X90902Y-62640D01*
X81372Y-63779D02*
X90452Y-63779D01*
X90800Y-63831D02*
X90800Y-64074D01*
X90800Y-64074D02*
X90800Y-65579D01*
X90748Y-63779D02*
X90800Y-63831D01*
X90452Y-63779D02*
X90748Y-63779D01*
X81483Y-66892D02*
X81483Y-63890D01*
X81372Y-63779D02*
X72074Y-63779D01*
X81483Y-63890D02*
X81372Y-63779D01*
X62880Y-61811D02*
X71850Y-61811D01*
X72074Y-62035D02*
X72074Y-63779D01*
X72074Y-63779D02*
X72074Y-66548D01*
X71850Y-61811D02*
X72074Y-62035D01*
X54179Y-60958D02*
X54179Y-58910D01*
X62880Y-58845D02*
X62880Y-61811D01*
X62880Y-61811D02*
X62880Y-64547D01*
X62795Y-58759D02*
X62880Y-58845D01*
X54330Y-58759D02*
X62795Y-58759D01*
X54179Y-58910D02*
X54330Y-58759D01*
X87592Y-86964D02*
X87592Y-74543D01*
X87602Y-74533D02*
X93968Y-74533D01*
X87592Y-74543D02*
X87602Y-74533D01*
X94968Y-74533D02*
X94968Y-69852D01*
X94968Y-69852D02*
X95005Y-69814D01*
X73976Y-88307D02*
X60393Y-88307D01*
X60388Y-88301D02*
X60388Y-86326D01*
X60393Y-88307D02*
X60388Y-88301D01*
X73818Y-86933D02*
X73818Y-88267D01*
X93249Y-88246D02*
X93249Y-87185D01*
X93188Y-88307D02*
X93249Y-88246D01*
X73858Y-88307D02*
X73976Y-88307D01*
X73976Y-88307D02*
X93188Y-88307D01*
X73818Y-88267D02*
X73858Y-88307D01*
X81594Y-70980D02*
X71903Y-70980D01*
X71903Y-70980D02*
X71903Y-76588D01*
X62364Y-66446D02*
X53356Y-66446D01*
X53338Y-66428D02*
X53338Y-62737D01*
X53356Y-66446D02*
X53338Y-66428D01*
X62364Y-66446D02*
X62364Y-69839D01*
X71837Y-69842D02*
X71903Y-69777D01*
X62367Y-69842D02*
X71837Y-69842D01*
X62364Y-69839D02*
X62367Y-69842D01*
X71903Y-68509D02*
X71903Y-69777D01*
X71903Y-69777D02*
X71903Y-70980D01*
X71903Y-76588D02*
X71988Y-76673D01*
X71988Y-76673D02*
X73818Y-76673D01*
X81594Y-70980D02*
X91125Y-70980D01*
X91192Y-70913D02*
X91192Y-69814D01*
X91125Y-70980D02*
X91192Y-70913D01*
X81594Y-70980D02*
X81637Y-70980D01*
X73818Y-86933D02*
X73818Y-76673D01*
X91190Y-67656D02*
X91190Y-69817D01*
X91190Y-69817D02*
X91192Y-69814D01*
X100582Y-69779D02*
X100582Y-64597D01*
X91192Y-69814D02*
X95005Y-69814D01*
X95005Y-69814D02*
X100547Y-69814D01*
X100547Y-69814D02*
X100582Y-69779D01*
X81592Y-69030D02*
X81592Y-70934D01*
X81592Y-70934D02*
X81637Y-70980D01*
G54D10*
G36*
X82329Y-68219D02*
X82180Y-68069D01*
X81840Y-67928D01*
X81472Y-67927D01*
X81131Y-68068D01*
X80871Y-68328D01*
X80730Y-68668D01*
X80729Y-69036D01*
X80870Y-69376D01*
X81113Y-69619D01*
X81113Y-70501D01*
X76816Y-70501D01*
X76816Y-66793D01*
X76724Y-66502D01*
X76605Y-66434D01*
X76552Y-66478D01*
X76552Y-66372D01*
X76507Y-66242D01*
X76219Y-66096D01*
X75898Y-66071D01*
X75606Y-66163D01*
X75539Y-66283D01*
X76001Y-66834D01*
X76552Y-66372D01*
X76552Y-66478D01*
X76054Y-66897D01*
X76516Y-67448D01*
X76646Y-67402D01*
X76792Y-67115D01*
X76816Y-66793D01*
X76816Y-70501D01*
X76453Y-70501D01*
X76453Y-67500D01*
X75991Y-66949D01*
X75938Y-66993D01*
X75938Y-66887D01*
X75476Y-66336D01*
X75347Y-66381D01*
X75201Y-66669D01*
X75176Y-66990D01*
X75268Y-67281D01*
X75387Y-67349D01*
X75938Y-66887D01*
X75938Y-66993D01*
X75440Y-67412D01*
X75486Y-67541D01*
X75773Y-67687D01*
X76095Y-67712D01*
X76386Y-67620D01*
X76453Y-67500D01*
X76453Y-70501D01*
X72382Y-70501D01*
X72382Y-69777D01*
X72382Y-69313D01*
X72426Y-69294D01*
X72579Y-69141D01*
X72518Y-69813D01*
X74990Y-70028D01*
X75211Y-67556D01*
X74563Y-67501D01*
X74819Y-67245D01*
X74960Y-66905D01*
X74960Y-66537D01*
X74820Y-66197D01*
X74560Y-65936D01*
X74220Y-65795D01*
X73852Y-65795D01*
X73512Y-65935D01*
X73251Y-66195D01*
X73110Y-66535D01*
X73110Y-66903D01*
X73250Y-67243D01*
X73409Y-67402D01*
X72743Y-67345D01*
X72685Y-67984D01*
X72427Y-67726D01*
X72087Y-67584D01*
X71719Y-67584D01*
X71379Y-67725D01*
X71119Y-67985D01*
X70978Y-68325D01*
X70977Y-68693D01*
X71118Y-69033D01*
X71378Y-69293D01*
X71424Y-69312D01*
X71424Y-69363D01*
X67504Y-69363D01*
X67504Y-65627D01*
X67466Y-65324D01*
X67360Y-65236D01*
X67319Y-65260D01*
X67319Y-65165D01*
X67297Y-65030D01*
X67040Y-64835D01*
X66728Y-64754D01*
X66425Y-64793D01*
X66337Y-64899D01*
X66695Y-65523D01*
X67319Y-65165D01*
X67319Y-65260D01*
X66736Y-65594D01*
X67093Y-66218D01*
X67229Y-66196D01*
X67423Y-65939D01*
X67504Y-65627D01*
X67504Y-69363D01*
X67022Y-69363D01*
X67022Y-66259D01*
X66665Y-65635D01*
X66624Y-65658D01*
X66624Y-65564D01*
X66266Y-64939D01*
X66131Y-64961D01*
X65936Y-65218D01*
X65855Y-65530D01*
X65894Y-65833D01*
X66000Y-65921D01*
X66624Y-65564D01*
X66624Y-65658D01*
X66040Y-65992D01*
X66062Y-66128D01*
X66319Y-66322D01*
X66631Y-66403D01*
X66934Y-66365D01*
X67022Y-66259D01*
X67022Y-69363D01*
X62843Y-69363D01*
X62843Y-67869D01*
X65144Y-68489D01*
X65784Y-66091D01*
X65133Y-65918D01*
X65304Y-65847D01*
X65564Y-65587D01*
X65705Y-65247D01*
X65705Y-64879D01*
X65565Y-64539D01*
X65305Y-64279D01*
X64965Y-64138D01*
X64597Y-64137D01*
X64257Y-64278D01*
X63996Y-64538D01*
X63855Y-64878D01*
X63855Y-65246D01*
X63995Y-65586D01*
X64035Y-65626D01*
X63491Y-65481D01*
X63452Y-65284D01*
X63664Y-65071D01*
X63806Y-64731D01*
X63806Y-64363D01*
X63665Y-64023D01*
X63405Y-63763D01*
X63359Y-63744D01*
X63359Y-62290D01*
X71595Y-62290D01*
X71595Y-63779D01*
X71595Y-65745D01*
X71551Y-65764D01*
X71290Y-66024D01*
X71149Y-66364D01*
X71149Y-66732D01*
X71289Y-67072D01*
X71549Y-67332D01*
X71889Y-67473D01*
X72257Y-67474D01*
X72598Y-67333D01*
X72858Y-67073D01*
X72999Y-66733D01*
X72999Y-66365D01*
X72859Y-66025D01*
X72599Y-65765D01*
X72553Y-65746D01*
X72553Y-64258D01*
X81004Y-64258D01*
X81004Y-66088D01*
X80960Y-66107D01*
X80699Y-66367D01*
X80558Y-66707D01*
X80558Y-67075D01*
X80698Y-67415D01*
X80958Y-67675D01*
X81298Y-67817D01*
X81666Y-67817D01*
X82007Y-67676D01*
X82267Y-67416D01*
X82275Y-67397D01*
X82275Y-67564D01*
X82271Y-67564D01*
X82275Y-67612D01*
X82275Y-67682D01*
X82281Y-67682D01*
X82329Y-68219D01*
X82329Y-68219D01*
G37*
G54D18*
X82329Y-68219D02*
X82180Y-68069D01*
X81840Y-67928D01*
X81472Y-67927D01*
X81131Y-68068D01*
X80871Y-68328D01*
X80730Y-68668D01*
X80729Y-69036D01*
X80870Y-69376D01*
X81113Y-69619D01*
X81113Y-70501D01*
X76816Y-70501D01*
X76816Y-66793D01*
X76724Y-66502D01*
X76605Y-66434D01*
X76552Y-66478D01*
X76552Y-66372D01*
X76507Y-66242D01*
X76219Y-66096D01*
X75898Y-66071D01*
X75606Y-66163D01*
X75539Y-66283D01*
X76001Y-66834D01*
X76552Y-66372D01*
X76552Y-66478D01*
X76054Y-66897D01*
X76516Y-67448D01*
X76646Y-67402D01*
X76792Y-67115D01*
X76816Y-66793D01*
X76816Y-70501D01*
X76453Y-70501D01*
X76453Y-67500D01*
X75991Y-66949D01*
X75938Y-66993D01*
X75938Y-66887D01*
X75476Y-66336D01*
X75347Y-66381D01*
X75201Y-66669D01*
X75176Y-66990D01*
X75268Y-67281D01*
X75387Y-67349D01*
X75938Y-66887D01*
X75938Y-66993D01*
X75440Y-67412D01*
X75486Y-67541D01*
X75773Y-67687D01*
X76095Y-67712D01*
X76386Y-67620D01*
X76453Y-67500D01*
X76453Y-70501D01*
X72382Y-70501D01*
X72382Y-69777D01*
X72382Y-69313D01*
X72426Y-69294D01*
X72579Y-69141D01*
X72518Y-69813D01*
X74990Y-70028D01*
X75211Y-67556D01*
X74563Y-67501D01*
X74819Y-67245D01*
X74960Y-66905D01*
X74960Y-66537D01*
X74820Y-66197D01*
X74560Y-65936D01*
X74220Y-65795D01*
X73852Y-65795D01*
X73512Y-65935D01*
X73251Y-66195D01*
X73110Y-66535D01*
X73110Y-66903D01*
X73250Y-67243D01*
X73409Y-67402D01*
X72743Y-67345D01*
X72685Y-67984D01*
X72427Y-67726D01*
X72087Y-67584D01*
X71719Y-67584D01*
X71379Y-67725D01*
X71119Y-67985D01*
X70978Y-68325D01*
X70977Y-68693D01*
X71118Y-69033D01*
X71378Y-69293D01*
X71424Y-69312D01*
X71424Y-69363D01*
X67504Y-69363D01*
X67504Y-65627D01*
X67466Y-65324D01*
X67360Y-65236D01*
X67319Y-65260D01*
X67319Y-65165D01*
X67297Y-65030D01*
X67040Y-64835D01*
X66728Y-64754D01*
X66425Y-64793D01*
X66337Y-64899D01*
X66695Y-65523D01*
X67319Y-65165D01*
X67319Y-65260D01*
X66736Y-65594D01*
X67093Y-66218D01*
X67229Y-66196D01*
X67423Y-65939D01*
X67504Y-65627D01*
X67504Y-69363D01*
X67022Y-69363D01*
X67022Y-66259D01*
X66665Y-65635D01*
X66624Y-65658D01*
X66624Y-65564D01*
X66266Y-64939D01*
X66131Y-64961D01*
X65936Y-65218D01*
X65855Y-65530D01*
X65894Y-65833D01*
X66000Y-65921D01*
X66624Y-65564D01*
X66624Y-65658D01*
X66040Y-65992D01*
X66062Y-66128D01*
X66319Y-66322D01*
X66631Y-66403D01*
X66934Y-66365D01*
X67022Y-66259D01*
X67022Y-69363D01*
X62843Y-69363D01*
X62843Y-67869D01*
X65144Y-68489D01*
X65784Y-66091D01*
X65133Y-65918D01*
X65304Y-65847D01*
X65564Y-65587D01*
X65705Y-65247D01*
X65705Y-64879D01*
X65565Y-64539D01*
X65305Y-64279D01*
X64965Y-64138D01*
X64597Y-64137D01*
X64257Y-64278D01*
X63996Y-64538D01*
X63855Y-64878D01*
X63855Y-65246D01*
X63995Y-65586D01*
X64035Y-65626D01*
X63491Y-65481D01*
X63452Y-65284D01*
X63664Y-65071D01*
X63806Y-64731D01*
X63806Y-64363D01*
X63665Y-64023D01*
X63405Y-63763D01*
X63359Y-63744D01*
X63359Y-62290D01*
X71595Y-62290D01*
X71595Y-63779D01*
X71595Y-65745D01*
X71551Y-65764D01*
X71290Y-66024D01*
X71149Y-66364D01*
X71149Y-66732D01*
X71289Y-67072D01*
X71549Y-67332D01*
X71889Y-67473D01*
X72257Y-67474D01*
X72598Y-67333D01*
X72858Y-67073D01*
X72999Y-66733D01*
X72999Y-66365D01*
X72859Y-66025D01*
X72599Y-65765D01*
X72553Y-65746D01*
X72553Y-64258D01*
X81004Y-64258D01*
X81004Y-66088D01*
X80960Y-66107D01*
X80699Y-66367D01*
X80558Y-66707D01*
X80558Y-67075D01*
X80698Y-67415D01*
X80958Y-67675D01*
X81298Y-67817D01*
X81666Y-67817D01*
X82007Y-67676D01*
X82267Y-67416D01*
X82275Y-67397D01*
X82275Y-67564D01*
X82271Y-67564D01*
X82275Y-67612D01*
X82275Y-67682D01*
X82281Y-67682D01*
X82329Y-68219D01*
G54D10*
G36*
X103937Y-64011D02*
X102953Y-61931D01*
X102350Y-62214D01*
X102445Y-61984D01*
X102446Y-61616D01*
X102305Y-61276D01*
X102045Y-61015D01*
X101705Y-60874D01*
X101337Y-60874D01*
X100997Y-61014D01*
X100737Y-61274D01*
X100595Y-61614D01*
X100595Y-61982D01*
X100736Y-62322D01*
X100996Y-62583D01*
X101298Y-62708D01*
X100708Y-62985D01*
X100995Y-63590D01*
X100767Y-63495D01*
X100399Y-63495D01*
X100059Y-63635D01*
X99798Y-63895D01*
X99657Y-64235D01*
X99657Y-64603D01*
X99797Y-64943D01*
X100057Y-65204D01*
X100103Y-65223D01*
X100103Y-69335D01*
X95422Y-69335D01*
X95422Y-64481D01*
X95335Y-64171D01*
X95148Y-63929D01*
X95012Y-63907D01*
X94941Y-64031D01*
X94941Y-63866D01*
X94854Y-63761D01*
X94533Y-63723D01*
X94223Y-63811D01*
X93981Y-63998D01*
X93959Y-64133D01*
X94584Y-64491D01*
X94941Y-63866D01*
X94941Y-64031D01*
X94655Y-64531D01*
X95279Y-64889D01*
X95385Y-64801D01*
X95422Y-64481D01*
X95422Y-69335D01*
X95238Y-69335D01*
X95238Y-64960D01*
X94614Y-64602D01*
X94543Y-64726D01*
X94543Y-64562D01*
X93919Y-64204D01*
X93813Y-64292D01*
X93775Y-64612D01*
X93863Y-64922D01*
X94050Y-65164D01*
X94185Y-65186D01*
X94543Y-64562D01*
X94543Y-64726D01*
X94257Y-65227D01*
X94344Y-65332D01*
X94664Y-65370D01*
X94974Y-65282D01*
X95216Y-65095D01*
X95238Y-64960D01*
X95238Y-69335D01*
X95005Y-69335D01*
X91669Y-69335D01*
X91669Y-68334D01*
X91839Y-68263D01*
X92100Y-68003D01*
X92169Y-67836D01*
X92346Y-68485D01*
X94737Y-67834D01*
X94088Y-65443D01*
X93456Y-65614D01*
X93483Y-65587D01*
X93624Y-65247D01*
X93625Y-64879D01*
X93484Y-64539D01*
X93224Y-64279D01*
X92884Y-64138D01*
X92516Y-64137D01*
X92176Y-64278D01*
X91915Y-64538D01*
X91774Y-64878D01*
X91774Y-65246D01*
X91914Y-65586D01*
X92174Y-65847D01*
X92342Y-65916D01*
X91693Y-66092D01*
X91863Y-66718D01*
X91840Y-66695D01*
X91501Y-66553D01*
X91132Y-66553D01*
X90792Y-66694D01*
X90532Y-66954D01*
X90391Y-67294D01*
X90390Y-67662D01*
X90531Y-68002D01*
X90711Y-68182D01*
X90711Y-69817D01*
X90713Y-69830D01*
X90713Y-70501D01*
X86227Y-70501D01*
X86227Y-66630D01*
X86196Y-66309D01*
X86055Y-66038D01*
X85925Y-65992D01*
X85863Y-66067D01*
X85863Y-65940D01*
X85795Y-65820D01*
X85487Y-65726D01*
X85166Y-65758D01*
X84895Y-65899D01*
X84849Y-66028D01*
X85400Y-66491D01*
X85863Y-65940D01*
X85863Y-66067D01*
X85463Y-66543D01*
X86014Y-67006D01*
X86134Y-66938D01*
X86227Y-66630D01*
X86227Y-70501D01*
X85961Y-70501D01*
X85961Y-67068D01*
X85410Y-66606D01*
X85348Y-66681D01*
X85348Y-66554D01*
X84797Y-66091D01*
X84677Y-66159D01*
X84583Y-66467D01*
X84615Y-66788D01*
X84756Y-67059D01*
X84885Y-67105D01*
X85348Y-66554D01*
X85348Y-66681D01*
X84948Y-67157D01*
X85015Y-67277D01*
X85324Y-67371D01*
X85645Y-67339D01*
X85916Y-67198D01*
X85961Y-67068D01*
X85961Y-70501D01*
X82071Y-70501D01*
X82071Y-69682D01*
X82178Y-69637D01*
X82433Y-69383D01*
X82491Y-70028D01*
X84959Y-69803D01*
X84744Y-67339D01*
X84073Y-67400D01*
X84228Y-67245D01*
X84369Y-66905D01*
X84370Y-66537D01*
X84229Y-66197D01*
X83969Y-65936D01*
X83629Y-65795D01*
X83261Y-65795D01*
X82921Y-65935D01*
X82660Y-66195D01*
X82519Y-66535D01*
X82519Y-66903D01*
X82659Y-67243D01*
X82919Y-67504D01*
X82922Y-67505D01*
X82388Y-67553D01*
X82357Y-67200D01*
X82408Y-67076D01*
X82409Y-66708D01*
X82286Y-66413D01*
X82275Y-66287D01*
X82275Y-66385D01*
X82268Y-66368D01*
X82008Y-66108D01*
X81962Y-66089D01*
X81962Y-64258D01*
X90321Y-64258D01*
X90321Y-64776D01*
X90276Y-64794D01*
X90016Y-65054D01*
X89875Y-65394D01*
X89874Y-65762D01*
X90015Y-66102D01*
X90275Y-66363D01*
X90615Y-66504D01*
X90983Y-66504D01*
X91323Y-66364D01*
X91583Y-66104D01*
X91725Y-65764D01*
X91725Y-65396D01*
X91584Y-65055D01*
X91324Y-64795D01*
X91279Y-64776D01*
X91279Y-64074D01*
X91279Y-63831D01*
X91279Y-63119D01*
X98938Y-63119D01*
X98956Y-63164D01*
X99216Y-63424D01*
X99556Y-63565D01*
X99924Y-63566D01*
X100264Y-63425D01*
X100525Y-63165D01*
X100666Y-62825D01*
X100666Y-62457D01*
X100526Y-62117D01*
X100266Y-61856D01*
X99926Y-61715D01*
X99558Y-61715D01*
X99217Y-61855D01*
X98957Y-62115D01*
X98938Y-62161D01*
X90902Y-62161D01*
X90902Y-62161D01*
X90872Y-62167D01*
X90719Y-62198D01*
X90563Y-62302D01*
X90563Y-62302D01*
X90461Y-62404D01*
X90357Y-62559D01*
X90321Y-62743D01*
X90321Y-63300D01*
X87386Y-63300D01*
X87386Y-58125D01*
X86971Y-57119D01*
X86201Y-56349D01*
X85196Y-55931D01*
X84108Y-55931D01*
X83102Y-56346D01*
X82331Y-57115D01*
X81914Y-58121D01*
X81913Y-59209D01*
X82328Y-60215D01*
X83098Y-60986D01*
X84103Y-61403D01*
X85191Y-61404D01*
X86197Y-60988D01*
X86968Y-60219D01*
X87385Y-59214D01*
X87386Y-58125D01*
X87386Y-63300D01*
X81372Y-63300D01*
X75567Y-63300D01*
X75567Y-58125D01*
X75151Y-57119D01*
X74382Y-56349D01*
X73376Y-55931D01*
X72288Y-55931D01*
X71282Y-56346D01*
X70512Y-57115D01*
X70094Y-58121D01*
X70093Y-59209D01*
X70509Y-60215D01*
X71278Y-60986D01*
X72283Y-61403D01*
X73372Y-61404D01*
X74378Y-60988D01*
X75148Y-60219D01*
X75566Y-59214D01*
X75567Y-58125D01*
X75567Y-63300D01*
X72553Y-63300D01*
X72553Y-62035D01*
X72517Y-61851D01*
X72413Y-61696D01*
X72413Y-61696D01*
X72189Y-61472D01*
X72033Y-61368D01*
X71850Y-61332D01*
X63359Y-61332D01*
X63359Y-58845D01*
X63359Y-58845D01*
X63359Y-58845D01*
X63353Y-58815D01*
X63323Y-58662D01*
X63219Y-58506D01*
X63219Y-58506D01*
X63133Y-58421D01*
X62978Y-58317D01*
X62795Y-58280D01*
X54330Y-58280D01*
X54330Y-58280D01*
X54147Y-58317D01*
X53991Y-58421D01*
X53991Y-58421D01*
X53840Y-58572D01*
X53737Y-58727D01*
X53700Y-58910D01*
X53700Y-60155D01*
X53656Y-60173D01*
X53395Y-60433D01*
X53254Y-60773D01*
X53254Y-61141D01*
X53394Y-61481D01*
X53654Y-61742D01*
X53994Y-61883D01*
X54362Y-61883D01*
X54703Y-61743D01*
X54963Y-61482D01*
X55104Y-61143D01*
X55105Y-60775D01*
X54964Y-60434D01*
X54704Y-60174D01*
X54658Y-60155D01*
X54658Y-59238D01*
X62401Y-59238D01*
X62401Y-61811D01*
X62401Y-63743D01*
X62357Y-63762D01*
X62097Y-64022D01*
X61955Y-64362D01*
X61955Y-64730D01*
X62096Y-65070D01*
X62356Y-65330D01*
X62696Y-65472D01*
X63064Y-65472D01*
X63404Y-65331D01*
X63439Y-65297D01*
X63219Y-66092D01*
X63149Y-65923D01*
X62889Y-65662D01*
X62549Y-65521D01*
X62181Y-65521D01*
X61841Y-65661D01*
X61580Y-65921D01*
X61561Y-65967D01*
X58557Y-65967D01*
X58557Y-62527D01*
X58468Y-62423D01*
X58443Y-62432D01*
X58443Y-62208D01*
X58224Y-61972D01*
X57931Y-61837D01*
X57626Y-61822D01*
X57521Y-61911D01*
X57763Y-62588D01*
X58441Y-62345D01*
X58443Y-62208D01*
X58443Y-62432D01*
X57791Y-62665D01*
X58033Y-63342D01*
X58171Y-63344D01*
X58407Y-63125D01*
X58542Y-62833D01*
X58557Y-62527D01*
X58557Y-65967D01*
X57956Y-65967D01*
X57956Y-63370D01*
X57714Y-62693D01*
X57686Y-62702D01*
X57686Y-62615D01*
X57444Y-61938D01*
X57306Y-61936D01*
X57070Y-62155D01*
X56935Y-62448D01*
X56920Y-62753D01*
X57009Y-62858D01*
X57686Y-62615D01*
X57686Y-62702D01*
X57037Y-62935D01*
X57034Y-63072D01*
X57253Y-63309D01*
X57546Y-63444D01*
X57852Y-63459D01*
X57956Y-63370D01*
X57956Y-65967D01*
X53817Y-65967D01*
X53817Y-64338D01*
X55697Y-65230D01*
X56767Y-62987D01*
X56178Y-62709D01*
X56482Y-62584D01*
X56743Y-62324D01*
X56884Y-61984D01*
X56884Y-61616D01*
X56744Y-61276D01*
X56484Y-61015D01*
X56144Y-60874D01*
X55776Y-60874D01*
X55435Y-61014D01*
X55175Y-61274D01*
X55034Y-61614D01*
X55034Y-61982D01*
X55130Y-62215D01*
X54496Y-61916D01*
X54496Y-61998D01*
X54248Y-62518D01*
X54123Y-62214D01*
X53863Y-61954D01*
X53523Y-61812D01*
X53155Y-61812D01*
X52815Y-61953D01*
X52755Y-62012D01*
X52755Y-55511D01*
X103937Y-55511D01*
X103937Y-60439D01*
X103732Y-60254D01*
X103595Y-60256D01*
X103518Y-60471D01*
X103518Y-60228D01*
X103413Y-60139D01*
X103091Y-60158D01*
X102801Y-60299D01*
X102596Y-60526D01*
X102598Y-60663D01*
X103275Y-60905D01*
X103518Y-60228D01*
X103518Y-60471D01*
X103352Y-60933D01*
X103937Y-61142D01*
X103937Y-61229D01*
X103325Y-61010D01*
X103248Y-61225D01*
X103248Y-60982D01*
X102571Y-60740D01*
X102482Y-60845D01*
X102501Y-61167D01*
X102642Y-61457D01*
X102868Y-61662D01*
X103005Y-61660D01*
X103248Y-60982D01*
X103248Y-61225D01*
X103082Y-61687D01*
X103187Y-61776D01*
X103509Y-61757D01*
X103799Y-61616D01*
X103937Y-61465D01*
X103937Y-64011D01*
X103937Y-64011D01*
G37*
G54D18*
X103937Y-64011D02*
X102953Y-61931D01*
X102350Y-62214D01*
X102445Y-61984D01*
X102446Y-61616D01*
X102305Y-61276D01*
X102045Y-61015D01*
X101705Y-60874D01*
X101337Y-60874D01*
X100997Y-61014D01*
X100737Y-61274D01*
X100595Y-61614D01*
X100595Y-61982D01*
X100736Y-62322D01*
X100996Y-62583D01*
X101298Y-62708D01*
X100708Y-62985D01*
X100995Y-63590D01*
X100767Y-63495D01*
X100399Y-63495D01*
X100059Y-63635D01*
X99798Y-63895D01*
X99657Y-64235D01*
X99657Y-64603D01*
X99797Y-64943D01*
X100057Y-65204D01*
X100103Y-65223D01*
X100103Y-69335D01*
X95422Y-69335D01*
X95422Y-64481D01*
X95335Y-64171D01*
X95148Y-63929D01*
X95012Y-63907D01*
X94941Y-64031D01*
X94941Y-63866D01*
X94854Y-63761D01*
X94533Y-63723D01*
X94223Y-63811D01*
X93981Y-63998D01*
X93959Y-64133D01*
X94584Y-64491D01*
X94941Y-63866D01*
X94941Y-64031D01*
X94655Y-64531D01*
X95279Y-64889D01*
X95385Y-64801D01*
X95422Y-64481D01*
X95422Y-69335D01*
X95238Y-69335D01*
X95238Y-64960D01*
X94614Y-64602D01*
X94543Y-64726D01*
X94543Y-64562D01*
X93919Y-64204D01*
X93813Y-64292D01*
X93775Y-64612D01*
X93863Y-64922D01*
X94050Y-65164D01*
X94185Y-65186D01*
X94543Y-64562D01*
X94543Y-64726D01*
X94257Y-65227D01*
X94344Y-65332D01*
X94664Y-65370D01*
X94974Y-65282D01*
X95216Y-65095D01*
X95238Y-64960D01*
X95238Y-69335D01*
X95005Y-69335D01*
X91669Y-69335D01*
X91669Y-68334D01*
X91839Y-68263D01*
X92100Y-68003D01*
X92169Y-67836D01*
X92346Y-68485D01*
X94737Y-67834D01*
X94088Y-65443D01*
X93456Y-65614D01*
X93483Y-65587D01*
X93624Y-65247D01*
X93625Y-64879D01*
X93484Y-64539D01*
X93224Y-64279D01*
X92884Y-64138D01*
X92516Y-64137D01*
X92176Y-64278D01*
X91915Y-64538D01*
X91774Y-64878D01*
X91774Y-65246D01*
X91914Y-65586D01*
X92174Y-65847D01*
X92342Y-65916D01*
X91693Y-66092D01*
X91863Y-66718D01*
X91840Y-66695D01*
X91501Y-66553D01*
X91132Y-66553D01*
X90792Y-66694D01*
X90532Y-66954D01*
X90391Y-67294D01*
X90390Y-67662D01*
X90531Y-68002D01*
X90711Y-68182D01*
X90711Y-69817D01*
X90713Y-69830D01*
X90713Y-70501D01*
X86227Y-70501D01*
X86227Y-66630D01*
X86196Y-66309D01*
X86055Y-66038D01*
X85925Y-65992D01*
X85863Y-66067D01*
X85863Y-65940D01*
X85795Y-65820D01*
X85487Y-65726D01*
X85166Y-65758D01*
X84895Y-65899D01*
X84849Y-66028D01*
X85400Y-66491D01*
X85863Y-65940D01*
X85863Y-66067D01*
X85463Y-66543D01*
X86014Y-67006D01*
X86134Y-66938D01*
X86227Y-66630D01*
X86227Y-70501D01*
X85961Y-70501D01*
X85961Y-67068D01*
X85410Y-66606D01*
X85348Y-66681D01*
X85348Y-66554D01*
X84797Y-66091D01*
X84677Y-66159D01*
X84583Y-66467D01*
X84615Y-66788D01*
X84756Y-67059D01*
X84885Y-67105D01*
X85348Y-66554D01*
X85348Y-66681D01*
X84948Y-67157D01*
X85015Y-67277D01*
X85324Y-67371D01*
X85645Y-67339D01*
X85916Y-67198D01*
X85961Y-67068D01*
X85961Y-70501D01*
X82071Y-70501D01*
X82071Y-69682D01*
X82178Y-69637D01*
X82433Y-69383D01*
X82491Y-70028D01*
X84959Y-69803D01*
X84744Y-67339D01*
X84073Y-67400D01*
X84228Y-67245D01*
X84369Y-66905D01*
X84370Y-66537D01*
X84229Y-66197D01*
X83969Y-65936D01*
X83629Y-65795D01*
X83261Y-65795D01*
X82921Y-65935D01*
X82660Y-66195D01*
X82519Y-66535D01*
X82519Y-66903D01*
X82659Y-67243D01*
X82919Y-67504D01*
X82922Y-67505D01*
X82388Y-67553D01*
X82357Y-67200D01*
X82408Y-67076D01*
X82409Y-66708D01*
X82286Y-66413D01*
X82275Y-66287D01*
X82275Y-66385D01*
X82268Y-66368D01*
X82008Y-66108D01*
X81962Y-66089D01*
X81962Y-64258D01*
X90321Y-64258D01*
X90321Y-64776D01*
X90276Y-64794D01*
X90016Y-65054D01*
X89875Y-65394D01*
X89874Y-65762D01*
X90015Y-66102D01*
X90275Y-66363D01*
X90615Y-66504D01*
X90983Y-66504D01*
X91323Y-66364D01*
X91583Y-66104D01*
X91725Y-65764D01*
X91725Y-65396D01*
X91584Y-65055D01*
X91324Y-64795D01*
X91279Y-64776D01*
X91279Y-64074D01*
X91279Y-63831D01*
X91279Y-63119D01*
X98938Y-63119D01*
X98956Y-63164D01*
X99216Y-63424D01*
X99556Y-63565D01*
X99924Y-63566D01*
X100264Y-63425D01*
X100525Y-63165D01*
X100666Y-62825D01*
X100666Y-62457D01*
X100526Y-62117D01*
X100266Y-61856D01*
X99926Y-61715D01*
X99558Y-61715D01*
X99217Y-61855D01*
X98957Y-62115D01*
X98938Y-62161D01*
X90902Y-62161D01*
X90902Y-62161D01*
X90872Y-62167D01*
X90719Y-62198D01*
X90563Y-62302D01*
X90563Y-62302D01*
X90461Y-62404D01*
X90357Y-62559D01*
X90321Y-62743D01*
X90321Y-63300D01*
X87386Y-63300D01*
X87386Y-58125D01*
X86971Y-57119D01*
X86201Y-56349D01*
X85196Y-55931D01*
X84108Y-55931D01*
X83102Y-56346D01*
X82331Y-57115D01*
X81914Y-58121D01*
X81913Y-59209D01*
X82328Y-60215D01*
X83098Y-60986D01*
X84103Y-61403D01*
X85191Y-61404D01*
X86197Y-60988D01*
X86968Y-60219D01*
X87385Y-59214D01*
X87386Y-58125D01*
X87386Y-63300D01*
X81372Y-63300D01*
X75567Y-63300D01*
X75567Y-58125D01*
X75151Y-57119D01*
X74382Y-56349D01*
X73376Y-55931D01*
X72288Y-55931D01*
X71282Y-56346D01*
X70512Y-57115D01*
X70094Y-58121D01*
X70093Y-59209D01*
X70509Y-60215D01*
X71278Y-60986D01*
X72283Y-61403D01*
X73372Y-61404D01*
X74378Y-60988D01*
X75148Y-60219D01*
X75566Y-59214D01*
X75567Y-58125D01*
X75567Y-63300D01*
X72553Y-63300D01*
X72553Y-62035D01*
X72517Y-61851D01*
X72413Y-61696D01*
X72413Y-61696D01*
X72189Y-61472D01*
X72033Y-61368D01*
X71850Y-61332D01*
X63359Y-61332D01*
X63359Y-58845D01*
X63359Y-58845D01*
X63359Y-58845D01*
X63353Y-58815D01*
X63323Y-58662D01*
X63219Y-58506D01*
X63219Y-58506D01*
X63133Y-58421D01*
X62978Y-58317D01*
X62795Y-58280D01*
X54330Y-58280D01*
X54330Y-58280D01*
X54147Y-58317D01*
X53991Y-58421D01*
X53991Y-58421D01*
X53840Y-58572D01*
X53737Y-58727D01*
X53700Y-58910D01*
X53700Y-60155D01*
X53656Y-60173D01*
X53395Y-60433D01*
X53254Y-60773D01*
X53254Y-61141D01*
X53394Y-61481D01*
X53654Y-61742D01*
X53994Y-61883D01*
X54362Y-61883D01*
X54703Y-61743D01*
X54963Y-61482D01*
X55104Y-61143D01*
X55105Y-60775D01*
X54964Y-60434D01*
X54704Y-60174D01*
X54658Y-60155D01*
X54658Y-59238D01*
X62401Y-59238D01*
X62401Y-61811D01*
X62401Y-63743D01*
X62357Y-63762D01*
X62097Y-64022D01*
X61955Y-64362D01*
X61955Y-64730D01*
X62096Y-65070D01*
X62356Y-65330D01*
X62696Y-65472D01*
X63064Y-65472D01*
X63404Y-65331D01*
X63439Y-65297D01*
X63219Y-66092D01*
X63149Y-65923D01*
X62889Y-65662D01*
X62549Y-65521D01*
X62181Y-65521D01*
X61841Y-65661D01*
X61580Y-65921D01*
X61561Y-65967D01*
X58557Y-65967D01*
X58557Y-62527D01*
X58468Y-62423D01*
X58443Y-62432D01*
X58443Y-62208D01*
X58224Y-61972D01*
X57931Y-61837D01*
X57626Y-61822D01*
X57521Y-61911D01*
X57763Y-62588D01*
X58441Y-62345D01*
X58443Y-62208D01*
X58443Y-62432D01*
X57791Y-62665D01*
X58033Y-63342D01*
X58171Y-63344D01*
X58407Y-63125D01*
X58542Y-62833D01*
X58557Y-62527D01*
X58557Y-65967D01*
X57956Y-65967D01*
X57956Y-63370D01*
X57714Y-62693D01*
X57686Y-62702D01*
X57686Y-62615D01*
X57444Y-61938D01*
X57306Y-61936D01*
X57070Y-62155D01*
X56935Y-62448D01*
X56920Y-62753D01*
X57009Y-62858D01*
X57686Y-62615D01*
X57686Y-62702D01*
X57037Y-62935D01*
X57034Y-63072D01*
X57253Y-63309D01*
X57546Y-63444D01*
X57852Y-63459D01*
X57956Y-63370D01*
X57956Y-65967D01*
X53817Y-65967D01*
X53817Y-64338D01*
X55697Y-65230D01*
X56767Y-62987D01*
X56178Y-62709D01*
X56482Y-62584D01*
X56743Y-62324D01*
X56884Y-61984D01*
X56884Y-61616D01*
X56744Y-61276D01*
X56484Y-61015D01*
X56144Y-60874D01*
X55776Y-60874D01*
X55435Y-61014D01*
X55175Y-61274D01*
X55034Y-61614D01*
X55034Y-61982D01*
X55130Y-62215D01*
X54496Y-61916D01*
X54496Y-61998D01*
X54248Y-62518D01*
X54123Y-62214D01*
X53863Y-61954D01*
X53523Y-61812D01*
X53155Y-61812D01*
X52815Y-61953D01*
X52755Y-62012D01*
X52755Y-55511D01*
X103937Y-55511D01*
X103937Y-60439D01*
X103732Y-60254D01*
X103595Y-60256D01*
X103518Y-60471D01*
X103518Y-60228D01*
X103413Y-60139D01*
X103091Y-60158D01*
X102801Y-60299D01*
X102596Y-60526D01*
X102598Y-60663D01*
X103275Y-60905D01*
X103518Y-60228D01*
X103518Y-60471D01*
X103352Y-60933D01*
X103937Y-61142D01*
X103937Y-61229D01*
X103325Y-61010D01*
X103248Y-61225D01*
X103248Y-60982D01*
X102571Y-60740D01*
X102482Y-60845D01*
X102501Y-61167D01*
X102642Y-61457D01*
X102868Y-61662D01*
X103005Y-61660D01*
X103248Y-60982D01*
X103248Y-61225D01*
X103082Y-61687D01*
X103187Y-61776D01*
X103509Y-61757D01*
X103799Y-61616D01*
X103937Y-61465D01*
X103937Y-64011D01*
G54D10*
G36*
X103937Y-88976D02*
X97487Y-88976D01*
X97487Y-84377D01*
X97414Y-84063D01*
X97238Y-83813D01*
X97104Y-83785D01*
X97035Y-83894D01*
X97035Y-83741D01*
X96952Y-83631D01*
X96634Y-83579D01*
X96320Y-83653D01*
X96070Y-83829D01*
X96042Y-83963D01*
X96649Y-84348D01*
X97035Y-83741D01*
X97035Y-83894D01*
X96718Y-84392D01*
X97326Y-84778D01*
X97435Y-84695D01*
X97487Y-84377D01*
X97487Y-88976D01*
X97282Y-88976D01*
X97282Y-84847D01*
X96674Y-84461D01*
X96605Y-84570D01*
X96605Y-84418D01*
X95998Y-84032D01*
X95888Y-84115D01*
X95836Y-84433D01*
X95910Y-84747D01*
X96085Y-84997D01*
X96220Y-85025D01*
X96605Y-84418D01*
X96605Y-84570D01*
X96289Y-85069D01*
X96372Y-85178D01*
X96690Y-85231D01*
X97004Y-85157D01*
X97254Y-84981D01*
X97282Y-84847D01*
X97282Y-88976D01*
X52755Y-88976D01*
X52755Y-63463D01*
X52813Y-63521D01*
X52859Y-63540D01*
X52859Y-66428D01*
X52895Y-66611D01*
X52999Y-66767D01*
X53017Y-66785D01*
X53173Y-66889D01*
X53356Y-66925D01*
X61561Y-66925D01*
X61580Y-66970D01*
X61840Y-67230D01*
X61885Y-67249D01*
X61885Y-69839D01*
X61922Y-70023D01*
X62026Y-70178D01*
X62028Y-70181D01*
X62028Y-70181D01*
X62184Y-70285D01*
X62367Y-70321D01*
X71424Y-70321D01*
X71424Y-70980D01*
X71424Y-76588D01*
X71460Y-76771D01*
X71564Y-76926D01*
X71649Y-77011D01*
X71804Y-77115D01*
X71988Y-77152D01*
X73339Y-77152D01*
X73339Y-86491D01*
X73245Y-86584D01*
X73143Y-86830D01*
X73143Y-87097D01*
X73245Y-87343D01*
X73339Y-87437D01*
X73339Y-87828D01*
X72513Y-87828D01*
X72513Y-86832D01*
X72412Y-86585D01*
X72323Y-86497D01*
X72323Y-82972D01*
X72287Y-82789D01*
X72183Y-82633D01*
X72177Y-82627D01*
X72021Y-82523D01*
X71838Y-82487D01*
X60818Y-82487D01*
X60818Y-82487D01*
X60635Y-82523D01*
X60480Y-82627D01*
X60480Y-82627D01*
X60479Y-82628D01*
X60375Y-82784D01*
X60338Y-82967D01*
X60338Y-83602D01*
X60294Y-83620D01*
X60034Y-83880D01*
X59892Y-84220D01*
X59892Y-84588D01*
X60033Y-84928D01*
X60293Y-85189D01*
X60633Y-85330D01*
X61001Y-85330D01*
X61341Y-85190D01*
X61601Y-84930D01*
X61743Y-84590D01*
X61743Y-84222D01*
X61602Y-83881D01*
X61342Y-83621D01*
X61296Y-83602D01*
X61296Y-83445D01*
X71365Y-83445D01*
X71365Y-86497D01*
X71277Y-86584D01*
X71175Y-86830D01*
X71175Y-87097D01*
X71276Y-87343D01*
X71464Y-87531D01*
X71710Y-87633D01*
X71977Y-87633D01*
X72223Y-87532D01*
X72411Y-87344D01*
X72513Y-87098D01*
X72513Y-86832D01*
X72513Y-87828D01*
X65486Y-87828D01*
X65486Y-85275D01*
X65433Y-84974D01*
X65323Y-84891D01*
X65280Y-84919D01*
X65280Y-84822D01*
X65251Y-84687D01*
X64986Y-84505D01*
X64671Y-84438D01*
X64370Y-84490D01*
X64287Y-84600D01*
X64672Y-85207D01*
X65280Y-84822D01*
X65280Y-84919D01*
X64716Y-85276D01*
X65102Y-85884D01*
X65236Y-85856D01*
X65419Y-85590D01*
X65486Y-85275D01*
X65486Y-87828D01*
X65032Y-87828D01*
X65032Y-85928D01*
X64647Y-85320D01*
X64603Y-85348D01*
X64603Y-85251D01*
X64218Y-84644D01*
X64083Y-84672D01*
X63901Y-84938D01*
X63834Y-85253D01*
X63886Y-85554D01*
X63996Y-85637D01*
X64603Y-85251D01*
X64603Y-85348D01*
X64040Y-85706D01*
X64068Y-85840D01*
X64333Y-86023D01*
X64649Y-86090D01*
X64950Y-86037D01*
X65032Y-85928D01*
X65032Y-87828D01*
X63340Y-87828D01*
X63788Y-85819D01*
X63135Y-85672D01*
X63262Y-85619D01*
X63522Y-85359D01*
X63664Y-85019D01*
X63664Y-84651D01*
X63523Y-84311D01*
X63263Y-84050D01*
X62923Y-83909D01*
X62555Y-83909D01*
X62215Y-84050D01*
X61955Y-84310D01*
X61814Y-84649D01*
X61813Y-85018D01*
X61954Y-85358D01*
X62016Y-85420D01*
X61374Y-85275D01*
X61227Y-85933D01*
X61173Y-85803D01*
X60913Y-85542D01*
X60573Y-85401D01*
X60205Y-85401D01*
X59865Y-85541D01*
X59604Y-85801D01*
X59463Y-86141D01*
X59463Y-86509D01*
X59603Y-86849D01*
X59863Y-87110D01*
X59909Y-87129D01*
X59909Y-88301D01*
X59945Y-88485D01*
X60049Y-88640D01*
X60054Y-88645D01*
X60054Y-88645D01*
X60210Y-88749D01*
X60393Y-88786D01*
X73858Y-88786D01*
X73976Y-88786D01*
X93188Y-88786D01*
X93372Y-88749D01*
X93527Y-88645D01*
X93588Y-88585D01*
X93692Y-88429D01*
X93728Y-88246D01*
X93728Y-87988D01*
X93772Y-87970D01*
X94033Y-87710D01*
X94087Y-87581D01*
X94234Y-88239D01*
X96653Y-87696D01*
X96111Y-85277D01*
X95461Y-85422D01*
X95525Y-85359D01*
X95666Y-85019D01*
X95666Y-84651D01*
X95526Y-84311D01*
X95266Y-84050D01*
X94926Y-83909D01*
X94558Y-83909D01*
X94217Y-84050D01*
X93957Y-84310D01*
X93816Y-84649D01*
X93815Y-85018D01*
X93956Y-85358D01*
X94216Y-85618D01*
X94344Y-85671D01*
X93745Y-85805D01*
X93745Y-85080D01*
X93604Y-84740D01*
X93344Y-84480D01*
X93004Y-84339D01*
X92636Y-84338D01*
X92296Y-84479D01*
X92036Y-84739D01*
X91895Y-85079D01*
X91894Y-85447D01*
X92035Y-85787D01*
X92295Y-86048D01*
X92635Y-86189D01*
X93003Y-86189D01*
X93343Y-86049D01*
X93604Y-85788D01*
X93745Y-85449D01*
X93745Y-85080D01*
X93745Y-85805D01*
X93691Y-85817D01*
X93836Y-86463D01*
X93774Y-86401D01*
X93434Y-86260D01*
X93066Y-86259D01*
X92726Y-86400D01*
X92465Y-86660D01*
X92324Y-87000D01*
X92324Y-87368D01*
X92464Y-87708D01*
X92583Y-87828D01*
X86293Y-87828D01*
X86293Y-86832D01*
X86191Y-86585D01*
X86108Y-86502D01*
X86108Y-76203D01*
X86134Y-76177D01*
X86218Y-75975D01*
X86218Y-75757D01*
X86134Y-75555D01*
X85980Y-75400D01*
X85778Y-75317D01*
X85560Y-75317D01*
X85358Y-75400D01*
X85204Y-75554D01*
X85120Y-75756D01*
X85120Y-75974D01*
X85150Y-76049D01*
X85150Y-86491D01*
X85056Y-86584D01*
X84954Y-86830D01*
X84954Y-87097D01*
X85056Y-87343D01*
X85244Y-87531D01*
X85490Y-87633D01*
X85756Y-87633D01*
X86002Y-87532D01*
X86191Y-87344D01*
X86293Y-87098D01*
X86293Y-86832D01*
X86293Y-87828D01*
X84324Y-87828D01*
X84324Y-86832D01*
X84223Y-86585D01*
X84140Y-86502D01*
X84140Y-76911D01*
X84165Y-76886D01*
X84249Y-76684D01*
X84249Y-76466D01*
X84166Y-76264D01*
X84012Y-76109D01*
X83810Y-76025D01*
X83592Y-76025D01*
X83390Y-76109D01*
X83235Y-76263D01*
X83151Y-76465D01*
X83151Y-76683D01*
X83182Y-76757D01*
X83182Y-86491D01*
X83088Y-86584D01*
X82986Y-86830D01*
X82986Y-87097D01*
X83087Y-87343D01*
X83275Y-87531D01*
X83521Y-87633D01*
X83788Y-87633D01*
X84034Y-87532D01*
X84222Y-87344D01*
X84324Y-87098D01*
X84324Y-86832D01*
X84324Y-87828D01*
X82356Y-87828D01*
X82356Y-86832D01*
X82254Y-86585D01*
X82171Y-86502D01*
X82171Y-78017D01*
X82202Y-77944D01*
X82202Y-77725D01*
X82119Y-77524D01*
X81964Y-77369D01*
X81763Y-77285D01*
X81544Y-77285D01*
X81342Y-77368D01*
X81188Y-77523D01*
X81104Y-77724D01*
X81104Y-77943D01*
X81187Y-78145D01*
X81213Y-78171D01*
X81213Y-86491D01*
X81119Y-86584D01*
X81017Y-86830D01*
X81017Y-87097D01*
X81119Y-87343D01*
X81307Y-87531D01*
X81553Y-87633D01*
X81819Y-87633D01*
X82065Y-87532D01*
X82254Y-87344D01*
X82356Y-87098D01*
X82356Y-86832D01*
X82356Y-87828D01*
X80272Y-87828D01*
X80272Y-87208D01*
X80272Y-86720D01*
X80272Y-86617D01*
X80233Y-86522D01*
X80160Y-86449D01*
X80065Y-86410D01*
X80037Y-86410D01*
X80037Y-80446D01*
X79953Y-80244D01*
X79799Y-80089D01*
X79597Y-80006D01*
X79379Y-80006D01*
X79177Y-80089D01*
X79023Y-80243D01*
X78939Y-80445D01*
X78939Y-80663D01*
X78997Y-80804D01*
X78997Y-85014D01*
X77716Y-86295D01*
X77617Y-86295D01*
X77371Y-86396D01*
X77182Y-86584D01*
X77080Y-86830D01*
X77080Y-87097D01*
X77182Y-87343D01*
X77370Y-87531D01*
X77616Y-87633D01*
X77882Y-87633D01*
X78128Y-87532D01*
X78317Y-87344D01*
X78419Y-87098D01*
X78419Y-86947D01*
X79815Y-85551D01*
X79918Y-85396D01*
X79955Y-85212D01*
X79955Y-80861D01*
X80037Y-80664D01*
X80037Y-80446D01*
X80037Y-86410D01*
X79824Y-86410D01*
X79759Y-86475D01*
X79759Y-86923D01*
X80208Y-86923D01*
X80272Y-86858D01*
X80272Y-86720D01*
X80272Y-87208D01*
X80272Y-87070D01*
X80208Y-87005D01*
X79759Y-87005D01*
X79759Y-87454D01*
X79824Y-87518D01*
X80065Y-87518D01*
X80160Y-87479D01*
X80233Y-87406D01*
X80272Y-87311D01*
X80272Y-87208D01*
X80272Y-87828D01*
X79677Y-87828D01*
X79677Y-87454D01*
X79677Y-87005D01*
X79677Y-86923D01*
X79677Y-86475D01*
X79612Y-86410D01*
X79371Y-86410D01*
X79276Y-86449D01*
X79203Y-86522D01*
X79164Y-86617D01*
X79164Y-86720D01*
X79164Y-86858D01*
X79228Y-86923D01*
X79677Y-86923D01*
X79677Y-87005D01*
X79228Y-87005D01*
X79164Y-87070D01*
X79164Y-87208D01*
X79164Y-87311D01*
X79203Y-87406D01*
X79276Y-87479D01*
X79371Y-87518D01*
X79612Y-87518D01*
X79677Y-87454D01*
X79677Y-87828D01*
X76450Y-87828D01*
X76450Y-86832D01*
X76349Y-86585D01*
X76161Y-86397D01*
X75915Y-86295D01*
X75648Y-86295D01*
X75402Y-86396D01*
X75214Y-86584D01*
X75112Y-86830D01*
X75112Y-87097D01*
X75213Y-87343D01*
X75401Y-87531D01*
X75647Y-87633D01*
X75914Y-87633D01*
X76160Y-87532D01*
X76348Y-87344D01*
X76450Y-87098D01*
X76450Y-86832D01*
X76450Y-87828D01*
X74297Y-87828D01*
X74297Y-87426D01*
X74380Y-87344D01*
X74482Y-87098D01*
X74482Y-86832D01*
X74380Y-86585D01*
X74297Y-86502D01*
X74297Y-76951D01*
X74367Y-76782D01*
X74368Y-76564D01*
X74284Y-76362D01*
X74130Y-76208D01*
X73928Y-76124D01*
X73710Y-76124D01*
X73540Y-76194D01*
X72382Y-76194D01*
X72382Y-71459D01*
X81594Y-71459D01*
X81637Y-71459D01*
X81637Y-71459D01*
X91125Y-71459D01*
X91309Y-71422D01*
X91464Y-71319D01*
X91531Y-71252D01*
X91635Y-71096D01*
X91671Y-70913D01*
X91671Y-70293D01*
X94489Y-70293D01*
X94489Y-74094D01*
X94468Y-74115D01*
X94336Y-73983D01*
X94098Y-73884D01*
X93839Y-73884D01*
X93601Y-73982D01*
X93529Y-74054D01*
X87602Y-74054D01*
X87419Y-74090D01*
X87263Y-74194D01*
X87253Y-74204D01*
X87149Y-74359D01*
X87113Y-74543D01*
X87113Y-86497D01*
X87025Y-86584D01*
X86923Y-86830D01*
X86923Y-87097D01*
X87024Y-87343D01*
X87212Y-87531D01*
X87458Y-87633D01*
X87725Y-87633D01*
X87971Y-87532D01*
X88159Y-87344D01*
X88261Y-87098D01*
X88261Y-86832D01*
X88160Y-86585D01*
X88071Y-86497D01*
X88071Y-75012D01*
X93529Y-75012D01*
X93600Y-75083D01*
X93838Y-75182D01*
X94097Y-75182D01*
X94335Y-75083D01*
X94468Y-74951D01*
X94600Y-75083D01*
X94838Y-75182D01*
X95097Y-75182D01*
X95335Y-75083D01*
X95518Y-74901D01*
X95617Y-74663D01*
X95617Y-74404D01*
X95519Y-74166D01*
X95447Y-74094D01*
X95447Y-70293D01*
X100547Y-70293D01*
X100730Y-70257D01*
X100885Y-70153D01*
X100921Y-70118D01*
X101025Y-69963D01*
X101061Y-69779D01*
X101061Y-65223D01*
X101105Y-65205D01*
X101366Y-64945D01*
X101493Y-64638D01*
X101775Y-65230D01*
X103937Y-64205D01*
X103937Y-88976D01*
X103937Y-88976D01*
G37*
G54D18*
X103937Y-88976D02*
X97487Y-88976D01*
X97487Y-84377D01*
X97414Y-84063D01*
X97238Y-83813D01*
X97104Y-83785D01*
X97035Y-83894D01*
X97035Y-83741D01*
X96952Y-83631D01*
X96634Y-83579D01*
X96320Y-83653D01*
X96070Y-83829D01*
X96042Y-83963D01*
X96649Y-84348D01*
X97035Y-83741D01*
X97035Y-83894D01*
X96718Y-84392D01*
X97326Y-84778D01*
X97435Y-84695D01*
X97487Y-84377D01*
X97487Y-88976D01*
X97282Y-88976D01*
X97282Y-84847D01*
X96674Y-84461D01*
X96605Y-84570D01*
X96605Y-84418D01*
X95998Y-84032D01*
X95888Y-84115D01*
X95836Y-84433D01*
X95910Y-84747D01*
X96085Y-84997D01*
X96220Y-85025D01*
X96605Y-84418D01*
X96605Y-84570D01*
X96289Y-85069D01*
X96372Y-85178D01*
X96690Y-85231D01*
X97004Y-85157D01*
X97254Y-84981D01*
X97282Y-84847D01*
X97282Y-88976D01*
X52755Y-88976D01*
X52755Y-63463D01*
X52813Y-63521D01*
X52859Y-63540D01*
X52859Y-66428D01*
X52895Y-66611D01*
X52999Y-66767D01*
X53017Y-66785D01*
X53173Y-66889D01*
X53356Y-66925D01*
X61561Y-66925D01*
X61580Y-66970D01*
X61840Y-67230D01*
X61885Y-67249D01*
X61885Y-69839D01*
X61922Y-70023D01*
X62026Y-70178D01*
X62028Y-70181D01*
X62028Y-70181D01*
X62184Y-70285D01*
X62367Y-70321D01*
X71424Y-70321D01*
X71424Y-70980D01*
X71424Y-76588D01*
X71460Y-76771D01*
X71564Y-76926D01*
X71649Y-77011D01*
X71804Y-77115D01*
X71988Y-77152D01*
X73339Y-77152D01*
X73339Y-86491D01*
X73245Y-86584D01*
X73143Y-86830D01*
X73143Y-87097D01*
X73245Y-87343D01*
X73339Y-87437D01*
X73339Y-87828D01*
X72513Y-87828D01*
X72513Y-86832D01*
X72412Y-86585D01*
X72323Y-86497D01*
X72323Y-82972D01*
X72287Y-82789D01*
X72183Y-82633D01*
X72177Y-82627D01*
X72021Y-82523D01*
X71838Y-82487D01*
X60818Y-82487D01*
X60818Y-82487D01*
X60635Y-82523D01*
X60480Y-82627D01*
X60480Y-82627D01*
X60479Y-82628D01*
X60375Y-82784D01*
X60338Y-82967D01*
X60338Y-83602D01*
X60294Y-83620D01*
X60034Y-83880D01*
X59892Y-84220D01*
X59892Y-84588D01*
X60033Y-84928D01*
X60293Y-85189D01*
X60633Y-85330D01*
X61001Y-85330D01*
X61341Y-85190D01*
X61601Y-84930D01*
X61743Y-84590D01*
X61743Y-84222D01*
X61602Y-83881D01*
X61342Y-83621D01*
X61296Y-83602D01*
X61296Y-83445D01*
X71365Y-83445D01*
X71365Y-86497D01*
X71277Y-86584D01*
X71175Y-86830D01*
X71175Y-87097D01*
X71276Y-87343D01*
X71464Y-87531D01*
X71710Y-87633D01*
X71977Y-87633D01*
X72223Y-87532D01*
X72411Y-87344D01*
X72513Y-87098D01*
X72513Y-86832D01*
X72513Y-87828D01*
X65486Y-87828D01*
X65486Y-85275D01*
X65433Y-84974D01*
X65323Y-84891D01*
X65280Y-84919D01*
X65280Y-84822D01*
X65251Y-84687D01*
X64986Y-84505D01*
X64671Y-84438D01*
X64370Y-84490D01*
X64287Y-84600D01*
X64672Y-85207D01*
X65280Y-84822D01*
X65280Y-84919D01*
X64716Y-85276D01*
X65102Y-85884D01*
X65236Y-85856D01*
X65419Y-85590D01*
X65486Y-85275D01*
X65486Y-87828D01*
X65032Y-87828D01*
X65032Y-85928D01*
X64647Y-85320D01*
X64603Y-85348D01*
X64603Y-85251D01*
X64218Y-84644D01*
X64083Y-84672D01*
X63901Y-84938D01*
X63834Y-85253D01*
X63886Y-85554D01*
X63996Y-85637D01*
X64603Y-85251D01*
X64603Y-85348D01*
X64040Y-85706D01*
X64068Y-85840D01*
X64333Y-86023D01*
X64649Y-86090D01*
X64950Y-86037D01*
X65032Y-85928D01*
X65032Y-87828D01*
X63340Y-87828D01*
X63788Y-85819D01*
X63135Y-85672D01*
X63262Y-85619D01*
X63522Y-85359D01*
X63664Y-85019D01*
X63664Y-84651D01*
X63523Y-84311D01*
X63263Y-84050D01*
X62923Y-83909D01*
X62555Y-83909D01*
X62215Y-84050D01*
X61955Y-84310D01*
X61814Y-84649D01*
X61813Y-85018D01*
X61954Y-85358D01*
X62016Y-85420D01*
X61374Y-85275D01*
X61227Y-85933D01*
X61173Y-85803D01*
X60913Y-85542D01*
X60573Y-85401D01*
X60205Y-85401D01*
X59865Y-85541D01*
X59604Y-85801D01*
X59463Y-86141D01*
X59463Y-86509D01*
X59603Y-86849D01*
X59863Y-87110D01*
X59909Y-87129D01*
X59909Y-88301D01*
X59945Y-88485D01*
X60049Y-88640D01*
X60054Y-88645D01*
X60054Y-88645D01*
X60210Y-88749D01*
X60393Y-88786D01*
X73858Y-88786D01*
X73976Y-88786D01*
X93188Y-88786D01*
X93372Y-88749D01*
X93527Y-88645D01*
X93588Y-88585D01*
X93692Y-88429D01*
X93728Y-88246D01*
X93728Y-87988D01*
X93772Y-87970D01*
X94033Y-87710D01*
X94087Y-87581D01*
X94234Y-88239D01*
X96653Y-87696D01*
X96111Y-85277D01*
X95461Y-85422D01*
X95525Y-85359D01*
X95666Y-85019D01*
X95666Y-84651D01*
X95526Y-84311D01*
X95266Y-84050D01*
X94926Y-83909D01*
X94558Y-83909D01*
X94217Y-84050D01*
X93957Y-84310D01*
X93816Y-84649D01*
X93815Y-85018D01*
X93956Y-85358D01*
X94216Y-85618D01*
X94344Y-85671D01*
X93745Y-85805D01*
X93745Y-85080D01*
X93604Y-84740D01*
X93344Y-84480D01*
X93004Y-84339D01*
X92636Y-84338D01*
X92296Y-84479D01*
X92036Y-84739D01*
X91895Y-85079D01*
X91894Y-85447D01*
X92035Y-85787D01*
X92295Y-86048D01*
X92635Y-86189D01*
X93003Y-86189D01*
X93343Y-86049D01*
X93604Y-85788D01*
X93745Y-85449D01*
X93745Y-85080D01*
X93745Y-85805D01*
X93691Y-85817D01*
X93836Y-86463D01*
X93774Y-86401D01*
X93434Y-86260D01*
X93066Y-86259D01*
X92726Y-86400D01*
X92465Y-86660D01*
X92324Y-87000D01*
X92324Y-87368D01*
X92464Y-87708D01*
X92583Y-87828D01*
X86293Y-87828D01*
X86293Y-86832D01*
X86191Y-86585D01*
X86108Y-86502D01*
X86108Y-76203D01*
X86134Y-76177D01*
X86218Y-75975D01*
X86218Y-75757D01*
X86134Y-75555D01*
X85980Y-75400D01*
X85778Y-75317D01*
X85560Y-75317D01*
X85358Y-75400D01*
X85204Y-75554D01*
X85120Y-75756D01*
X85120Y-75974D01*
X85150Y-76049D01*
X85150Y-86491D01*
X85056Y-86584D01*
X84954Y-86830D01*
X84954Y-87097D01*
X85056Y-87343D01*
X85244Y-87531D01*
X85490Y-87633D01*
X85756Y-87633D01*
X86002Y-87532D01*
X86191Y-87344D01*
X86293Y-87098D01*
X86293Y-86832D01*
X86293Y-87828D01*
X84324Y-87828D01*
X84324Y-86832D01*
X84223Y-86585D01*
X84140Y-86502D01*
X84140Y-76911D01*
X84165Y-76886D01*
X84249Y-76684D01*
X84249Y-76466D01*
X84166Y-76264D01*
X84012Y-76109D01*
X83810Y-76025D01*
X83592Y-76025D01*
X83390Y-76109D01*
X83235Y-76263D01*
X83151Y-76465D01*
X83151Y-76683D01*
X83182Y-76757D01*
X83182Y-86491D01*
X83088Y-86584D01*
X82986Y-86830D01*
X82986Y-87097D01*
X83087Y-87343D01*
X83275Y-87531D01*
X83521Y-87633D01*
X83788Y-87633D01*
X84034Y-87532D01*
X84222Y-87344D01*
X84324Y-87098D01*
X84324Y-86832D01*
X84324Y-87828D01*
X82356Y-87828D01*
X82356Y-86832D01*
X82254Y-86585D01*
X82171Y-86502D01*
X82171Y-78017D01*
X82202Y-77944D01*
X82202Y-77725D01*
X82119Y-77524D01*
X81964Y-77369D01*
X81763Y-77285D01*
X81544Y-77285D01*
X81342Y-77368D01*
X81188Y-77523D01*
X81104Y-77724D01*
X81104Y-77943D01*
X81187Y-78145D01*
X81213Y-78171D01*
X81213Y-86491D01*
X81119Y-86584D01*
X81017Y-86830D01*
X81017Y-87097D01*
X81119Y-87343D01*
X81307Y-87531D01*
X81553Y-87633D01*
X81819Y-87633D01*
X82065Y-87532D01*
X82254Y-87344D01*
X82356Y-87098D01*
X82356Y-86832D01*
X82356Y-87828D01*
X80272Y-87828D01*
X80272Y-87208D01*
X80272Y-86720D01*
X80272Y-86617D01*
X80233Y-86522D01*
X80160Y-86449D01*
X80065Y-86410D01*
X80037Y-86410D01*
X80037Y-80446D01*
X79953Y-80244D01*
X79799Y-80089D01*
X79597Y-80006D01*
X79379Y-80006D01*
X79177Y-80089D01*
X79023Y-80243D01*
X78939Y-80445D01*
X78939Y-80663D01*
X78997Y-80804D01*
X78997Y-85014D01*
X77716Y-86295D01*
X77617Y-86295D01*
X77371Y-86396D01*
X77182Y-86584D01*
X77080Y-86830D01*
X77080Y-87097D01*
X77182Y-87343D01*
X77370Y-87531D01*
X77616Y-87633D01*
X77882Y-87633D01*
X78128Y-87532D01*
X78317Y-87344D01*
X78419Y-87098D01*
X78419Y-86947D01*
X79815Y-85551D01*
X79918Y-85396D01*
X79955Y-85212D01*
X79955Y-80861D01*
X80037Y-80664D01*
X80037Y-80446D01*
X80037Y-86410D01*
X79824Y-86410D01*
X79759Y-86475D01*
X79759Y-86923D01*
X80208Y-86923D01*
X80272Y-86858D01*
X80272Y-86720D01*
X80272Y-87208D01*
X80272Y-87070D01*
X80208Y-87005D01*
X79759Y-87005D01*
X79759Y-87454D01*
X79824Y-87518D01*
X80065Y-87518D01*
X80160Y-87479D01*
X80233Y-87406D01*
X80272Y-87311D01*
X80272Y-87208D01*
X80272Y-87828D01*
X79677Y-87828D01*
X79677Y-87454D01*
X79677Y-87005D01*
X79677Y-86923D01*
X79677Y-86475D01*
X79612Y-86410D01*
X79371Y-86410D01*
X79276Y-86449D01*
X79203Y-86522D01*
X79164Y-86617D01*
X79164Y-86720D01*
X79164Y-86858D01*
X79228Y-86923D01*
X79677Y-86923D01*
X79677Y-87005D01*
X79228Y-87005D01*
X79164Y-87070D01*
X79164Y-87208D01*
X79164Y-87311D01*
X79203Y-87406D01*
X79276Y-87479D01*
X79371Y-87518D01*
X79612Y-87518D01*
X79677Y-87454D01*
X79677Y-87828D01*
X76450Y-87828D01*
X76450Y-86832D01*
X76349Y-86585D01*
X76161Y-86397D01*
X75915Y-86295D01*
X75648Y-86295D01*
X75402Y-86396D01*
X75214Y-86584D01*
X75112Y-86830D01*
X75112Y-87097D01*
X75213Y-87343D01*
X75401Y-87531D01*
X75647Y-87633D01*
X75914Y-87633D01*
X76160Y-87532D01*
X76348Y-87344D01*
X76450Y-87098D01*
X76450Y-86832D01*
X76450Y-87828D01*
X74297Y-87828D01*
X74297Y-87426D01*
X74380Y-87344D01*
X74482Y-87098D01*
X74482Y-86832D01*
X74380Y-86585D01*
X74297Y-86502D01*
X74297Y-76951D01*
X74367Y-76782D01*
X74368Y-76564D01*
X74284Y-76362D01*
X74130Y-76208D01*
X73928Y-76124D01*
X73710Y-76124D01*
X73540Y-76194D01*
X72382Y-76194D01*
X72382Y-71459D01*
X81594Y-71459D01*
X81637Y-71459D01*
X81637Y-71459D01*
X91125Y-71459D01*
X91309Y-71422D01*
X91464Y-71319D01*
X91531Y-71252D01*
X91635Y-71096D01*
X91671Y-70913D01*
X91671Y-70293D01*
X94489Y-70293D01*
X94489Y-74094D01*
X94468Y-74115D01*
X94336Y-73983D01*
X94098Y-73884D01*
X93839Y-73884D01*
X93601Y-73982D01*
X93529Y-74054D01*
X87602Y-74054D01*
X87419Y-74090D01*
X87263Y-74194D01*
X87253Y-74204D01*
X87149Y-74359D01*
X87113Y-74543D01*
X87113Y-86497D01*
X87025Y-86584D01*
X86923Y-86830D01*
X86923Y-87097D01*
X87024Y-87343D01*
X87212Y-87531D01*
X87458Y-87633D01*
X87725Y-87633D01*
X87971Y-87532D01*
X88159Y-87344D01*
X88261Y-87098D01*
X88261Y-86832D01*
X88160Y-86585D01*
X88071Y-86497D01*
X88071Y-75012D01*
X93529Y-75012D01*
X93600Y-75083D01*
X93838Y-75182D01*
X94097Y-75182D01*
X94335Y-75083D01*
X94468Y-74951D01*
X94600Y-75083D01*
X94838Y-75182D01*
X95097Y-75182D01*
X95335Y-75083D01*
X95518Y-74901D01*
X95617Y-74663D01*
X95617Y-74404D01*
X95519Y-74166D01*
X95447Y-74094D01*
X95447Y-70293D01*
X100547Y-70293D01*
X100730Y-70257D01*
X100885Y-70153D01*
X100921Y-70118D01*
X101025Y-69963D01*
X101061Y-69779D01*
X101061Y-65223D01*
X101105Y-65205D01*
X101366Y-64945D01*
X101493Y-64638D01*
X101775Y-65230D01*
X103937Y-64205D01*
X103937Y-88976D01*
M02*
