M48
;DRILL file {Pcbnew (2013-07-07 BZR 4022)-stable} date 10/26/2015 6:46:53 PM
;FORMAT={-:-/ absolute / inch / decimal}
FMAT,2
INCH,TZ
T1C0.040
T2C0.061
%
G90
G05
M72
T1
X7.7193Y-9.252
X7.8693Y-9.252
X8.0193Y-9.252
X8.1693Y-9.252
X8.3193Y-9.252
X8.4693Y-9.252
X8.6193Y-9.252
T2
X7.5984Y-4.9213
X7.5984Y-5.1181
X7.5984Y-7.2835
X7.5984Y-7.4803
X7.7953Y-4.9213
X7.7953Y-7.2835
X7.9921Y-4.9213
X7.9921Y-7.2835
X8.3465Y-6.1024
X8.3465Y-6.2992
X8.3465Y-8.4646
X8.3465Y-8.6614
X8.5433Y-6.1024
X8.5433Y-8.4646
X8.7402Y-6.1024
X8.7402Y-8.4646
T0
M30
