G04 (created by PCBNEW (2013-07-07 BZR 4022)-stable) date 10/26/2015 6:46:51 PM*
%MOIN*%
G04 Gerber Fmt 3.4, Leading zero omitted, Abs format*
%FSLAX34Y34*%
G01*
G70*
G90*
G04 APERTURE LIST*
%ADD10C,0.00590551*%
%ADD11C,0.00984252*%
%ADD12C,0.011811*%
%ADD13C,0.00393701*%
G04 APERTURE END LIST*
G54D10*
G54D11*
X85554Y-91872D02*
X85611Y-91891D01*
X85704Y-91891D01*
X85742Y-91872D01*
X85761Y-91854D01*
X85779Y-91816D01*
X85779Y-91779D01*
X85761Y-91741D01*
X85742Y-91722D01*
X85704Y-91704D01*
X85629Y-91685D01*
X85592Y-91666D01*
X85573Y-91647D01*
X85554Y-91610D01*
X85554Y-91572D01*
X85573Y-91535D01*
X85592Y-91516D01*
X85629Y-91497D01*
X85723Y-91497D01*
X85779Y-91516D01*
X85948Y-91891D02*
X85948Y-91497D01*
X86042Y-91497D01*
X86098Y-91516D01*
X86136Y-91554D01*
X86154Y-91591D01*
X86173Y-91666D01*
X86173Y-91722D01*
X86154Y-91797D01*
X86136Y-91835D01*
X86098Y-91872D01*
X86042Y-91891D01*
X85948Y-91891D01*
X86323Y-91779D02*
X86511Y-91779D01*
X86286Y-91891D02*
X86417Y-91497D01*
X86548Y-91891D01*
X86848Y-91629D02*
X86848Y-91891D01*
X86754Y-91479D02*
X86661Y-91760D01*
X86904Y-91760D01*
X83980Y-91282D02*
X84036Y-91301D01*
X84130Y-91301D01*
X84167Y-91282D01*
X84186Y-91263D01*
X84205Y-91226D01*
X84205Y-91188D01*
X84186Y-91151D01*
X84167Y-91132D01*
X84130Y-91113D01*
X84055Y-91094D01*
X84017Y-91076D01*
X83998Y-91057D01*
X83980Y-91019D01*
X83980Y-90982D01*
X83998Y-90944D01*
X84017Y-90926D01*
X84055Y-90907D01*
X84148Y-90907D01*
X84205Y-90926D01*
X84373Y-91301D02*
X84373Y-90907D01*
X84467Y-90907D01*
X84523Y-90926D01*
X84561Y-90963D01*
X84580Y-91001D01*
X84598Y-91076D01*
X84598Y-91132D01*
X84580Y-91207D01*
X84561Y-91244D01*
X84523Y-91282D01*
X84467Y-91301D01*
X84373Y-91301D01*
X84748Y-91188D02*
X84936Y-91188D01*
X84711Y-91301D02*
X84842Y-90907D01*
X84973Y-91301D01*
X85067Y-90907D02*
X85311Y-90907D01*
X85179Y-91057D01*
X85236Y-91057D01*
X85273Y-91076D01*
X85292Y-91094D01*
X85311Y-91132D01*
X85311Y-91226D01*
X85292Y-91263D01*
X85273Y-91282D01*
X85236Y-91301D01*
X85123Y-91301D01*
X85086Y-91282D01*
X85067Y-91263D01*
X82602Y-91872D02*
X82658Y-91891D01*
X82752Y-91891D01*
X82789Y-91872D01*
X82808Y-91854D01*
X82827Y-91816D01*
X82827Y-91779D01*
X82808Y-91741D01*
X82789Y-91722D01*
X82752Y-91704D01*
X82677Y-91685D01*
X82639Y-91666D01*
X82620Y-91647D01*
X82602Y-91610D01*
X82602Y-91572D01*
X82620Y-91535D01*
X82639Y-91516D01*
X82677Y-91497D01*
X82770Y-91497D01*
X82827Y-91516D01*
X82995Y-91891D02*
X82995Y-91497D01*
X83089Y-91497D01*
X83145Y-91516D01*
X83183Y-91554D01*
X83202Y-91591D01*
X83220Y-91666D01*
X83220Y-91722D01*
X83202Y-91797D01*
X83183Y-91835D01*
X83145Y-91872D01*
X83089Y-91891D01*
X82995Y-91891D01*
X83370Y-91779D02*
X83558Y-91779D01*
X83333Y-91891D02*
X83464Y-91497D01*
X83595Y-91891D01*
X83708Y-91535D02*
X83727Y-91516D01*
X83764Y-91497D01*
X83858Y-91497D01*
X83895Y-91516D01*
X83914Y-91535D01*
X83933Y-91572D01*
X83933Y-91610D01*
X83914Y-91666D01*
X83689Y-91891D01*
X83933Y-91891D01*
X81027Y-91282D02*
X81083Y-91301D01*
X81177Y-91301D01*
X81214Y-91282D01*
X81233Y-91263D01*
X81252Y-91226D01*
X81252Y-91188D01*
X81233Y-91151D01*
X81214Y-91132D01*
X81177Y-91113D01*
X81102Y-91094D01*
X81064Y-91076D01*
X81046Y-91057D01*
X81027Y-91019D01*
X81027Y-90982D01*
X81046Y-90944D01*
X81064Y-90926D01*
X81102Y-90907D01*
X81196Y-90907D01*
X81252Y-90926D01*
X81421Y-91301D02*
X81421Y-90907D01*
X81514Y-90907D01*
X81571Y-90926D01*
X81608Y-90963D01*
X81627Y-91001D01*
X81646Y-91076D01*
X81646Y-91132D01*
X81627Y-91207D01*
X81608Y-91244D01*
X81571Y-91282D01*
X81514Y-91301D01*
X81421Y-91301D01*
X81796Y-91188D02*
X81983Y-91188D01*
X81758Y-91301D02*
X81889Y-90907D01*
X82020Y-91301D01*
X82358Y-91301D02*
X82133Y-91301D01*
X82245Y-91301D02*
X82245Y-90907D01*
X82208Y-90963D01*
X82170Y-91001D01*
X82133Y-91019D01*
X79649Y-91872D02*
X79705Y-91891D01*
X79799Y-91891D01*
X79836Y-91872D01*
X79855Y-91854D01*
X79874Y-91816D01*
X79874Y-91779D01*
X79855Y-91741D01*
X79836Y-91722D01*
X79799Y-91704D01*
X79724Y-91685D01*
X79686Y-91666D01*
X79668Y-91647D01*
X79649Y-91610D01*
X79649Y-91572D01*
X79668Y-91535D01*
X79686Y-91516D01*
X79724Y-91497D01*
X79818Y-91497D01*
X79874Y-91516D01*
X80268Y-91854D02*
X80249Y-91872D01*
X80193Y-91891D01*
X80155Y-91891D01*
X80099Y-91872D01*
X80061Y-91835D01*
X80043Y-91797D01*
X80024Y-91722D01*
X80024Y-91666D01*
X80043Y-91591D01*
X80061Y-91554D01*
X80099Y-91516D01*
X80155Y-91497D01*
X80193Y-91497D01*
X80249Y-91516D01*
X80268Y-91535D01*
X80624Y-91891D02*
X80436Y-91891D01*
X80436Y-91497D01*
X78440Y-91516D02*
X78402Y-91497D01*
X78346Y-91497D01*
X78290Y-91516D01*
X78252Y-91554D01*
X78233Y-91591D01*
X78215Y-91666D01*
X78215Y-91722D01*
X78233Y-91797D01*
X78252Y-91835D01*
X78290Y-91872D01*
X78346Y-91891D01*
X78383Y-91891D01*
X78440Y-91872D01*
X78458Y-91854D01*
X78458Y-91722D01*
X78383Y-91722D01*
X78627Y-91891D02*
X78627Y-91497D01*
X78852Y-91891D01*
X78852Y-91497D01*
X79040Y-91891D02*
X79040Y-91497D01*
X79133Y-91497D01*
X79190Y-91516D01*
X79227Y-91554D01*
X79246Y-91591D01*
X79265Y-91666D01*
X79265Y-91722D01*
X79246Y-91797D01*
X79227Y-91835D01*
X79190Y-91872D01*
X79133Y-91891D01*
X79040Y-91891D01*
X76640Y-91497D02*
X76771Y-91891D01*
X76902Y-91497D01*
X77034Y-91891D02*
X77034Y-91497D01*
X77127Y-91497D01*
X77184Y-91516D01*
X77221Y-91554D01*
X77240Y-91591D01*
X77259Y-91666D01*
X77259Y-91722D01*
X77240Y-91797D01*
X77221Y-91835D01*
X77184Y-91872D01*
X77127Y-91891D01*
X77034Y-91891D01*
X77427Y-91891D02*
X77427Y-91497D01*
X77521Y-91497D01*
X77577Y-91516D01*
X77615Y-91554D01*
X77634Y-91591D01*
X77652Y-91666D01*
X77652Y-91722D01*
X77634Y-91797D01*
X77615Y-91835D01*
X77577Y-91872D01*
X77521Y-91891D01*
X77427Y-91891D01*
G54D12*
X84406Y-88624D02*
X84406Y-88034D01*
X84603Y-88456D01*
X84800Y-88034D01*
X84800Y-88624D01*
X85053Y-88456D02*
X85334Y-88456D01*
X84997Y-88624D02*
X85194Y-88034D01*
X85390Y-88624D01*
X85897Y-88062D02*
X85840Y-88034D01*
X85756Y-88034D01*
X85672Y-88062D01*
X85615Y-88118D01*
X85587Y-88174D01*
X85559Y-88287D01*
X85559Y-88371D01*
X85587Y-88484D01*
X85615Y-88540D01*
X85672Y-88596D01*
X85756Y-88624D01*
X85812Y-88624D01*
X85897Y-88596D01*
X85925Y-88568D01*
X85925Y-88371D01*
X85812Y-88371D01*
X86431Y-88231D02*
X86431Y-88624D01*
X86290Y-88006D02*
X86150Y-88428D01*
X86515Y-88428D01*
X76926Y-77207D02*
X76926Y-76616D01*
X77123Y-77038D01*
X77320Y-76616D01*
X77320Y-77207D01*
X77573Y-77038D02*
X77854Y-77038D01*
X77516Y-77207D02*
X77713Y-76616D01*
X77910Y-77207D01*
X78416Y-76645D02*
X78360Y-76616D01*
X78276Y-76616D01*
X78191Y-76645D01*
X78135Y-76701D01*
X78107Y-76757D01*
X78079Y-76870D01*
X78079Y-76954D01*
X78107Y-77066D01*
X78135Y-77123D01*
X78191Y-77179D01*
X78276Y-77207D01*
X78332Y-77207D01*
X78416Y-77179D01*
X78444Y-77151D01*
X78444Y-76954D01*
X78332Y-76954D01*
X78641Y-76616D02*
X79007Y-76616D01*
X78810Y-76841D01*
X78894Y-76841D01*
X78951Y-76870D01*
X78979Y-76898D01*
X79007Y-76954D01*
X79007Y-77095D01*
X78979Y-77151D01*
X78951Y-77179D01*
X78894Y-77207D01*
X78726Y-77207D01*
X78669Y-77179D01*
X78641Y-77151D01*
X84406Y-65396D02*
X84406Y-64805D01*
X84603Y-65227D01*
X84800Y-64805D01*
X84800Y-65396D01*
X85053Y-65227D02*
X85334Y-65227D01*
X84997Y-65396D02*
X85194Y-64805D01*
X85390Y-65396D01*
X85897Y-64834D02*
X85840Y-64805D01*
X85756Y-64805D01*
X85672Y-64834D01*
X85615Y-64890D01*
X85587Y-64946D01*
X85559Y-65059D01*
X85559Y-65143D01*
X85587Y-65255D01*
X85615Y-65312D01*
X85672Y-65368D01*
X85756Y-65396D01*
X85812Y-65396D01*
X85897Y-65368D01*
X85925Y-65340D01*
X85925Y-65143D01*
X85812Y-65143D01*
X86150Y-64862D02*
X86178Y-64834D01*
X86234Y-64805D01*
X86375Y-64805D01*
X86431Y-64834D01*
X86459Y-64862D01*
X86487Y-64918D01*
X86487Y-64974D01*
X86459Y-65059D01*
X86122Y-65396D01*
X86487Y-65396D01*
X76926Y-53585D02*
X76926Y-52994D01*
X77123Y-53416D01*
X77320Y-52994D01*
X77320Y-53585D01*
X77573Y-53416D02*
X77854Y-53416D01*
X77516Y-53585D02*
X77713Y-52994D01*
X77910Y-53585D01*
X78416Y-53023D02*
X78360Y-52994D01*
X78276Y-52994D01*
X78191Y-53023D01*
X78135Y-53079D01*
X78107Y-53135D01*
X78079Y-53248D01*
X78079Y-53332D01*
X78107Y-53444D01*
X78135Y-53501D01*
X78191Y-53557D01*
X78276Y-53585D01*
X78332Y-53585D01*
X78416Y-53557D01*
X78444Y-53529D01*
X78444Y-53332D01*
X78332Y-53332D01*
X79007Y-53585D02*
X78669Y-53585D01*
X78838Y-53585D02*
X78838Y-52994D01*
X78782Y-53079D01*
X78726Y-53135D01*
X78669Y-53163D01*
G54D13*
X74606Y-93110D02*
X74803Y-93110D01*
X74606Y-45669D02*
X74606Y-93110D01*
X74803Y-45669D02*
X74606Y-45669D01*
X74803Y-45669D02*
X88582Y-45669D01*
X88779Y-93110D02*
X88582Y-93110D01*
X88779Y-45669D02*
X88779Y-93110D01*
X88582Y-45669D02*
X88779Y-45669D01*
X74803Y-93110D02*
X88582Y-93110D01*
G54D10*
X76771Y-50000D02*
X79133Y-50000D01*
X79133Y-50000D02*
X79133Y-51968D01*
X79133Y-51968D02*
X76771Y-51968D01*
X76771Y-51968D02*
X76771Y-50000D01*
X77952Y-51968D02*
X80807Y-51968D01*
X80807Y-51968D02*
X80807Y-45767D01*
X80807Y-45767D02*
X75000Y-45767D01*
X75000Y-45767D02*
X75000Y-51968D01*
X75000Y-51968D02*
X78051Y-51968D01*
X77362Y-50590D02*
X78543Y-50590D01*
X78543Y-50590D02*
X78543Y-51771D01*
X78543Y-51771D02*
X77362Y-51771D01*
X77362Y-51771D02*
X77362Y-50590D01*
X77362Y-50590D02*
X77362Y-50787D01*
X76771Y-73622D02*
X79133Y-73622D01*
X79133Y-73622D02*
X79133Y-75590D01*
X79133Y-75590D02*
X76771Y-75590D01*
X76771Y-75590D02*
X76771Y-73622D01*
X77952Y-75590D02*
X80807Y-75590D01*
X80807Y-75590D02*
X80807Y-69389D01*
X80807Y-69389D02*
X75000Y-69389D01*
X75000Y-69389D02*
X75000Y-75590D01*
X75000Y-75590D02*
X78051Y-75590D01*
X77362Y-74212D02*
X78543Y-74212D01*
X78543Y-74212D02*
X78543Y-75393D01*
X78543Y-75393D02*
X77362Y-75393D01*
X77362Y-75393D02*
X77362Y-74212D01*
X77362Y-74212D02*
X77362Y-74409D01*
X84251Y-61811D02*
X86614Y-61811D01*
X86614Y-61811D02*
X86614Y-63779D01*
X86614Y-63779D02*
X84251Y-63779D01*
X84251Y-63779D02*
X84251Y-61811D01*
X85433Y-63779D02*
X88287Y-63779D01*
X88287Y-63779D02*
X88287Y-57578D01*
X88287Y-57578D02*
X82480Y-57578D01*
X82480Y-57578D02*
X82480Y-63779D01*
X82480Y-63779D02*
X85531Y-63779D01*
X84842Y-62401D02*
X86023Y-62401D01*
X86023Y-62401D02*
X86023Y-63582D01*
X86023Y-63582D02*
X84842Y-63582D01*
X84842Y-63582D02*
X84842Y-62401D01*
X84842Y-62401D02*
X84842Y-62598D01*
X84251Y-85433D02*
X86614Y-85433D01*
X86614Y-85433D02*
X86614Y-87401D01*
X86614Y-87401D02*
X84251Y-87401D01*
X84251Y-87401D02*
X84251Y-85433D01*
X85433Y-87401D02*
X88287Y-87401D01*
X88287Y-87401D02*
X88287Y-81200D01*
X88287Y-81200D02*
X82480Y-81200D01*
X82480Y-81200D02*
X82480Y-87401D01*
X82480Y-87401D02*
X85531Y-87401D01*
X84842Y-86023D02*
X86023Y-86023D01*
X86023Y-86023D02*
X86023Y-87204D01*
X86023Y-87204D02*
X84842Y-87204D01*
X84842Y-87204D02*
X84842Y-86023D01*
X84842Y-86023D02*
X84842Y-86220D01*
M02*
