G04 (created by PCBNEW (2013-07-07 BZR 4022)-stable) date 7/29/2015 5:29:03 PM*
%MOIN*%
G04 Gerber Fmt 3.4, Leading zero omitted, Abs format*
%FSLAX34Y34*%
G01*
G70*
G90*
G04 APERTURE LIST*
%ADD10C,0.00590551*%
%ADD11C,0.008*%
%ADD12C,0.015*%
G04 APERTURE END LIST*
G54D10*
G54D11*
X98893Y-45275D02*
X99093Y-45275D01*
X101893Y-45275D02*
X101693Y-45275D01*
X101693Y-45275D02*
X101693Y-44875D01*
X101693Y-44875D02*
X99093Y-44875D01*
X99093Y-44875D02*
X99093Y-45675D01*
X99093Y-45675D02*
X101693Y-45675D01*
X101693Y-45675D02*
X101693Y-45275D01*
X99093Y-45075D02*
X99293Y-44875D01*
G54D12*
X95956Y-45275D02*
X96956Y-45275D01*
X96515Y-45275D02*
G75*
G03X96515Y-45275I-559J0D01*
G74*
G01*
G54D10*
X95511Y-39960D02*
X95511Y-40000D01*
X101338Y-39921D02*
X101338Y-40000D01*
X95511Y-40000D02*
X101338Y-40000D01*
X95511Y-33818D02*
X101338Y-33818D01*
X101338Y-33822D02*
X101338Y-39952D01*
X95511Y-39952D02*
X95511Y-33822D01*
X97834Y-38779D02*
X99015Y-38779D01*
X99015Y-38779D02*
X99015Y-39960D01*
X99015Y-39960D02*
X97834Y-39960D01*
X97834Y-39960D02*
X97834Y-38779D01*
X97834Y-38779D02*
X97834Y-38976D01*
G54D11*
X99786Y-44998D02*
X100096Y-44998D01*
X99929Y-45207D01*
X100000Y-45207D01*
X100048Y-45233D01*
X100072Y-45260D01*
X100096Y-45312D01*
X100096Y-45443D01*
X100072Y-45495D01*
X100048Y-45522D01*
X100000Y-45548D01*
X99857Y-45548D01*
X99810Y-45522D01*
X99786Y-45495D01*
X100405Y-44998D02*
X100453Y-44998D01*
X100500Y-45024D01*
X100524Y-45050D01*
X100548Y-45102D01*
X100572Y-45207D01*
X100572Y-45338D01*
X100548Y-45443D01*
X100524Y-45495D01*
X100500Y-45522D01*
X100453Y-45548D01*
X100405Y-45548D01*
X100357Y-45522D01*
X100334Y-45495D01*
X100310Y-45443D01*
X100286Y-45338D01*
X100286Y-45207D01*
X100310Y-45102D01*
X100334Y-45050D01*
X100357Y-45024D01*
X100405Y-44998D01*
X100786Y-45548D02*
X100786Y-44998D01*
X100834Y-45338D02*
X100977Y-45548D01*
X100977Y-45181D02*
X100786Y-45391D01*
X95973Y-46498D02*
X95806Y-46236D01*
X95687Y-46498D02*
X95687Y-45948D01*
X95878Y-45948D01*
X95925Y-45974D01*
X95949Y-46000D01*
X95973Y-46052D01*
X95973Y-46131D01*
X95949Y-46183D01*
X95925Y-46210D01*
X95878Y-46236D01*
X95687Y-46236D01*
X96449Y-46498D02*
X96163Y-46498D01*
X96306Y-46498D02*
X96306Y-45948D01*
X96259Y-46026D01*
X96211Y-46079D01*
X96163Y-46105D01*
G54D10*
X98134Y-34805D02*
X98134Y-34411D01*
X98284Y-34411D01*
X98322Y-34430D01*
X98340Y-34448D01*
X98359Y-34486D01*
X98359Y-34542D01*
X98340Y-34580D01*
X98322Y-34598D01*
X98284Y-34617D01*
X98134Y-34617D01*
X98734Y-34805D02*
X98509Y-34805D01*
X98622Y-34805D02*
X98622Y-34411D01*
X98584Y-34467D01*
X98547Y-34505D01*
X98509Y-34523D01*
X94863Y-35386D02*
X94919Y-35404D01*
X94938Y-35423D01*
X94956Y-35461D01*
X94956Y-35517D01*
X94938Y-35554D01*
X94919Y-35573D01*
X94881Y-35592D01*
X94731Y-35592D01*
X94731Y-35198D01*
X94863Y-35198D01*
X94900Y-35217D01*
X94919Y-35236D01*
X94938Y-35273D01*
X94938Y-35311D01*
X94919Y-35348D01*
X94900Y-35367D01*
X94863Y-35386D01*
X94731Y-35386D01*
X95200Y-35198D02*
X95275Y-35198D01*
X95313Y-35217D01*
X95350Y-35254D01*
X95369Y-35329D01*
X95369Y-35461D01*
X95350Y-35536D01*
X95313Y-35573D01*
X95275Y-35592D01*
X95200Y-35592D01*
X95163Y-35573D01*
X95125Y-35536D01*
X95106Y-35461D01*
X95106Y-35329D01*
X95125Y-35254D01*
X95163Y-35217D01*
X95200Y-35198D01*
X95725Y-35592D02*
X95538Y-35592D01*
X95538Y-35198D01*
X95800Y-35198D02*
X96025Y-35198D01*
X95913Y-35592D02*
X95913Y-35198D01*
X96062Y-35629D02*
X96362Y-35629D01*
X96681Y-35554D02*
X96662Y-35573D01*
X96606Y-35592D01*
X96569Y-35592D01*
X96512Y-35573D01*
X96475Y-35536D01*
X96456Y-35498D01*
X96437Y-35423D01*
X96437Y-35367D01*
X96456Y-35292D01*
X96475Y-35254D01*
X96512Y-35217D01*
X96569Y-35198D01*
X96606Y-35198D01*
X96662Y-35217D01*
X96681Y-35236D01*
X96925Y-35198D02*
X97000Y-35198D01*
X97037Y-35217D01*
X97075Y-35254D01*
X97094Y-35329D01*
X97094Y-35461D01*
X97075Y-35536D01*
X97037Y-35573D01*
X97000Y-35592D01*
X96925Y-35592D01*
X96887Y-35573D01*
X96850Y-35536D01*
X96831Y-35461D01*
X96831Y-35329D01*
X96850Y-35254D01*
X96887Y-35217D01*
X96925Y-35198D01*
X97262Y-35592D02*
X97262Y-35198D01*
X97487Y-35592D01*
X97487Y-35198D01*
X97675Y-35592D02*
X97675Y-35198D01*
X97900Y-35592D01*
X97900Y-35198D01*
X97994Y-35629D02*
X98293Y-35629D01*
X98368Y-35573D02*
X98425Y-35592D01*
X98518Y-35592D01*
X98556Y-35573D01*
X98575Y-35554D01*
X98593Y-35517D01*
X98593Y-35479D01*
X98575Y-35442D01*
X98556Y-35423D01*
X98518Y-35404D01*
X98443Y-35386D01*
X98406Y-35367D01*
X98387Y-35348D01*
X98368Y-35311D01*
X98368Y-35273D01*
X98387Y-35236D01*
X98406Y-35217D01*
X98443Y-35198D01*
X98537Y-35198D01*
X98593Y-35217D01*
X98762Y-35592D02*
X98762Y-35198D01*
X98950Y-35592D02*
X98950Y-35198D01*
X99175Y-35592D01*
X99175Y-35198D01*
X99568Y-35217D02*
X99531Y-35198D01*
X99475Y-35198D01*
X99418Y-35217D01*
X99381Y-35254D01*
X99362Y-35292D01*
X99343Y-35367D01*
X99343Y-35423D01*
X99362Y-35498D01*
X99381Y-35536D01*
X99418Y-35573D01*
X99475Y-35592D01*
X99512Y-35592D01*
X99568Y-35573D01*
X99587Y-35554D01*
X99587Y-35423D01*
X99512Y-35423D01*
X99943Y-35592D02*
X99756Y-35592D01*
X99756Y-35198D01*
X100074Y-35386D02*
X100206Y-35386D01*
X100262Y-35592D02*
X100074Y-35592D01*
X100074Y-35198D01*
X100262Y-35198D01*
X100337Y-35629D02*
X100637Y-35629D01*
X100712Y-35573D02*
X100768Y-35592D01*
X100862Y-35592D01*
X100899Y-35573D01*
X100918Y-35554D01*
X100937Y-35517D01*
X100937Y-35479D01*
X100918Y-35442D01*
X100899Y-35423D01*
X100862Y-35404D01*
X100787Y-35386D01*
X100749Y-35367D01*
X100731Y-35348D01*
X100712Y-35311D01*
X100712Y-35273D01*
X100731Y-35236D01*
X100749Y-35217D01*
X100787Y-35198D01*
X100881Y-35198D01*
X100937Y-35217D01*
X101106Y-35198D02*
X101106Y-35517D01*
X101124Y-35554D01*
X101143Y-35573D01*
X101181Y-35592D01*
X101256Y-35592D01*
X101293Y-35573D01*
X101312Y-35554D01*
X101331Y-35517D01*
X101331Y-35198D01*
X101518Y-35592D02*
X101518Y-35198D01*
X101668Y-35198D01*
X101706Y-35217D01*
X101724Y-35236D01*
X101743Y-35273D01*
X101743Y-35329D01*
X101724Y-35367D01*
X101706Y-35386D01*
X101668Y-35404D01*
X101518Y-35404D01*
X101912Y-35592D02*
X101912Y-35198D01*
X102062Y-35198D01*
X102099Y-35217D01*
X102118Y-35236D01*
X102137Y-35273D01*
X102137Y-35329D01*
X102118Y-35367D01*
X102099Y-35386D01*
X102062Y-35404D01*
X101912Y-35404D01*
X97309Y-45986D02*
X97309Y-45592D01*
X97309Y-45779D02*
X97534Y-45779D01*
X97534Y-45986D02*
X97534Y-45592D01*
X97947Y-45948D02*
X97928Y-45967D01*
X97872Y-45986D01*
X97834Y-45986D01*
X97778Y-45967D01*
X97740Y-45929D01*
X97722Y-45892D01*
X97703Y-45817D01*
X97703Y-45761D01*
X97722Y-45686D01*
X97740Y-45648D01*
X97778Y-45611D01*
X97834Y-45592D01*
X97872Y-45592D01*
X97928Y-45611D01*
X97947Y-45629D01*
X98190Y-45592D02*
X98265Y-45592D01*
X98303Y-45611D01*
X98340Y-45648D01*
X98359Y-45723D01*
X98359Y-45854D01*
X98340Y-45929D01*
X98303Y-45967D01*
X98265Y-45986D01*
X98190Y-45986D01*
X98153Y-45967D01*
X98115Y-45929D01*
X98097Y-45854D01*
X98097Y-45723D01*
X98115Y-45648D01*
X98153Y-45611D01*
X98190Y-45592D01*
X98528Y-45986D02*
X98528Y-45592D01*
X98753Y-45986D01*
X98753Y-45592D01*
X98940Y-45986D02*
X98940Y-45592D01*
X99165Y-45986D01*
X99165Y-45592D01*
X99559Y-45986D02*
X99334Y-45986D01*
X99446Y-45986D02*
X99446Y-45592D01*
X99409Y-45648D01*
X99371Y-45686D01*
X99334Y-45704D01*
X96803Y-45159D02*
X96803Y-44765D01*
X96803Y-44953D02*
X97028Y-44953D01*
X97028Y-45159D02*
X97028Y-44765D01*
X97290Y-44765D02*
X97365Y-44765D01*
X97403Y-44784D01*
X97440Y-44821D01*
X97459Y-44896D01*
X97459Y-45028D01*
X97440Y-45103D01*
X97403Y-45140D01*
X97365Y-45159D01*
X97290Y-45159D01*
X97253Y-45140D01*
X97215Y-45103D01*
X97197Y-45028D01*
X97197Y-44896D01*
X97215Y-44821D01*
X97253Y-44784D01*
X97290Y-44765D01*
X97609Y-45140D02*
X97665Y-45159D01*
X97759Y-45159D01*
X97797Y-45140D01*
X97815Y-45121D01*
X97834Y-45084D01*
X97834Y-45046D01*
X97815Y-45009D01*
X97797Y-44990D01*
X97759Y-44971D01*
X97684Y-44953D01*
X97647Y-44934D01*
X97628Y-44915D01*
X97609Y-44878D01*
X97609Y-44840D01*
X97628Y-44803D01*
X97647Y-44784D01*
X97684Y-44765D01*
X97778Y-44765D01*
X97834Y-44784D01*
X97947Y-44765D02*
X98172Y-44765D01*
X98059Y-45159D02*
X98059Y-44765D01*
X98209Y-45196D02*
X98509Y-45196D01*
X98828Y-45121D02*
X98809Y-45140D01*
X98753Y-45159D01*
X98715Y-45159D01*
X98659Y-45140D01*
X98622Y-45103D01*
X98603Y-45065D01*
X98584Y-44990D01*
X98584Y-44934D01*
X98603Y-44859D01*
X98622Y-44821D01*
X98659Y-44784D01*
X98715Y-44765D01*
X98753Y-44765D01*
X98809Y-44784D01*
X98828Y-44803D01*
X99071Y-44765D02*
X99146Y-44765D01*
X99184Y-44784D01*
X99221Y-44821D01*
X99240Y-44896D01*
X99240Y-45028D01*
X99221Y-45103D01*
X99184Y-45140D01*
X99146Y-45159D01*
X99071Y-45159D01*
X99034Y-45140D01*
X98997Y-45103D01*
X98978Y-45028D01*
X98978Y-44896D01*
X98997Y-44821D01*
X99034Y-44784D01*
X99071Y-44765D01*
X99409Y-45159D02*
X99409Y-44765D01*
X99634Y-45159D01*
X99634Y-44765D01*
X99821Y-45159D02*
X99821Y-44765D01*
X100046Y-45159D01*
X100046Y-44765D01*
X95697Y-51302D02*
X95678Y-51321D01*
X95622Y-51340D01*
X95584Y-51340D01*
X95528Y-51321D01*
X95491Y-51284D01*
X95472Y-51246D01*
X95453Y-51171D01*
X95453Y-51115D01*
X95472Y-51040D01*
X95491Y-51002D01*
X95528Y-50965D01*
X95584Y-50946D01*
X95622Y-50946D01*
X95678Y-50965D01*
X95697Y-50984D01*
X95847Y-51227D02*
X96034Y-51227D01*
X95809Y-51340D02*
X95941Y-50946D01*
X96072Y-51340D01*
X96391Y-51340D02*
X96203Y-51340D01*
X96203Y-50946D01*
X96522Y-51340D02*
X96522Y-50946D01*
X96841Y-51134D02*
X96897Y-51152D01*
X96916Y-51171D01*
X96934Y-51209D01*
X96934Y-51265D01*
X96916Y-51302D01*
X96897Y-51321D01*
X96859Y-51340D01*
X96709Y-51340D01*
X96709Y-50946D01*
X96841Y-50946D01*
X96878Y-50965D01*
X96897Y-50984D01*
X96916Y-51021D01*
X96916Y-51059D01*
X96897Y-51096D01*
X96878Y-51115D01*
X96841Y-51134D01*
X96709Y-51134D01*
X97009Y-51377D02*
X97309Y-51377D01*
X97403Y-51340D02*
X97403Y-50946D01*
X97534Y-51227D01*
X97665Y-50946D01*
X97665Y-51340D01*
X97928Y-50946D02*
X98003Y-50946D01*
X98040Y-50965D01*
X98078Y-51002D01*
X98097Y-51077D01*
X98097Y-51209D01*
X98078Y-51284D01*
X98040Y-51321D01*
X98003Y-51340D01*
X97928Y-51340D01*
X97890Y-51321D01*
X97853Y-51284D01*
X97834Y-51209D01*
X97834Y-51077D01*
X97853Y-51002D01*
X97890Y-50965D01*
X97928Y-50946D01*
X98265Y-50946D02*
X98265Y-51265D01*
X98284Y-51302D01*
X98303Y-51321D01*
X98340Y-51340D01*
X98415Y-51340D01*
X98453Y-51321D01*
X98472Y-51302D01*
X98490Y-51265D01*
X98490Y-50946D01*
X98678Y-51340D02*
X98678Y-50946D01*
X98903Y-51340D01*
X98903Y-50946D01*
X99034Y-50946D02*
X99259Y-50946D01*
X99146Y-51340D02*
X99146Y-50946D01*
X99296Y-51377D02*
X99596Y-51377D01*
X99690Y-51340D02*
X99690Y-50946D01*
X99690Y-51134D02*
X99915Y-51134D01*
X99915Y-51340D02*
X99915Y-50946D01*
X100178Y-50946D02*
X100253Y-50946D01*
X100290Y-50965D01*
X100328Y-51002D01*
X100346Y-51077D01*
X100346Y-51209D01*
X100328Y-51284D01*
X100290Y-51321D01*
X100253Y-51340D01*
X100178Y-51340D01*
X100140Y-51321D01*
X100103Y-51284D01*
X100084Y-51209D01*
X100084Y-51077D01*
X100103Y-51002D01*
X100140Y-50965D01*
X100178Y-50946D01*
X100703Y-51340D02*
X100515Y-51340D01*
X100515Y-50946D01*
X100834Y-51134D02*
X100965Y-51134D01*
X101021Y-51340D02*
X100834Y-51340D01*
X100834Y-50946D01*
X101021Y-50946D01*
X101171Y-51321D02*
X101227Y-51340D01*
X101321Y-51340D01*
X101359Y-51321D01*
X101377Y-51302D01*
X101396Y-51265D01*
X101396Y-51227D01*
X101377Y-51190D01*
X101359Y-51171D01*
X101321Y-51152D01*
X101246Y-51134D01*
X101209Y-51115D01*
X101190Y-51096D01*
X101171Y-51059D01*
X101171Y-51021D01*
X101190Y-50984D01*
X101209Y-50965D01*
X101246Y-50946D01*
X101340Y-50946D01*
X101396Y-50965D01*
X97665Y-50946D02*
X97797Y-51340D01*
X97928Y-50946D01*
X98040Y-51227D02*
X98228Y-51227D01*
X98003Y-51340D02*
X98134Y-50946D01*
X98265Y-51340D01*
X98584Y-51340D02*
X98397Y-51340D01*
X98397Y-50946D01*
X98772Y-50946D02*
X98772Y-51040D01*
X98678Y-51002D02*
X98772Y-51040D01*
X98865Y-51002D01*
X98715Y-51115D02*
X98772Y-51040D01*
X98828Y-51115D01*
X99071Y-50946D02*
X99071Y-51040D01*
X98978Y-51002D02*
X99071Y-51040D01*
X99165Y-51002D01*
X99015Y-51115D02*
X99071Y-51040D01*
X99128Y-51115D01*
M02*
