G04 (created by PCBNEW (2013-07-07 BZR 4022)-stable) date 7/29/2015 5:29:03 PM*
%MOIN*%
G04 Gerber Fmt 3.4, Leading zero omitted, Abs format*
%FSLAX34Y34*%
G01*
G70*
G90*
G04 APERTURE LIST*
%ADD10C,0.00590551*%
%ADD11C,0.055*%
%ADD12C,0.110236*%
%ADD13C,0.1*%
%ADD14C,0.3*%
%ADD15C,0.0354331*%
%ADD16C,0.00787402*%
G04 APERTURE END LIST*
G54D10*
G54D11*
X98893Y-45275D03*
X101893Y-45275D03*
X95956Y-45275D03*
X96956Y-45275D03*
G54D12*
X98425Y-37401D03*
X100393Y-37401D03*
X96456Y-37401D03*
X96456Y-39370D03*
G54D13*
X94488Y-47244D03*
X96456Y-47244D03*
X98425Y-47244D03*
X100393Y-47244D03*
X102362Y-47244D03*
G54D14*
X93425Y-51181D03*
X103425Y-51181D03*
G54D15*
X98421Y-45275D02*
X98421Y-47240D01*
X98421Y-47240D02*
X98425Y-47244D01*
X96956Y-45275D02*
X98421Y-45275D01*
X98421Y-45275D02*
X98893Y-45275D01*
X101893Y-45275D02*
X101893Y-45744D01*
X101893Y-45744D02*
X100393Y-47244D01*
X100393Y-37401D02*
X100393Y-43775D01*
X100393Y-43775D02*
X101893Y-45275D01*
X96456Y-37401D02*
X95074Y-37401D01*
X95074Y-37401D02*
X94488Y-37988D01*
X94488Y-37988D02*
X94488Y-47244D01*
X98425Y-37401D02*
X98425Y-37338D01*
X103216Y-46389D02*
X102362Y-47244D01*
X103216Y-36405D02*
X103216Y-46389D01*
X102944Y-36133D02*
X103216Y-36405D01*
X99629Y-36133D02*
X102944Y-36133D01*
X98425Y-37338D02*
X99629Y-36133D01*
X95956Y-45275D02*
X95956Y-46744D01*
X95956Y-46744D02*
X96456Y-47244D01*
X96456Y-39370D02*
X96456Y-43086D01*
X95956Y-43586D02*
X95956Y-45275D01*
X96456Y-43086D02*
X95956Y-43586D01*
G54D10*
G36*
X105393Y-49302D02*
X104968Y-48876D01*
X103968Y-48461D01*
X103629Y-48460D01*
X103629Y-46389D01*
X103629Y-36405D01*
X103598Y-36247D01*
X103508Y-36113D01*
X103237Y-35841D01*
X103103Y-35751D01*
X102944Y-35720D01*
X99629Y-35720D01*
X99471Y-35751D01*
X99337Y-35841D01*
X98780Y-36398D01*
X98637Y-36338D01*
X98214Y-36338D01*
X97823Y-36499D01*
X97524Y-36798D01*
X97440Y-37000D01*
X97358Y-36800D01*
X97059Y-36500D01*
X96669Y-36338D01*
X96246Y-36338D01*
X95855Y-36499D01*
X95556Y-36798D01*
X95477Y-36988D01*
X95074Y-36988D01*
X94916Y-37019D01*
X94782Y-37109D01*
X94195Y-37695D01*
X94106Y-37829D01*
X94074Y-37988D01*
X94074Y-46618D01*
X94071Y-46619D01*
X93864Y-46826D01*
X93752Y-47097D01*
X93751Y-47389D01*
X93863Y-47660D01*
X94070Y-47867D01*
X94341Y-47980D01*
X94633Y-47980D01*
X94904Y-47868D01*
X95111Y-47661D01*
X95224Y-47391D01*
X95224Y-47098D01*
X95112Y-46827D01*
X94905Y-46620D01*
X94901Y-46618D01*
X94901Y-38159D01*
X95246Y-37814D01*
X95477Y-37814D01*
X95555Y-38002D01*
X95853Y-38302D01*
X96055Y-38385D01*
X95855Y-38468D01*
X95556Y-38767D01*
X95393Y-39157D01*
X95393Y-39580D01*
X95555Y-39971D01*
X95853Y-40270D01*
X96043Y-40349D01*
X96043Y-42915D01*
X95664Y-43294D01*
X95574Y-43428D01*
X95543Y-43586D01*
X95543Y-44965D01*
X95523Y-44985D01*
X95445Y-45173D01*
X95445Y-45376D01*
X95523Y-45564D01*
X95543Y-45585D01*
X95543Y-46744D01*
X95574Y-46902D01*
X95664Y-47036D01*
X95721Y-47093D01*
X95720Y-47097D01*
X95720Y-47389D01*
X95832Y-47660D01*
X96039Y-47867D01*
X96309Y-47980D01*
X96602Y-47980D01*
X96873Y-47868D01*
X97080Y-47661D01*
X97192Y-47391D01*
X97193Y-47098D01*
X97081Y-46827D01*
X96874Y-46620D01*
X96603Y-46508D01*
X96370Y-46507D01*
X96370Y-45585D01*
X96389Y-45565D01*
X96456Y-45404D01*
X96523Y-45564D01*
X96666Y-45708D01*
X96854Y-45786D01*
X97057Y-45786D01*
X97245Y-45709D01*
X97266Y-45688D01*
X98007Y-45688D01*
X98007Y-46620D01*
X97801Y-46826D01*
X97689Y-47097D01*
X97688Y-47389D01*
X97800Y-47660D01*
X98007Y-47867D01*
X98278Y-47980D01*
X98570Y-47980D01*
X98841Y-47868D01*
X99048Y-47661D01*
X99161Y-47391D01*
X99161Y-47098D01*
X99049Y-46827D01*
X98842Y-46620D01*
X98834Y-46616D01*
X98834Y-45786D01*
X98994Y-45786D01*
X99182Y-45709D01*
X99326Y-45565D01*
X99404Y-45377D01*
X99405Y-45174D01*
X99327Y-44986D01*
X99183Y-44842D01*
X98995Y-44764D01*
X98792Y-44764D01*
X98604Y-44841D01*
X98584Y-44862D01*
X98421Y-44862D01*
X97266Y-44862D01*
X97246Y-44842D01*
X97058Y-44764D01*
X96855Y-44764D01*
X96667Y-44841D01*
X96523Y-44985D01*
X96456Y-45146D01*
X96390Y-44986D01*
X96370Y-44966D01*
X96370Y-43757D01*
X96749Y-43378D01*
X96838Y-43244D01*
X96870Y-43086D01*
X96870Y-40349D01*
X97051Y-40274D01*
X97051Y-40885D01*
X99854Y-40885D01*
X99854Y-38192D01*
X99137Y-38192D01*
X99325Y-38004D01*
X99488Y-37613D01*
X99488Y-37191D01*
X99391Y-36956D01*
X99801Y-36547D01*
X102773Y-36547D01*
X102803Y-36576D01*
X102803Y-46218D01*
X102512Y-46509D01*
X102509Y-46508D01*
X102414Y-46507D01*
X102414Y-45338D01*
X102398Y-45134D01*
X102350Y-45018D01*
X102262Y-44992D01*
X102176Y-45078D01*
X102176Y-44907D01*
X102150Y-44818D01*
X101956Y-44754D01*
X101752Y-44770D01*
X101636Y-44818D01*
X101610Y-44907D01*
X101893Y-45189D01*
X102176Y-44907D01*
X102176Y-45078D01*
X101979Y-45275D01*
X102262Y-45558D01*
X102350Y-45532D01*
X102414Y-45338D01*
X102414Y-46507D01*
X102216Y-46507D01*
X102176Y-46524D01*
X102176Y-45644D01*
X101893Y-45361D01*
X101807Y-45447D01*
X101807Y-45275D01*
X101525Y-44992D01*
X101436Y-45018D01*
X101373Y-45212D01*
X101388Y-45416D01*
X101436Y-45532D01*
X101525Y-45558D01*
X101807Y-45275D01*
X101807Y-45447D01*
X101610Y-45644D01*
X101636Y-45732D01*
X101831Y-45796D01*
X102035Y-45780D01*
X102150Y-45732D01*
X102176Y-45644D01*
X102176Y-46524D01*
X101945Y-46619D01*
X101738Y-46826D01*
X101626Y-47097D01*
X101625Y-47389D01*
X101737Y-47660D01*
X101944Y-47867D01*
X102215Y-47980D01*
X102508Y-47980D01*
X102778Y-47868D01*
X102985Y-47661D01*
X103098Y-47391D01*
X103098Y-47098D01*
X103096Y-47094D01*
X103508Y-46682D01*
X103598Y-46547D01*
X103629Y-46389D01*
X103629Y-48460D01*
X102886Y-48460D01*
X101886Y-48873D01*
X101189Y-49569D01*
X101189Y-37530D01*
X101178Y-37215D01*
X101079Y-36978D01*
X100962Y-36918D01*
X100876Y-37004D01*
X100876Y-36832D01*
X100817Y-36715D01*
X100522Y-36605D01*
X100208Y-36617D01*
X99970Y-36715D01*
X99910Y-36832D01*
X100393Y-37315D01*
X100876Y-36832D01*
X100876Y-37004D01*
X100479Y-37401D01*
X100962Y-37884D01*
X101079Y-37824D01*
X101189Y-37530D01*
X101189Y-49569D01*
X101138Y-49619D01*
X101138Y-47360D01*
X101126Y-47066D01*
X101037Y-46851D01*
X100925Y-46798D01*
X100876Y-46846D01*
X100876Y-37970D01*
X100393Y-37487D01*
X100307Y-37573D01*
X100307Y-37401D01*
X99824Y-36918D01*
X99707Y-36978D01*
X99598Y-37272D01*
X99609Y-37587D01*
X99707Y-37824D01*
X99824Y-37884D01*
X100307Y-37401D01*
X100307Y-37573D01*
X99910Y-37970D01*
X99970Y-38087D01*
X100265Y-38197D01*
X100579Y-38185D01*
X100817Y-38087D01*
X100876Y-37970D01*
X100876Y-46846D01*
X100839Y-46883D01*
X100839Y-46712D01*
X100786Y-46600D01*
X100510Y-46499D01*
X100216Y-46511D01*
X100001Y-46600D01*
X99947Y-46712D01*
X100393Y-47158D01*
X100839Y-46712D01*
X100839Y-46883D01*
X100479Y-47244D01*
X100925Y-47690D01*
X101037Y-47636D01*
X101138Y-47360D01*
X101138Y-49619D01*
X101120Y-49638D01*
X100839Y-50313D01*
X100839Y-47775D01*
X100393Y-47329D01*
X100307Y-47415D01*
X100307Y-47244D01*
X99861Y-46798D01*
X99750Y-46851D01*
X99648Y-47127D01*
X99661Y-47421D01*
X99750Y-47636D01*
X99861Y-47690D01*
X100307Y-47244D01*
X100307Y-47415D01*
X99947Y-47775D01*
X100001Y-47887D01*
X100277Y-47988D01*
X100571Y-47976D01*
X100786Y-47887D01*
X100839Y-47775D01*
X100839Y-50313D01*
X100705Y-50637D01*
X100704Y-51719D01*
X101117Y-52720D01*
X101601Y-53204D01*
X95248Y-53204D01*
X95730Y-52724D01*
X96145Y-51724D01*
X96146Y-50642D01*
X95732Y-49642D01*
X94968Y-48876D01*
X93968Y-48461D01*
X92886Y-48460D01*
X91886Y-48873D01*
X91496Y-49262D01*
X91496Y-34937D01*
X105393Y-34937D01*
X105393Y-49302D01*
X105393Y-49302D01*
G37*
G54D16*
X105393Y-49302D02*
X104968Y-48876D01*
X103968Y-48461D01*
X103629Y-48460D01*
X103629Y-46389D01*
X103629Y-36405D01*
X103598Y-36247D01*
X103508Y-36113D01*
X103237Y-35841D01*
X103103Y-35751D01*
X102944Y-35720D01*
X99629Y-35720D01*
X99471Y-35751D01*
X99337Y-35841D01*
X98780Y-36398D01*
X98637Y-36338D01*
X98214Y-36338D01*
X97823Y-36499D01*
X97524Y-36798D01*
X97440Y-37000D01*
X97358Y-36800D01*
X97059Y-36500D01*
X96669Y-36338D01*
X96246Y-36338D01*
X95855Y-36499D01*
X95556Y-36798D01*
X95477Y-36988D01*
X95074Y-36988D01*
X94916Y-37019D01*
X94782Y-37109D01*
X94195Y-37695D01*
X94106Y-37829D01*
X94074Y-37988D01*
X94074Y-46618D01*
X94071Y-46619D01*
X93864Y-46826D01*
X93752Y-47097D01*
X93751Y-47389D01*
X93863Y-47660D01*
X94070Y-47867D01*
X94341Y-47980D01*
X94633Y-47980D01*
X94904Y-47868D01*
X95111Y-47661D01*
X95224Y-47391D01*
X95224Y-47098D01*
X95112Y-46827D01*
X94905Y-46620D01*
X94901Y-46618D01*
X94901Y-38159D01*
X95246Y-37814D01*
X95477Y-37814D01*
X95555Y-38002D01*
X95853Y-38302D01*
X96055Y-38385D01*
X95855Y-38468D01*
X95556Y-38767D01*
X95393Y-39157D01*
X95393Y-39580D01*
X95555Y-39971D01*
X95853Y-40270D01*
X96043Y-40349D01*
X96043Y-42915D01*
X95664Y-43294D01*
X95574Y-43428D01*
X95543Y-43586D01*
X95543Y-44965D01*
X95523Y-44985D01*
X95445Y-45173D01*
X95445Y-45376D01*
X95523Y-45564D01*
X95543Y-45585D01*
X95543Y-46744D01*
X95574Y-46902D01*
X95664Y-47036D01*
X95721Y-47093D01*
X95720Y-47097D01*
X95720Y-47389D01*
X95832Y-47660D01*
X96039Y-47867D01*
X96309Y-47980D01*
X96602Y-47980D01*
X96873Y-47868D01*
X97080Y-47661D01*
X97192Y-47391D01*
X97193Y-47098D01*
X97081Y-46827D01*
X96874Y-46620D01*
X96603Y-46508D01*
X96370Y-46507D01*
X96370Y-45585D01*
X96389Y-45565D01*
X96456Y-45404D01*
X96523Y-45564D01*
X96666Y-45708D01*
X96854Y-45786D01*
X97057Y-45786D01*
X97245Y-45709D01*
X97266Y-45688D01*
X98007Y-45688D01*
X98007Y-46620D01*
X97801Y-46826D01*
X97689Y-47097D01*
X97688Y-47389D01*
X97800Y-47660D01*
X98007Y-47867D01*
X98278Y-47980D01*
X98570Y-47980D01*
X98841Y-47868D01*
X99048Y-47661D01*
X99161Y-47391D01*
X99161Y-47098D01*
X99049Y-46827D01*
X98842Y-46620D01*
X98834Y-46616D01*
X98834Y-45786D01*
X98994Y-45786D01*
X99182Y-45709D01*
X99326Y-45565D01*
X99404Y-45377D01*
X99405Y-45174D01*
X99327Y-44986D01*
X99183Y-44842D01*
X98995Y-44764D01*
X98792Y-44764D01*
X98604Y-44841D01*
X98584Y-44862D01*
X98421Y-44862D01*
X97266Y-44862D01*
X97246Y-44842D01*
X97058Y-44764D01*
X96855Y-44764D01*
X96667Y-44841D01*
X96523Y-44985D01*
X96456Y-45146D01*
X96390Y-44986D01*
X96370Y-44966D01*
X96370Y-43757D01*
X96749Y-43378D01*
X96838Y-43244D01*
X96870Y-43086D01*
X96870Y-40349D01*
X97051Y-40274D01*
X97051Y-40885D01*
X99854Y-40885D01*
X99854Y-38192D01*
X99137Y-38192D01*
X99325Y-38004D01*
X99488Y-37613D01*
X99488Y-37191D01*
X99391Y-36956D01*
X99801Y-36547D01*
X102773Y-36547D01*
X102803Y-36576D01*
X102803Y-46218D01*
X102512Y-46509D01*
X102509Y-46508D01*
X102414Y-46507D01*
X102414Y-45338D01*
X102398Y-45134D01*
X102350Y-45018D01*
X102262Y-44992D01*
X102176Y-45078D01*
X102176Y-44907D01*
X102150Y-44818D01*
X101956Y-44754D01*
X101752Y-44770D01*
X101636Y-44818D01*
X101610Y-44907D01*
X101893Y-45189D01*
X102176Y-44907D01*
X102176Y-45078D01*
X101979Y-45275D01*
X102262Y-45558D01*
X102350Y-45532D01*
X102414Y-45338D01*
X102414Y-46507D01*
X102216Y-46507D01*
X102176Y-46524D01*
X102176Y-45644D01*
X101893Y-45361D01*
X101807Y-45447D01*
X101807Y-45275D01*
X101525Y-44992D01*
X101436Y-45018D01*
X101373Y-45212D01*
X101388Y-45416D01*
X101436Y-45532D01*
X101525Y-45558D01*
X101807Y-45275D01*
X101807Y-45447D01*
X101610Y-45644D01*
X101636Y-45732D01*
X101831Y-45796D01*
X102035Y-45780D01*
X102150Y-45732D01*
X102176Y-45644D01*
X102176Y-46524D01*
X101945Y-46619D01*
X101738Y-46826D01*
X101626Y-47097D01*
X101625Y-47389D01*
X101737Y-47660D01*
X101944Y-47867D01*
X102215Y-47980D01*
X102508Y-47980D01*
X102778Y-47868D01*
X102985Y-47661D01*
X103098Y-47391D01*
X103098Y-47098D01*
X103096Y-47094D01*
X103508Y-46682D01*
X103598Y-46547D01*
X103629Y-46389D01*
X103629Y-48460D01*
X102886Y-48460D01*
X101886Y-48873D01*
X101189Y-49569D01*
X101189Y-37530D01*
X101178Y-37215D01*
X101079Y-36978D01*
X100962Y-36918D01*
X100876Y-37004D01*
X100876Y-36832D01*
X100817Y-36715D01*
X100522Y-36605D01*
X100208Y-36617D01*
X99970Y-36715D01*
X99910Y-36832D01*
X100393Y-37315D01*
X100876Y-36832D01*
X100876Y-37004D01*
X100479Y-37401D01*
X100962Y-37884D01*
X101079Y-37824D01*
X101189Y-37530D01*
X101189Y-49569D01*
X101138Y-49619D01*
X101138Y-47360D01*
X101126Y-47066D01*
X101037Y-46851D01*
X100925Y-46798D01*
X100876Y-46846D01*
X100876Y-37970D01*
X100393Y-37487D01*
X100307Y-37573D01*
X100307Y-37401D01*
X99824Y-36918D01*
X99707Y-36978D01*
X99598Y-37272D01*
X99609Y-37587D01*
X99707Y-37824D01*
X99824Y-37884D01*
X100307Y-37401D01*
X100307Y-37573D01*
X99910Y-37970D01*
X99970Y-38087D01*
X100265Y-38197D01*
X100579Y-38185D01*
X100817Y-38087D01*
X100876Y-37970D01*
X100876Y-46846D01*
X100839Y-46883D01*
X100839Y-46712D01*
X100786Y-46600D01*
X100510Y-46499D01*
X100216Y-46511D01*
X100001Y-46600D01*
X99947Y-46712D01*
X100393Y-47158D01*
X100839Y-46712D01*
X100839Y-46883D01*
X100479Y-47244D01*
X100925Y-47690D01*
X101037Y-47636D01*
X101138Y-47360D01*
X101138Y-49619D01*
X101120Y-49638D01*
X100839Y-50313D01*
X100839Y-47775D01*
X100393Y-47329D01*
X100307Y-47415D01*
X100307Y-47244D01*
X99861Y-46798D01*
X99750Y-46851D01*
X99648Y-47127D01*
X99661Y-47421D01*
X99750Y-47636D01*
X99861Y-47690D01*
X100307Y-47244D01*
X100307Y-47415D01*
X99947Y-47775D01*
X100001Y-47887D01*
X100277Y-47988D01*
X100571Y-47976D01*
X100786Y-47887D01*
X100839Y-47775D01*
X100839Y-50313D01*
X100705Y-50637D01*
X100704Y-51719D01*
X101117Y-52720D01*
X101601Y-53204D01*
X95248Y-53204D01*
X95730Y-52724D01*
X96145Y-51724D01*
X96146Y-50642D01*
X95732Y-49642D01*
X94968Y-48876D01*
X93968Y-48461D01*
X92886Y-48460D01*
X91886Y-48873D01*
X91496Y-49262D01*
X91496Y-34937D01*
X105393Y-34937D01*
X105393Y-49302D01*
M02*
