G04 (created by PCBNEW (2013-07-07 BZR 4022)-stable) date 8/5/2015 3:42:45 PM*
%MOIN*%
G04 Gerber Fmt 3.4, Leading zero omitted, Abs format*
%FSLAX34Y34*%
G01*
G70*
G90*
G04 APERTURE LIST*
%ADD10C,0.00590551*%
%ADD11C,0.110236*%
%ADD12R,0.0177165X0.011811*%
%ADD13R,0.011811X0.0177165*%
%ADD14R,0.0512X0.059*%
%ADD15C,0.035*%
%ADD16C,0.011811*%
G04 APERTURE END LIST*
G54D10*
G54D11*
X78740Y-57086D03*
X80708Y-57086D03*
X76771Y-57086D03*
X76771Y-59055D03*
G54D12*
X78238Y-58759D03*
X78238Y-58956D03*
X78238Y-59153D03*
X78238Y-59350D03*
G54D13*
X78444Y-59557D03*
X78641Y-59557D03*
X78838Y-59557D03*
X79035Y-59557D03*
G54D12*
X79242Y-59350D03*
X79242Y-59153D03*
X79242Y-58956D03*
X79242Y-58759D03*
G54D13*
X79035Y-58553D03*
X78838Y-58553D03*
X78641Y-58553D03*
X78444Y-58553D03*
G54D14*
X76396Y-54330D03*
X77146Y-54330D03*
X81083Y-54330D03*
X80333Y-54330D03*
X79115Y-54330D03*
X78365Y-54330D03*
G54D15*
X78187Y-54962D03*
X79708Y-58663D03*
X77147Y-54966D03*
X80561Y-59141D03*
G54D16*
X78190Y-54090D02*
X78190Y-54959D01*
X78190Y-54959D02*
X78187Y-54962D01*
X79415Y-58956D02*
X79708Y-58663D01*
X79242Y-58956D02*
X79415Y-58956D01*
X77146Y-54330D02*
X77146Y-54965D01*
X77146Y-54965D02*
X77147Y-54966D01*
X79242Y-59350D02*
X80352Y-59350D01*
X80352Y-59350D02*
X80561Y-59141D01*
X79290Y-54090D02*
X79290Y-55581D01*
X79964Y-59153D02*
X79242Y-59153D01*
X79988Y-59129D02*
X79964Y-59153D01*
X79988Y-56279D02*
X79988Y-59129D01*
X79290Y-55581D02*
X79988Y-56279D01*
X77657Y-53865D02*
X80238Y-53865D01*
X80238Y-53865D02*
X80333Y-53960D01*
X79242Y-58759D02*
X79242Y-57974D01*
X80333Y-53960D02*
X80333Y-54330D01*
X77657Y-55431D02*
X77657Y-53865D01*
X77675Y-55448D02*
X77657Y-55431D01*
X78844Y-55448D02*
X77675Y-55448D01*
X79742Y-56346D02*
X78844Y-55448D01*
X79742Y-57474D02*
X79742Y-56346D01*
X79242Y-57974D02*
X79742Y-57474D01*
X79035Y-59557D02*
X81509Y-59557D01*
X81450Y-54330D02*
X81083Y-54330D01*
X81470Y-54350D02*
X81450Y-54330D01*
X81470Y-59517D02*
X81470Y-54350D01*
X81509Y-59557D02*
X81470Y-59517D01*
X76771Y-57086D02*
X76771Y-57293D01*
X76771Y-57293D02*
X78238Y-58759D01*
X78444Y-58553D02*
X78444Y-57381D01*
X78444Y-57381D02*
X78740Y-57086D01*
X79035Y-58553D02*
X79035Y-57862D01*
X79330Y-56250D02*
X76396Y-56250D01*
X79484Y-56403D02*
X79330Y-56250D01*
X79484Y-57413D02*
X79484Y-56403D01*
X79035Y-57862D02*
X79484Y-57413D01*
X76396Y-54330D02*
X76396Y-56250D01*
X76396Y-56250D02*
X76396Y-56394D01*
X76009Y-58293D02*
X76771Y-59055D01*
X76009Y-56781D02*
X76009Y-58293D01*
X76396Y-56394D02*
X76009Y-56781D01*
X78238Y-59350D02*
X77066Y-59350D01*
X77066Y-59350D02*
X76771Y-59055D01*
X78238Y-58956D02*
X76870Y-58956D01*
X76870Y-58956D02*
X76771Y-59055D01*
M02*
