G04 (created by PCBNEW (2013-07-07 BZR 4022)-stable) date 8/5/2015 3:42:45 PM*
%MOIN*%
G04 Gerber Fmt 3.4, Leading zero omitted, Abs format*
%FSLAX34Y34*%
G01*
G70*
G90*
G04 APERTURE LIST*
%ADD10C,0.00590551*%
%ADD11C,0.110236*%
%ADD12C,0.035*%
%ADD13C,0.011811*%
%ADD14C,0.00787402*%
G04 APERTURE END LIST*
G54D10*
G54D11*
X78740Y-57086D03*
X80708Y-57086D03*
X76771Y-57086D03*
X76771Y-59055D03*
G54D12*
X78187Y-54962D03*
X79708Y-58663D03*
X77147Y-54966D03*
X80561Y-59141D03*
G54D13*
X79708Y-58663D02*
X80082Y-58663D01*
X80082Y-58663D02*
X80561Y-59141D01*
X80561Y-59141D02*
X80557Y-59145D01*
G54D10*
G36*
X81302Y-59460D02*
X81191Y-59460D01*
X81191Y-57655D01*
X80708Y-57172D01*
X80622Y-57258D01*
X80622Y-57086D01*
X80139Y-56603D01*
X80022Y-56663D01*
X79912Y-56957D01*
X79924Y-57272D01*
X80022Y-57509D01*
X80139Y-57569D01*
X80622Y-57086D01*
X80622Y-57258D01*
X80225Y-57655D01*
X80285Y-57772D01*
X80579Y-57882D01*
X80894Y-57870D01*
X81132Y-57772D01*
X81191Y-57655D01*
X81191Y-59460D01*
X79968Y-59460D01*
X79968Y-57732D01*
X79207Y-57732D01*
X79407Y-57533D01*
X79527Y-57243D01*
X79527Y-56930D01*
X79408Y-56641D01*
X79186Y-56419D01*
X78897Y-56299D01*
X78584Y-56299D01*
X78294Y-56418D01*
X78073Y-56640D01*
X77952Y-56929D01*
X77952Y-57242D01*
X78072Y-57532D01*
X78272Y-57732D01*
X77528Y-57732D01*
X77528Y-58825D01*
X77439Y-58609D01*
X77218Y-58387D01*
X76928Y-58267D01*
X76615Y-58267D01*
X76326Y-58387D01*
X76179Y-58534D01*
X76179Y-57657D01*
X76179Y-57654D01*
X76179Y-57608D01*
X76325Y-57753D01*
X76614Y-57873D01*
X76927Y-57874D01*
X77217Y-57754D01*
X77438Y-57533D01*
X77558Y-57243D01*
X77559Y-56930D01*
X77439Y-56641D01*
X77218Y-56419D01*
X76928Y-56299D01*
X76615Y-56299D01*
X76326Y-56418D01*
X76179Y-56564D01*
X76179Y-53981D01*
X81302Y-53981D01*
X81302Y-56616D01*
X81277Y-56603D01*
X81191Y-56689D01*
X81191Y-56517D01*
X81132Y-56400D01*
X80837Y-56290D01*
X80523Y-56302D01*
X80285Y-56400D01*
X80225Y-56517D01*
X80708Y-57000D01*
X81191Y-56517D01*
X81191Y-56689D01*
X80794Y-57086D01*
X81277Y-57569D01*
X81302Y-57557D01*
X81302Y-59460D01*
X81302Y-59460D01*
G37*
G54D14*
X81302Y-59460D02*
X81191Y-59460D01*
X81191Y-57655D01*
X80708Y-57172D01*
X80622Y-57258D01*
X80622Y-57086D01*
X80139Y-56603D01*
X80022Y-56663D01*
X79912Y-56957D01*
X79924Y-57272D01*
X80022Y-57509D01*
X80139Y-57569D01*
X80622Y-57086D01*
X80622Y-57258D01*
X80225Y-57655D01*
X80285Y-57772D01*
X80579Y-57882D01*
X80894Y-57870D01*
X81132Y-57772D01*
X81191Y-57655D01*
X81191Y-59460D01*
X79968Y-59460D01*
X79968Y-57732D01*
X79207Y-57732D01*
X79407Y-57533D01*
X79527Y-57243D01*
X79527Y-56930D01*
X79408Y-56641D01*
X79186Y-56419D01*
X78897Y-56299D01*
X78584Y-56299D01*
X78294Y-56418D01*
X78073Y-56640D01*
X77952Y-56929D01*
X77952Y-57242D01*
X78072Y-57532D01*
X78272Y-57732D01*
X77528Y-57732D01*
X77528Y-58825D01*
X77439Y-58609D01*
X77218Y-58387D01*
X76928Y-58267D01*
X76615Y-58267D01*
X76326Y-58387D01*
X76179Y-58534D01*
X76179Y-57657D01*
X76179Y-57654D01*
X76179Y-57608D01*
X76325Y-57753D01*
X76614Y-57873D01*
X76927Y-57874D01*
X77217Y-57754D01*
X77438Y-57533D01*
X77558Y-57243D01*
X77559Y-56930D01*
X77439Y-56641D01*
X77218Y-56419D01*
X76928Y-56299D01*
X76615Y-56299D01*
X76326Y-56418D01*
X76179Y-56564D01*
X76179Y-53981D01*
X81302Y-53981D01*
X81302Y-56616D01*
X81277Y-56603D01*
X81191Y-56689D01*
X81191Y-56517D01*
X81132Y-56400D01*
X80837Y-56290D01*
X80523Y-56302D01*
X80285Y-56400D01*
X80225Y-56517D01*
X80708Y-57000D01*
X81191Y-56517D01*
X81191Y-56689D01*
X80794Y-57086D01*
X81277Y-57569D01*
X81302Y-57557D01*
X81302Y-59460D01*
M02*
