M48
;DRILL file {Pcbnew (2013-07-07 BZR 4022)-stable} date 9/29/2015 10:07:20 AM
;FORMAT={-:-/ absolute / inch / decimal}
FMAT,2
INCH,TZ
T1C0.025
T2C0.032
T3C0.040
T4C0.120
%
G90
G05
M72
T1
X3.8307Y-3.2087
X5.248Y-3.2047
X6.7441Y-3.2008
X8.2362Y-3.1969
X8.5157Y-5.6969
X8.6457Y-5.7953
X8.7717Y-5.878
X9.7441Y-3.1929
X11.252Y-3.1929
X12.7598Y-3.1929
T2
X7.25Y-4.2
X7.25Y-4.3
X7.25Y-4.6
X7.25Y-4.7
X7.25Y-4.8
X7.25Y-4.9
X7.25Y-5.
X7.25Y-5.6
X7.25Y-5.7
X7.25Y-5.8
X7.25Y-5.9
X7.25Y-6.
X7.35Y-4.2
X7.35Y-4.3
X7.45Y-4.2
X7.45Y-4.3
X7.55Y-4.2
X7.55Y-4.3
X7.65Y-4.2
X7.65Y-4.3
X7.75Y-4.2
X7.75Y-4.3
X7.85Y-4.2
X7.85Y-4.3
X7.95Y-4.2
X7.95Y-4.3
X8.05Y-4.2
X8.05Y-4.3
X8.15Y-4.2
X8.15Y-4.3
X8.25Y-4.2
X8.25Y-4.3
X8.35Y-4.2
X8.35Y-4.3
X8.45Y-4.2
X8.45Y-4.3
X8.55Y-4.2
X8.55Y-4.3
X8.65Y-4.2
X8.65Y-4.3
X8.75Y-4.2
X8.75Y-4.3
X8.85Y-4.2
X8.85Y-4.3
X8.95Y-4.2
X8.95Y-4.3
X9.15Y-4.4
X9.15Y-4.5
X9.15Y-4.6
X9.15Y-4.7
X9.15Y-4.8
X9.15Y-4.9
X9.15Y-5.
X9.15Y-5.1
X9.15Y-5.3
X9.15Y-5.4
X9.15Y-5.5
X9.15Y-5.6
X9.15Y-5.7
X9.15Y-5.8
X9.15Y-5.9
X9.15Y-6.
X9.15Y-6.2
X9.15Y-6.3
X9.15Y-6.4
X9.15Y-6.5
X9.15Y-6.6
X9.15Y-6.7
X12.8673Y-5.8307
X12.9673Y-5.8307
X13.4264Y-6.3228
X13.5264Y-6.3228
T3
X2.785Y-3.05
X2.84Y-2.95
X2.895Y-3.05
X2.95Y-2.95
X3.Y-3.05
X3.055Y-2.95
X3.11Y-3.05
X3.165Y-2.95
X3.22Y-3.05
X4.285Y-3.05
X4.34Y-2.95
X4.395Y-3.05
X4.45Y-2.95
X4.5Y-3.05
X4.555Y-2.95
X4.61Y-3.05
X4.665Y-2.95
X4.72Y-3.05
X5.785Y-3.05
X5.84Y-2.95
X5.895Y-3.05
X5.95Y-2.95
X6.Y-3.05
X6.055Y-2.95
X6.11Y-3.05
X6.165Y-2.95
X6.22Y-3.05
X7.285Y-3.05
X7.34Y-2.95
X7.395Y-3.05
X7.45Y-2.95
X7.5Y-3.05
X7.555Y-2.95
X7.61Y-3.05
X7.665Y-2.95
X7.72Y-3.05
X8.785Y-3.05
X8.84Y-2.95
X8.895Y-3.05
X8.9094Y-6.5996
X8.9094Y-6.6996
X8.95Y-2.95
X9.Y-3.05
X9.055Y-2.95
X9.11Y-3.05
X9.165Y-2.95
X9.22Y-3.05
X10.285Y-3.05
X10.34Y-2.95
X10.395Y-3.05
X10.45Y-2.95
X10.5Y-3.05
X10.555Y-2.95
X10.61Y-3.05
X10.665Y-2.95
X10.72Y-3.05
X11.785Y-3.05
X11.84Y-2.95
X11.895Y-3.05
X11.95Y-2.95
X12.Y-3.05
X12.055Y-2.95
X12.11Y-3.05
X12.165Y-2.95
X12.22Y-3.05
X12.45Y-6.3228
X12.55Y-6.3228
X12.9Y-6.3228
X13.Y-6.3228
X13.1Y-6.3228
X13.285Y-3.05
X13.34Y-2.95
X13.395Y-3.05
X13.45Y-2.95
X13.5Y-3.05
X13.555Y-2.95
X13.61Y-3.05
X13.665Y-2.95
X13.72Y-3.05
X14.1339Y-5.8331
X14.1339Y-5.9331
X14.1339Y-6.0331
T4
X2.505Y-2.95
X3.505Y-2.95
X4.005Y-2.95
X5.005Y-2.95
X5.505Y-2.95
X6.505Y-2.95
X7.005Y-2.95
X8.005Y-2.95
X8.505Y-2.95
X9.505Y-2.95
X10.005Y-2.95
X11.005Y-2.95
X11.505Y-2.95
X12.505Y-2.95
X13.005Y-2.95
X14.005Y-2.95
T0
M30
