G04 (created by PCBNEW (2013-07-07 BZR 4022)-stable) date 9/29/2015 10:07:16 AM*
%MOIN*%
G04 Gerber Fmt 3.4, Leading zero omitted, Abs format*
%FSLAX34Y34*%
G01*
G70*
G90*
G04 APERTURE LIST*
%ADD10C,0.00590551*%
%ADD11O,0.1X0.06*%
%ADD12C,0.06*%
%ADD13C,0.3*%
%ADD14C,0.07*%
%ADD15R,0.07X0.07*%
%ADD16R,0.06X0.06*%
%ADD17C,0.15*%
%ADD18C,0.055*%
%ADD19C,0.035*%
%ADD20C,0.04*%
%ADD21C,0.00787402*%
G04 APERTURE END LIST*
G54D10*
G54D11*
X72500Y-50000D03*
X72500Y-49000D03*
X72500Y-48000D03*
X72500Y-47000D03*
X72500Y-46000D03*
X91500Y-44000D03*
X91500Y-45000D03*
X91500Y-46000D03*
X91500Y-47000D03*
X91500Y-51000D03*
X91500Y-53000D03*
X91500Y-54000D03*
X91500Y-50000D03*
X91500Y-49000D03*
X91500Y-48000D03*
X91500Y-55000D03*
X91500Y-56000D03*
X91500Y-57000D03*
X91500Y-60000D03*
X91500Y-59000D03*
X91500Y-58000D03*
X91500Y-62000D03*
X91500Y-63000D03*
X91500Y-64000D03*
X91500Y-66000D03*
X91500Y-67000D03*
X72500Y-56000D03*
X72500Y-57000D03*
X72500Y-58000D03*
X72500Y-59000D03*
X72500Y-60000D03*
X91500Y-65000D03*
G54D12*
X73500Y-43000D03*
X73500Y-42000D03*
X74500Y-43000D03*
X74500Y-42000D03*
X75500Y-43000D03*
X75500Y-42000D03*
X76500Y-43000D03*
X76500Y-42000D03*
X72500Y-43000D03*
X72500Y-42000D03*
X77500Y-42000D03*
X77500Y-43000D03*
X78500Y-43000D03*
X78500Y-42000D03*
X79500Y-43000D03*
X79500Y-42000D03*
X80500Y-43000D03*
X80500Y-42000D03*
X81500Y-43000D03*
X81500Y-42000D03*
X82500Y-43000D03*
X82500Y-42000D03*
X83500Y-43000D03*
X83500Y-42000D03*
X84500Y-43000D03*
X84500Y-42000D03*
X85500Y-43000D03*
X85500Y-42000D03*
X86500Y-43000D03*
X86500Y-42000D03*
X87500Y-43000D03*
X87500Y-42000D03*
X88500Y-43000D03*
X88500Y-42000D03*
X89500Y-43000D03*
X89500Y-42000D03*
G54D13*
X52500Y-64210D03*
X112500Y-64210D03*
X112500Y-44210D03*
X52500Y-44210D03*
G54D14*
X141338Y-60330D03*
X141338Y-59330D03*
G54D15*
X141338Y-58330D03*
G54D16*
X125500Y-63228D03*
G54D12*
X124500Y-63228D03*
G54D16*
X89094Y-66996D03*
G54D12*
X89094Y-65996D03*
G54D17*
X35050Y-29500D03*
X25050Y-29500D03*
G54D16*
X27850Y-30500D03*
G54D12*
X28950Y-30500D03*
X30000Y-30500D03*
X31100Y-30500D03*
X32200Y-30500D03*
X28400Y-29500D03*
X29500Y-29500D03*
X30550Y-29500D03*
X31650Y-29500D03*
G54D17*
X95050Y-29500D03*
X85050Y-29500D03*
G54D16*
X87850Y-30500D03*
G54D12*
X88950Y-30500D03*
X90000Y-30500D03*
X91100Y-30500D03*
X92200Y-30500D03*
X88400Y-29500D03*
X89500Y-29500D03*
X90550Y-29500D03*
X91650Y-29500D03*
G54D17*
X50050Y-29500D03*
X40050Y-29500D03*
G54D16*
X42850Y-30500D03*
G54D12*
X43950Y-30500D03*
X45000Y-30500D03*
X46100Y-30500D03*
X47200Y-30500D03*
X43400Y-29500D03*
X44500Y-29500D03*
X45550Y-29500D03*
X46650Y-29500D03*
G54D17*
X110050Y-29500D03*
X100050Y-29500D03*
G54D16*
X102850Y-30500D03*
G54D12*
X103950Y-30500D03*
X105000Y-30500D03*
X106100Y-30500D03*
X107200Y-30500D03*
X103400Y-29500D03*
X104500Y-29500D03*
X105550Y-29500D03*
X106650Y-29500D03*
G54D17*
X65050Y-29500D03*
X55050Y-29500D03*
G54D16*
X57850Y-30500D03*
G54D12*
X58950Y-30500D03*
X60000Y-30500D03*
X61100Y-30500D03*
X62200Y-30500D03*
X58400Y-29500D03*
X59500Y-29500D03*
X60550Y-29500D03*
X61650Y-29500D03*
G54D17*
X125050Y-29500D03*
X115050Y-29500D03*
G54D16*
X117850Y-30500D03*
G54D12*
X118950Y-30500D03*
X120000Y-30500D03*
X121100Y-30500D03*
X122200Y-30500D03*
X118400Y-29500D03*
X119500Y-29500D03*
X120550Y-29500D03*
X121650Y-29500D03*
G54D17*
X80050Y-29500D03*
X70050Y-29500D03*
G54D16*
X72850Y-30500D03*
G54D12*
X73950Y-30500D03*
X75000Y-30500D03*
X76100Y-30500D03*
X77200Y-30500D03*
X73400Y-29500D03*
X74500Y-29500D03*
X75550Y-29500D03*
X76650Y-29500D03*
G54D17*
X140050Y-29500D03*
X130050Y-29500D03*
G54D16*
X132850Y-30500D03*
G54D12*
X133950Y-30500D03*
X135000Y-30500D03*
X136100Y-30500D03*
X137200Y-30500D03*
X133400Y-29500D03*
X134500Y-29500D03*
X135550Y-29500D03*
X136650Y-29500D03*
G54D18*
X134263Y-63228D03*
X135263Y-63228D03*
X129673Y-58307D03*
X128673Y-58307D03*
G54D16*
X131000Y-63228D03*
G54D12*
X130000Y-63228D03*
X129000Y-63228D03*
G54D19*
X127598Y-31929D03*
X112519Y-31929D03*
X97440Y-31929D03*
X82362Y-31968D03*
X67440Y-32007D03*
X52480Y-32047D03*
X38307Y-32086D03*
X87716Y-58779D03*
X86456Y-57952D03*
X85157Y-56968D03*
G54D20*
X30550Y-26457D02*
X26812Y-26457D01*
X41165Y-59000D02*
X72500Y-59000D01*
X26811Y-44645D02*
X41165Y-59000D01*
X26811Y-26459D02*
X26811Y-44645D01*
X26812Y-26457D02*
X26811Y-26459D01*
X120550Y-29500D02*
X120550Y-26417D01*
X120550Y-26417D02*
X120590Y-26417D01*
X105550Y-29500D02*
X105550Y-26417D01*
X105629Y-26456D02*
X105629Y-26417D01*
X105589Y-26456D02*
X105629Y-26456D01*
X105550Y-26417D02*
X105589Y-26456D01*
X90550Y-29500D02*
X90550Y-26772D01*
X90550Y-26772D02*
X90905Y-26417D01*
X75550Y-29500D02*
X75550Y-26457D01*
X75550Y-26457D02*
X75590Y-26417D01*
X60550Y-29500D02*
X60550Y-26536D01*
X60550Y-26536D02*
X60669Y-26417D01*
X45550Y-29500D02*
X45550Y-26417D01*
X45550Y-26417D02*
X45551Y-26417D01*
X30550Y-29500D02*
X30550Y-26457D01*
X135550Y-26455D02*
X135550Y-29500D01*
X135511Y-26417D02*
X135550Y-26455D01*
X30590Y-26417D02*
X45551Y-26417D01*
X45551Y-26417D02*
X60669Y-26417D01*
X60669Y-26417D02*
X75590Y-26417D01*
X75590Y-26417D02*
X90905Y-26417D01*
X90905Y-26417D02*
X105629Y-26417D01*
X105629Y-26417D02*
X120590Y-26417D01*
X120590Y-26417D02*
X135511Y-26417D01*
X30550Y-26457D02*
X30590Y-26417D01*
X118950Y-30500D02*
X118950Y-31942D01*
X118962Y-31929D02*
X127598Y-31929D01*
X118950Y-31942D02*
X118962Y-31929D01*
X103950Y-30500D02*
X103950Y-31876D01*
X104002Y-31929D02*
X112519Y-31929D01*
X103950Y-31876D02*
X104002Y-31929D01*
X88950Y-30500D02*
X88950Y-31876D01*
X89002Y-31929D02*
X97440Y-31929D01*
X88950Y-31876D02*
X89002Y-31929D01*
X73950Y-30500D02*
X73950Y-31942D01*
X73976Y-31968D02*
X82362Y-31968D01*
X73950Y-31942D02*
X73976Y-31968D01*
X58950Y-30500D02*
X58950Y-31981D01*
X58976Y-32007D02*
X67440Y-32007D01*
X58950Y-31981D02*
X58976Y-32007D01*
X43950Y-30500D02*
X43950Y-32020D01*
X43976Y-32047D02*
X52480Y-32047D01*
X43950Y-32020D02*
X43976Y-32047D01*
X28950Y-30500D02*
X28950Y-32099D01*
X28962Y-32086D02*
X38307Y-32086D01*
X28950Y-32099D02*
X28962Y-32086D01*
X129673Y-58307D02*
X132850Y-58307D01*
X132850Y-30500D02*
X132850Y-58307D01*
X132850Y-58307D02*
X132850Y-59227D01*
X132952Y-59330D02*
X141338Y-59330D01*
X132850Y-59227D02*
X132952Y-59330D01*
X117850Y-30500D02*
X117850Y-33464D01*
X117850Y-33464D02*
X117834Y-33464D01*
X102850Y-30500D02*
X102850Y-33464D01*
X87850Y-30500D02*
X87850Y-33464D01*
X87850Y-33464D02*
X87834Y-33464D01*
X72850Y-30500D02*
X72850Y-33464D01*
X57850Y-30500D02*
X57850Y-33464D01*
X57850Y-33464D02*
X57834Y-33464D01*
X42850Y-30500D02*
X42850Y-33464D01*
X42850Y-33464D02*
X42874Y-33464D01*
X27850Y-30500D02*
X27850Y-33440D01*
X132850Y-33401D02*
X132850Y-30500D01*
X132913Y-33464D02*
X132850Y-33401D01*
X27874Y-33464D02*
X42874Y-33464D01*
X42874Y-33464D02*
X57834Y-33464D01*
X57834Y-33464D02*
X72850Y-33464D01*
X72850Y-33464D02*
X87834Y-33464D01*
X87834Y-33464D02*
X102850Y-33464D01*
X102850Y-33464D02*
X117834Y-33464D01*
X117834Y-33464D02*
X132913Y-33464D01*
X27850Y-33440D02*
X27874Y-33464D01*
G54D10*
G36*
X44995Y-29070D02*
X44871Y-28945D01*
X44630Y-28845D01*
X44370Y-28845D01*
X44129Y-28944D01*
X43949Y-29124D01*
X43771Y-28945D01*
X43530Y-28845D01*
X43270Y-28845D01*
X43029Y-28944D01*
X42845Y-29128D01*
X42745Y-29369D01*
X42745Y-29629D01*
X42834Y-29845D01*
X42479Y-29845D01*
X42349Y-29899D01*
X42249Y-29999D01*
X42195Y-30129D01*
X42195Y-30270D01*
X42195Y-30870D01*
X42249Y-31000D01*
X42295Y-31046D01*
X42295Y-32910D01*
X41154Y-32910D01*
X41154Y-29281D01*
X40986Y-28875D01*
X40676Y-28564D01*
X40270Y-28395D01*
X39831Y-28395D01*
X39425Y-28563D01*
X39114Y-28873D01*
X38945Y-29279D01*
X38945Y-29718D01*
X39113Y-30124D01*
X39423Y-30435D01*
X39829Y-30604D01*
X40268Y-30604D01*
X40674Y-30436D01*
X40985Y-30126D01*
X41154Y-29720D01*
X41154Y-29281D01*
X41154Y-32910D01*
X36154Y-32910D01*
X36154Y-29281D01*
X35986Y-28875D01*
X35676Y-28564D01*
X35270Y-28395D01*
X34831Y-28395D01*
X34425Y-28563D01*
X34114Y-28873D01*
X33945Y-29279D01*
X33945Y-29718D01*
X34113Y-30124D01*
X34423Y-30435D01*
X34829Y-30604D01*
X35268Y-30604D01*
X35674Y-30436D01*
X35985Y-30126D01*
X36154Y-29720D01*
X36154Y-29281D01*
X36154Y-32910D01*
X29251Y-32910D01*
X29251Y-30886D01*
X28950Y-30585D01*
X28648Y-30886D01*
X28677Y-30977D01*
X28881Y-31045D01*
X29095Y-31030D01*
X29222Y-30977D01*
X29251Y-30886D01*
X29251Y-32910D01*
X28404Y-32910D01*
X28404Y-31046D01*
X28450Y-31000D01*
X28504Y-30870D01*
X28504Y-30782D01*
X28563Y-30801D01*
X28864Y-30500D01*
X28858Y-30494D01*
X28944Y-30408D01*
X28950Y-30414D01*
X28955Y-30408D01*
X29041Y-30494D01*
X29035Y-30500D01*
X29336Y-30801D01*
X29407Y-30778D01*
X29444Y-30870D01*
X29628Y-31054D01*
X29869Y-31154D01*
X30129Y-31154D01*
X30370Y-31055D01*
X30550Y-30875D01*
X30728Y-31054D01*
X30969Y-31154D01*
X31229Y-31154D01*
X31470Y-31055D01*
X31650Y-30875D01*
X31828Y-31054D01*
X32069Y-31154D01*
X32329Y-31154D01*
X32570Y-31055D01*
X32754Y-30871D01*
X32854Y-30630D01*
X32854Y-30370D01*
X32755Y-30129D01*
X32571Y-29945D01*
X32330Y-29845D01*
X32214Y-29845D01*
X32304Y-29630D01*
X32304Y-29370D01*
X32205Y-29129D01*
X32021Y-28945D01*
X31780Y-28845D01*
X31520Y-28845D01*
X31279Y-28944D01*
X31104Y-29120D01*
X31104Y-26971D01*
X44995Y-26971D01*
X44995Y-29070D01*
X44995Y-29070D01*
G37*
G54D21*
X44995Y-29070D02*
X44871Y-28945D01*
X44630Y-28845D01*
X44370Y-28845D01*
X44129Y-28944D01*
X43949Y-29124D01*
X43771Y-28945D01*
X43530Y-28845D01*
X43270Y-28845D01*
X43029Y-28944D01*
X42845Y-29128D01*
X42745Y-29369D01*
X42745Y-29629D01*
X42834Y-29845D01*
X42479Y-29845D01*
X42349Y-29899D01*
X42249Y-29999D01*
X42195Y-30129D01*
X42195Y-30270D01*
X42195Y-30870D01*
X42249Y-31000D01*
X42295Y-31046D01*
X42295Y-32910D01*
X41154Y-32910D01*
X41154Y-29281D01*
X40986Y-28875D01*
X40676Y-28564D01*
X40270Y-28395D01*
X39831Y-28395D01*
X39425Y-28563D01*
X39114Y-28873D01*
X38945Y-29279D01*
X38945Y-29718D01*
X39113Y-30124D01*
X39423Y-30435D01*
X39829Y-30604D01*
X40268Y-30604D01*
X40674Y-30436D01*
X40985Y-30126D01*
X41154Y-29720D01*
X41154Y-29281D01*
X41154Y-32910D01*
X36154Y-32910D01*
X36154Y-29281D01*
X35986Y-28875D01*
X35676Y-28564D01*
X35270Y-28395D01*
X34831Y-28395D01*
X34425Y-28563D01*
X34114Y-28873D01*
X33945Y-29279D01*
X33945Y-29718D01*
X34113Y-30124D01*
X34423Y-30435D01*
X34829Y-30604D01*
X35268Y-30604D01*
X35674Y-30436D01*
X35985Y-30126D01*
X36154Y-29720D01*
X36154Y-29281D01*
X36154Y-32910D01*
X29251Y-32910D01*
X29251Y-30886D01*
X28950Y-30585D01*
X28648Y-30886D01*
X28677Y-30977D01*
X28881Y-31045D01*
X29095Y-31030D01*
X29222Y-30977D01*
X29251Y-30886D01*
X29251Y-32910D01*
X28404Y-32910D01*
X28404Y-31046D01*
X28450Y-31000D01*
X28504Y-30870D01*
X28504Y-30782D01*
X28563Y-30801D01*
X28864Y-30500D01*
X28858Y-30494D01*
X28944Y-30408D01*
X28950Y-30414D01*
X28955Y-30408D01*
X29041Y-30494D01*
X29035Y-30500D01*
X29336Y-30801D01*
X29407Y-30778D01*
X29444Y-30870D01*
X29628Y-31054D01*
X29869Y-31154D01*
X30129Y-31154D01*
X30370Y-31055D01*
X30550Y-30875D01*
X30728Y-31054D01*
X30969Y-31154D01*
X31229Y-31154D01*
X31470Y-31055D01*
X31650Y-30875D01*
X31828Y-31054D01*
X32069Y-31154D01*
X32329Y-31154D01*
X32570Y-31055D01*
X32754Y-30871D01*
X32854Y-30630D01*
X32854Y-30370D01*
X32755Y-30129D01*
X32571Y-29945D01*
X32330Y-29845D01*
X32214Y-29845D01*
X32304Y-29630D01*
X32304Y-29370D01*
X32205Y-29129D01*
X32021Y-28945D01*
X31780Y-28845D01*
X31520Y-28845D01*
X31279Y-28944D01*
X31104Y-29120D01*
X31104Y-26971D01*
X44995Y-26971D01*
X44995Y-29070D01*
G54D10*
G36*
X59995Y-29070D02*
X59871Y-28945D01*
X59630Y-28845D01*
X59370Y-28845D01*
X59129Y-28944D01*
X58949Y-29124D01*
X58771Y-28945D01*
X58530Y-28845D01*
X58270Y-28845D01*
X58029Y-28944D01*
X57845Y-29128D01*
X57745Y-29369D01*
X57745Y-29629D01*
X57834Y-29845D01*
X57479Y-29845D01*
X57349Y-29899D01*
X57249Y-29999D01*
X57195Y-30129D01*
X57195Y-30270D01*
X57195Y-30870D01*
X57249Y-31000D01*
X57295Y-31046D01*
X57295Y-32910D01*
X56154Y-32910D01*
X56154Y-29281D01*
X55986Y-28875D01*
X55676Y-28564D01*
X55270Y-28395D01*
X54831Y-28395D01*
X54425Y-28563D01*
X54114Y-28873D01*
X53945Y-29279D01*
X53945Y-29718D01*
X54113Y-30124D01*
X54423Y-30435D01*
X54829Y-30604D01*
X55268Y-30604D01*
X55674Y-30436D01*
X55985Y-30126D01*
X56154Y-29720D01*
X56154Y-29281D01*
X56154Y-32910D01*
X51154Y-32910D01*
X51154Y-29281D01*
X50986Y-28875D01*
X50676Y-28564D01*
X50270Y-28395D01*
X49831Y-28395D01*
X49425Y-28563D01*
X49114Y-28873D01*
X48945Y-29279D01*
X48945Y-29718D01*
X49113Y-30124D01*
X49423Y-30435D01*
X49829Y-30604D01*
X50268Y-30604D01*
X50674Y-30436D01*
X50985Y-30126D01*
X51154Y-29720D01*
X51154Y-29281D01*
X51154Y-32910D01*
X44251Y-32910D01*
X44251Y-30886D01*
X43950Y-30585D01*
X43648Y-30886D01*
X43677Y-30977D01*
X43881Y-31045D01*
X44095Y-31030D01*
X44222Y-30977D01*
X44251Y-30886D01*
X44251Y-32910D01*
X43404Y-32910D01*
X43404Y-31046D01*
X43450Y-31000D01*
X43504Y-30870D01*
X43504Y-30782D01*
X43563Y-30801D01*
X43864Y-30500D01*
X43858Y-30494D01*
X43944Y-30408D01*
X43950Y-30414D01*
X43955Y-30408D01*
X44041Y-30494D01*
X44035Y-30500D01*
X44336Y-30801D01*
X44407Y-30778D01*
X44444Y-30870D01*
X44628Y-31054D01*
X44869Y-31154D01*
X45129Y-31154D01*
X45370Y-31055D01*
X45550Y-30875D01*
X45728Y-31054D01*
X45969Y-31154D01*
X46229Y-31154D01*
X46470Y-31055D01*
X46650Y-30875D01*
X46828Y-31054D01*
X47069Y-31154D01*
X47329Y-31154D01*
X47570Y-31055D01*
X47754Y-30871D01*
X47854Y-30630D01*
X47854Y-30370D01*
X47755Y-30129D01*
X47571Y-29945D01*
X47330Y-29845D01*
X47214Y-29845D01*
X47304Y-29630D01*
X47304Y-29370D01*
X47205Y-29129D01*
X47021Y-28945D01*
X46780Y-28845D01*
X46520Y-28845D01*
X46279Y-28944D01*
X46104Y-29120D01*
X46104Y-26971D01*
X59995Y-26971D01*
X59995Y-29070D01*
X59995Y-29070D01*
G37*
G54D21*
X59995Y-29070D02*
X59871Y-28945D01*
X59630Y-28845D01*
X59370Y-28845D01*
X59129Y-28944D01*
X58949Y-29124D01*
X58771Y-28945D01*
X58530Y-28845D01*
X58270Y-28845D01*
X58029Y-28944D01*
X57845Y-29128D01*
X57745Y-29369D01*
X57745Y-29629D01*
X57834Y-29845D01*
X57479Y-29845D01*
X57349Y-29899D01*
X57249Y-29999D01*
X57195Y-30129D01*
X57195Y-30270D01*
X57195Y-30870D01*
X57249Y-31000D01*
X57295Y-31046D01*
X57295Y-32910D01*
X56154Y-32910D01*
X56154Y-29281D01*
X55986Y-28875D01*
X55676Y-28564D01*
X55270Y-28395D01*
X54831Y-28395D01*
X54425Y-28563D01*
X54114Y-28873D01*
X53945Y-29279D01*
X53945Y-29718D01*
X54113Y-30124D01*
X54423Y-30435D01*
X54829Y-30604D01*
X55268Y-30604D01*
X55674Y-30436D01*
X55985Y-30126D01*
X56154Y-29720D01*
X56154Y-29281D01*
X56154Y-32910D01*
X51154Y-32910D01*
X51154Y-29281D01*
X50986Y-28875D01*
X50676Y-28564D01*
X50270Y-28395D01*
X49831Y-28395D01*
X49425Y-28563D01*
X49114Y-28873D01*
X48945Y-29279D01*
X48945Y-29718D01*
X49113Y-30124D01*
X49423Y-30435D01*
X49829Y-30604D01*
X50268Y-30604D01*
X50674Y-30436D01*
X50985Y-30126D01*
X51154Y-29720D01*
X51154Y-29281D01*
X51154Y-32910D01*
X44251Y-32910D01*
X44251Y-30886D01*
X43950Y-30585D01*
X43648Y-30886D01*
X43677Y-30977D01*
X43881Y-31045D01*
X44095Y-31030D01*
X44222Y-30977D01*
X44251Y-30886D01*
X44251Y-32910D01*
X43404Y-32910D01*
X43404Y-31046D01*
X43450Y-31000D01*
X43504Y-30870D01*
X43504Y-30782D01*
X43563Y-30801D01*
X43864Y-30500D01*
X43858Y-30494D01*
X43944Y-30408D01*
X43950Y-30414D01*
X43955Y-30408D01*
X44041Y-30494D01*
X44035Y-30500D01*
X44336Y-30801D01*
X44407Y-30778D01*
X44444Y-30870D01*
X44628Y-31054D01*
X44869Y-31154D01*
X45129Y-31154D01*
X45370Y-31055D01*
X45550Y-30875D01*
X45728Y-31054D01*
X45969Y-31154D01*
X46229Y-31154D01*
X46470Y-31055D01*
X46650Y-30875D01*
X46828Y-31054D01*
X47069Y-31154D01*
X47329Y-31154D01*
X47570Y-31055D01*
X47754Y-30871D01*
X47854Y-30630D01*
X47854Y-30370D01*
X47755Y-30129D01*
X47571Y-29945D01*
X47330Y-29845D01*
X47214Y-29845D01*
X47304Y-29630D01*
X47304Y-29370D01*
X47205Y-29129D01*
X47021Y-28945D01*
X46780Y-28845D01*
X46520Y-28845D01*
X46279Y-28944D01*
X46104Y-29120D01*
X46104Y-26971D01*
X59995Y-26971D01*
X59995Y-29070D01*
G54D10*
G36*
X74995Y-29070D02*
X74871Y-28945D01*
X74630Y-28845D01*
X74370Y-28845D01*
X74129Y-28944D01*
X73949Y-29124D01*
X73771Y-28945D01*
X73530Y-28845D01*
X73270Y-28845D01*
X73029Y-28944D01*
X72845Y-29128D01*
X72745Y-29369D01*
X72745Y-29629D01*
X72834Y-29845D01*
X72479Y-29845D01*
X72349Y-29899D01*
X72249Y-29999D01*
X72195Y-30129D01*
X72195Y-30270D01*
X72195Y-30870D01*
X72249Y-31000D01*
X72295Y-31046D01*
X72295Y-32910D01*
X71154Y-32910D01*
X71154Y-29281D01*
X70986Y-28875D01*
X70676Y-28564D01*
X70270Y-28395D01*
X69831Y-28395D01*
X69425Y-28563D01*
X69114Y-28873D01*
X68945Y-29279D01*
X68945Y-29718D01*
X69113Y-30124D01*
X69423Y-30435D01*
X69829Y-30604D01*
X70268Y-30604D01*
X70674Y-30436D01*
X70985Y-30126D01*
X71154Y-29720D01*
X71154Y-29281D01*
X71154Y-32910D01*
X66154Y-32910D01*
X66154Y-29281D01*
X65986Y-28875D01*
X65676Y-28564D01*
X65270Y-28395D01*
X64831Y-28395D01*
X64425Y-28563D01*
X64114Y-28873D01*
X63945Y-29279D01*
X63945Y-29718D01*
X64113Y-30124D01*
X64423Y-30435D01*
X64829Y-30604D01*
X65268Y-30604D01*
X65674Y-30436D01*
X65985Y-30126D01*
X66154Y-29720D01*
X66154Y-29281D01*
X66154Y-32910D01*
X59251Y-32910D01*
X59251Y-30886D01*
X58950Y-30585D01*
X58648Y-30886D01*
X58677Y-30977D01*
X58881Y-31045D01*
X59095Y-31030D01*
X59222Y-30977D01*
X59251Y-30886D01*
X59251Y-32910D01*
X58404Y-32910D01*
X58404Y-31046D01*
X58450Y-31000D01*
X58504Y-30870D01*
X58504Y-30782D01*
X58563Y-30801D01*
X58864Y-30500D01*
X58858Y-30494D01*
X58944Y-30408D01*
X58950Y-30414D01*
X58955Y-30408D01*
X59041Y-30494D01*
X59035Y-30500D01*
X59336Y-30801D01*
X59407Y-30778D01*
X59444Y-30870D01*
X59628Y-31054D01*
X59869Y-31154D01*
X60129Y-31154D01*
X60370Y-31055D01*
X60550Y-30875D01*
X60728Y-31054D01*
X60969Y-31154D01*
X61229Y-31154D01*
X61470Y-31055D01*
X61650Y-30875D01*
X61828Y-31054D01*
X62069Y-31154D01*
X62329Y-31154D01*
X62570Y-31055D01*
X62754Y-30871D01*
X62854Y-30630D01*
X62854Y-30370D01*
X62755Y-30129D01*
X62571Y-29945D01*
X62330Y-29845D01*
X62214Y-29845D01*
X62304Y-29630D01*
X62304Y-29370D01*
X62205Y-29129D01*
X62021Y-28945D01*
X61780Y-28845D01*
X61520Y-28845D01*
X61279Y-28944D01*
X61104Y-29120D01*
X61104Y-26971D01*
X74995Y-26971D01*
X74995Y-29070D01*
X74995Y-29070D01*
G37*
G54D21*
X74995Y-29070D02*
X74871Y-28945D01*
X74630Y-28845D01*
X74370Y-28845D01*
X74129Y-28944D01*
X73949Y-29124D01*
X73771Y-28945D01*
X73530Y-28845D01*
X73270Y-28845D01*
X73029Y-28944D01*
X72845Y-29128D01*
X72745Y-29369D01*
X72745Y-29629D01*
X72834Y-29845D01*
X72479Y-29845D01*
X72349Y-29899D01*
X72249Y-29999D01*
X72195Y-30129D01*
X72195Y-30270D01*
X72195Y-30870D01*
X72249Y-31000D01*
X72295Y-31046D01*
X72295Y-32910D01*
X71154Y-32910D01*
X71154Y-29281D01*
X70986Y-28875D01*
X70676Y-28564D01*
X70270Y-28395D01*
X69831Y-28395D01*
X69425Y-28563D01*
X69114Y-28873D01*
X68945Y-29279D01*
X68945Y-29718D01*
X69113Y-30124D01*
X69423Y-30435D01*
X69829Y-30604D01*
X70268Y-30604D01*
X70674Y-30436D01*
X70985Y-30126D01*
X71154Y-29720D01*
X71154Y-29281D01*
X71154Y-32910D01*
X66154Y-32910D01*
X66154Y-29281D01*
X65986Y-28875D01*
X65676Y-28564D01*
X65270Y-28395D01*
X64831Y-28395D01*
X64425Y-28563D01*
X64114Y-28873D01*
X63945Y-29279D01*
X63945Y-29718D01*
X64113Y-30124D01*
X64423Y-30435D01*
X64829Y-30604D01*
X65268Y-30604D01*
X65674Y-30436D01*
X65985Y-30126D01*
X66154Y-29720D01*
X66154Y-29281D01*
X66154Y-32910D01*
X59251Y-32910D01*
X59251Y-30886D01*
X58950Y-30585D01*
X58648Y-30886D01*
X58677Y-30977D01*
X58881Y-31045D01*
X59095Y-31030D01*
X59222Y-30977D01*
X59251Y-30886D01*
X59251Y-32910D01*
X58404Y-32910D01*
X58404Y-31046D01*
X58450Y-31000D01*
X58504Y-30870D01*
X58504Y-30782D01*
X58563Y-30801D01*
X58864Y-30500D01*
X58858Y-30494D01*
X58944Y-30408D01*
X58950Y-30414D01*
X58955Y-30408D01*
X59041Y-30494D01*
X59035Y-30500D01*
X59336Y-30801D01*
X59407Y-30778D01*
X59444Y-30870D01*
X59628Y-31054D01*
X59869Y-31154D01*
X60129Y-31154D01*
X60370Y-31055D01*
X60550Y-30875D01*
X60728Y-31054D01*
X60969Y-31154D01*
X61229Y-31154D01*
X61470Y-31055D01*
X61650Y-30875D01*
X61828Y-31054D01*
X62069Y-31154D01*
X62329Y-31154D01*
X62570Y-31055D01*
X62754Y-30871D01*
X62854Y-30630D01*
X62854Y-30370D01*
X62755Y-30129D01*
X62571Y-29945D01*
X62330Y-29845D01*
X62214Y-29845D01*
X62304Y-29630D01*
X62304Y-29370D01*
X62205Y-29129D01*
X62021Y-28945D01*
X61780Y-28845D01*
X61520Y-28845D01*
X61279Y-28944D01*
X61104Y-29120D01*
X61104Y-26971D01*
X74995Y-26971D01*
X74995Y-29070D01*
G54D10*
G36*
X89995Y-29070D02*
X89871Y-28945D01*
X89630Y-28845D01*
X89370Y-28845D01*
X89129Y-28944D01*
X88949Y-29124D01*
X88771Y-28945D01*
X88530Y-28845D01*
X88270Y-28845D01*
X88029Y-28944D01*
X87845Y-29128D01*
X87745Y-29369D01*
X87745Y-29629D01*
X87834Y-29845D01*
X87479Y-29845D01*
X87349Y-29899D01*
X87249Y-29999D01*
X87195Y-30129D01*
X87195Y-30270D01*
X87195Y-30870D01*
X87249Y-31000D01*
X87295Y-31046D01*
X87295Y-32910D01*
X86154Y-32910D01*
X86154Y-29281D01*
X85986Y-28875D01*
X85676Y-28564D01*
X85270Y-28395D01*
X84831Y-28395D01*
X84425Y-28563D01*
X84114Y-28873D01*
X83945Y-29279D01*
X83945Y-29718D01*
X84113Y-30124D01*
X84423Y-30435D01*
X84829Y-30604D01*
X85268Y-30604D01*
X85674Y-30436D01*
X85985Y-30126D01*
X86154Y-29720D01*
X86154Y-29281D01*
X86154Y-32910D01*
X81154Y-32910D01*
X81154Y-29281D01*
X80986Y-28875D01*
X80676Y-28564D01*
X80270Y-28395D01*
X79831Y-28395D01*
X79425Y-28563D01*
X79114Y-28873D01*
X78945Y-29279D01*
X78945Y-29718D01*
X79113Y-30124D01*
X79423Y-30435D01*
X79829Y-30604D01*
X80268Y-30604D01*
X80674Y-30436D01*
X80985Y-30126D01*
X81154Y-29720D01*
X81154Y-29281D01*
X81154Y-32910D01*
X74251Y-32910D01*
X74251Y-30886D01*
X73950Y-30585D01*
X73648Y-30886D01*
X73677Y-30977D01*
X73881Y-31045D01*
X74095Y-31030D01*
X74222Y-30977D01*
X74251Y-30886D01*
X74251Y-32910D01*
X73404Y-32910D01*
X73404Y-31046D01*
X73450Y-31000D01*
X73504Y-30870D01*
X73504Y-30782D01*
X73563Y-30801D01*
X73864Y-30500D01*
X73858Y-30494D01*
X73944Y-30408D01*
X73950Y-30414D01*
X73955Y-30408D01*
X74041Y-30494D01*
X74035Y-30500D01*
X74336Y-30801D01*
X74407Y-30778D01*
X74444Y-30870D01*
X74628Y-31054D01*
X74869Y-31154D01*
X75129Y-31154D01*
X75370Y-31055D01*
X75550Y-30875D01*
X75728Y-31054D01*
X75969Y-31154D01*
X76229Y-31154D01*
X76470Y-31055D01*
X76650Y-30875D01*
X76828Y-31054D01*
X77069Y-31154D01*
X77329Y-31154D01*
X77570Y-31055D01*
X77754Y-30871D01*
X77854Y-30630D01*
X77854Y-30370D01*
X77755Y-30129D01*
X77571Y-29945D01*
X77330Y-29845D01*
X77214Y-29845D01*
X77304Y-29630D01*
X77304Y-29370D01*
X77205Y-29129D01*
X77021Y-28945D01*
X76780Y-28845D01*
X76520Y-28845D01*
X76279Y-28944D01*
X76104Y-29120D01*
X76104Y-26971D01*
X89995Y-26971D01*
X89995Y-29070D01*
X89995Y-29070D01*
G37*
G54D21*
X89995Y-29070D02*
X89871Y-28945D01*
X89630Y-28845D01*
X89370Y-28845D01*
X89129Y-28944D01*
X88949Y-29124D01*
X88771Y-28945D01*
X88530Y-28845D01*
X88270Y-28845D01*
X88029Y-28944D01*
X87845Y-29128D01*
X87745Y-29369D01*
X87745Y-29629D01*
X87834Y-29845D01*
X87479Y-29845D01*
X87349Y-29899D01*
X87249Y-29999D01*
X87195Y-30129D01*
X87195Y-30270D01*
X87195Y-30870D01*
X87249Y-31000D01*
X87295Y-31046D01*
X87295Y-32910D01*
X86154Y-32910D01*
X86154Y-29281D01*
X85986Y-28875D01*
X85676Y-28564D01*
X85270Y-28395D01*
X84831Y-28395D01*
X84425Y-28563D01*
X84114Y-28873D01*
X83945Y-29279D01*
X83945Y-29718D01*
X84113Y-30124D01*
X84423Y-30435D01*
X84829Y-30604D01*
X85268Y-30604D01*
X85674Y-30436D01*
X85985Y-30126D01*
X86154Y-29720D01*
X86154Y-29281D01*
X86154Y-32910D01*
X81154Y-32910D01*
X81154Y-29281D01*
X80986Y-28875D01*
X80676Y-28564D01*
X80270Y-28395D01*
X79831Y-28395D01*
X79425Y-28563D01*
X79114Y-28873D01*
X78945Y-29279D01*
X78945Y-29718D01*
X79113Y-30124D01*
X79423Y-30435D01*
X79829Y-30604D01*
X80268Y-30604D01*
X80674Y-30436D01*
X80985Y-30126D01*
X81154Y-29720D01*
X81154Y-29281D01*
X81154Y-32910D01*
X74251Y-32910D01*
X74251Y-30886D01*
X73950Y-30585D01*
X73648Y-30886D01*
X73677Y-30977D01*
X73881Y-31045D01*
X74095Y-31030D01*
X74222Y-30977D01*
X74251Y-30886D01*
X74251Y-32910D01*
X73404Y-32910D01*
X73404Y-31046D01*
X73450Y-31000D01*
X73504Y-30870D01*
X73504Y-30782D01*
X73563Y-30801D01*
X73864Y-30500D01*
X73858Y-30494D01*
X73944Y-30408D01*
X73950Y-30414D01*
X73955Y-30408D01*
X74041Y-30494D01*
X74035Y-30500D01*
X74336Y-30801D01*
X74407Y-30778D01*
X74444Y-30870D01*
X74628Y-31054D01*
X74869Y-31154D01*
X75129Y-31154D01*
X75370Y-31055D01*
X75550Y-30875D01*
X75728Y-31054D01*
X75969Y-31154D01*
X76229Y-31154D01*
X76470Y-31055D01*
X76650Y-30875D01*
X76828Y-31054D01*
X77069Y-31154D01*
X77329Y-31154D01*
X77570Y-31055D01*
X77754Y-30871D01*
X77854Y-30630D01*
X77854Y-30370D01*
X77755Y-30129D01*
X77571Y-29945D01*
X77330Y-29845D01*
X77214Y-29845D01*
X77304Y-29630D01*
X77304Y-29370D01*
X77205Y-29129D01*
X77021Y-28945D01*
X76780Y-28845D01*
X76520Y-28845D01*
X76279Y-28944D01*
X76104Y-29120D01*
X76104Y-26971D01*
X89995Y-26971D01*
X89995Y-29070D01*
G54D10*
G36*
X104995Y-29070D02*
X104871Y-28945D01*
X104630Y-28845D01*
X104370Y-28845D01*
X104129Y-28944D01*
X103949Y-29124D01*
X103771Y-28945D01*
X103530Y-28845D01*
X103270Y-28845D01*
X103029Y-28944D01*
X102845Y-29128D01*
X102745Y-29369D01*
X102745Y-29629D01*
X102834Y-29845D01*
X102479Y-29845D01*
X102349Y-29899D01*
X102249Y-29999D01*
X102195Y-30129D01*
X102195Y-30270D01*
X102195Y-30870D01*
X102249Y-31000D01*
X102295Y-31046D01*
X102295Y-32910D01*
X101154Y-32910D01*
X101154Y-29281D01*
X100986Y-28875D01*
X100676Y-28564D01*
X100270Y-28395D01*
X99831Y-28395D01*
X99425Y-28563D01*
X99114Y-28873D01*
X98945Y-29279D01*
X98945Y-29718D01*
X99113Y-30124D01*
X99423Y-30435D01*
X99829Y-30604D01*
X100268Y-30604D01*
X100674Y-30436D01*
X100985Y-30126D01*
X101154Y-29720D01*
X101154Y-29281D01*
X101154Y-32910D01*
X96154Y-32910D01*
X96154Y-29281D01*
X95986Y-28875D01*
X95676Y-28564D01*
X95270Y-28395D01*
X94831Y-28395D01*
X94425Y-28563D01*
X94114Y-28873D01*
X93945Y-29279D01*
X93945Y-29718D01*
X94113Y-30124D01*
X94423Y-30435D01*
X94829Y-30604D01*
X95268Y-30604D01*
X95674Y-30436D01*
X95985Y-30126D01*
X96154Y-29720D01*
X96154Y-29281D01*
X96154Y-32910D01*
X89251Y-32910D01*
X89251Y-30886D01*
X88950Y-30585D01*
X88648Y-30886D01*
X88677Y-30977D01*
X88881Y-31045D01*
X89095Y-31030D01*
X89222Y-30977D01*
X89251Y-30886D01*
X89251Y-32910D01*
X88404Y-32910D01*
X88404Y-31046D01*
X88450Y-31000D01*
X88504Y-30870D01*
X88504Y-30782D01*
X88563Y-30801D01*
X88864Y-30500D01*
X88858Y-30494D01*
X88944Y-30408D01*
X88950Y-30414D01*
X88955Y-30408D01*
X89041Y-30494D01*
X89035Y-30500D01*
X89336Y-30801D01*
X89407Y-30778D01*
X89444Y-30870D01*
X89628Y-31054D01*
X89869Y-31154D01*
X90129Y-31154D01*
X90370Y-31055D01*
X90550Y-30875D01*
X90728Y-31054D01*
X90969Y-31154D01*
X91229Y-31154D01*
X91470Y-31055D01*
X91650Y-30875D01*
X91828Y-31054D01*
X92069Y-31154D01*
X92329Y-31154D01*
X92570Y-31055D01*
X92754Y-30871D01*
X92854Y-30630D01*
X92854Y-30370D01*
X92755Y-30129D01*
X92571Y-29945D01*
X92330Y-29845D01*
X92214Y-29845D01*
X92304Y-29630D01*
X92304Y-29370D01*
X92205Y-29129D01*
X92021Y-28945D01*
X91780Y-28845D01*
X91520Y-28845D01*
X91279Y-28944D01*
X91104Y-29120D01*
X91104Y-27002D01*
X91135Y-26971D01*
X104995Y-26971D01*
X104995Y-29070D01*
X104995Y-29070D01*
G37*
G54D21*
X104995Y-29070D02*
X104871Y-28945D01*
X104630Y-28845D01*
X104370Y-28845D01*
X104129Y-28944D01*
X103949Y-29124D01*
X103771Y-28945D01*
X103530Y-28845D01*
X103270Y-28845D01*
X103029Y-28944D01*
X102845Y-29128D01*
X102745Y-29369D01*
X102745Y-29629D01*
X102834Y-29845D01*
X102479Y-29845D01*
X102349Y-29899D01*
X102249Y-29999D01*
X102195Y-30129D01*
X102195Y-30270D01*
X102195Y-30870D01*
X102249Y-31000D01*
X102295Y-31046D01*
X102295Y-32910D01*
X101154Y-32910D01*
X101154Y-29281D01*
X100986Y-28875D01*
X100676Y-28564D01*
X100270Y-28395D01*
X99831Y-28395D01*
X99425Y-28563D01*
X99114Y-28873D01*
X98945Y-29279D01*
X98945Y-29718D01*
X99113Y-30124D01*
X99423Y-30435D01*
X99829Y-30604D01*
X100268Y-30604D01*
X100674Y-30436D01*
X100985Y-30126D01*
X101154Y-29720D01*
X101154Y-29281D01*
X101154Y-32910D01*
X96154Y-32910D01*
X96154Y-29281D01*
X95986Y-28875D01*
X95676Y-28564D01*
X95270Y-28395D01*
X94831Y-28395D01*
X94425Y-28563D01*
X94114Y-28873D01*
X93945Y-29279D01*
X93945Y-29718D01*
X94113Y-30124D01*
X94423Y-30435D01*
X94829Y-30604D01*
X95268Y-30604D01*
X95674Y-30436D01*
X95985Y-30126D01*
X96154Y-29720D01*
X96154Y-29281D01*
X96154Y-32910D01*
X89251Y-32910D01*
X89251Y-30886D01*
X88950Y-30585D01*
X88648Y-30886D01*
X88677Y-30977D01*
X88881Y-31045D01*
X89095Y-31030D01*
X89222Y-30977D01*
X89251Y-30886D01*
X89251Y-32910D01*
X88404Y-32910D01*
X88404Y-31046D01*
X88450Y-31000D01*
X88504Y-30870D01*
X88504Y-30782D01*
X88563Y-30801D01*
X88864Y-30500D01*
X88858Y-30494D01*
X88944Y-30408D01*
X88950Y-30414D01*
X88955Y-30408D01*
X89041Y-30494D01*
X89035Y-30500D01*
X89336Y-30801D01*
X89407Y-30778D01*
X89444Y-30870D01*
X89628Y-31054D01*
X89869Y-31154D01*
X90129Y-31154D01*
X90370Y-31055D01*
X90550Y-30875D01*
X90728Y-31054D01*
X90969Y-31154D01*
X91229Y-31154D01*
X91470Y-31055D01*
X91650Y-30875D01*
X91828Y-31054D01*
X92069Y-31154D01*
X92329Y-31154D01*
X92570Y-31055D01*
X92754Y-30871D01*
X92854Y-30630D01*
X92854Y-30370D01*
X92755Y-30129D01*
X92571Y-29945D01*
X92330Y-29845D01*
X92214Y-29845D01*
X92304Y-29630D01*
X92304Y-29370D01*
X92205Y-29129D01*
X92021Y-28945D01*
X91780Y-28845D01*
X91520Y-28845D01*
X91279Y-28944D01*
X91104Y-29120D01*
X91104Y-27002D01*
X91135Y-26971D01*
X104995Y-26971D01*
X104995Y-29070D01*
G54D10*
G36*
X119995Y-29070D02*
X119871Y-28945D01*
X119630Y-28845D01*
X119370Y-28845D01*
X119129Y-28944D01*
X118949Y-29124D01*
X118771Y-28945D01*
X118530Y-28845D01*
X118270Y-28845D01*
X118029Y-28944D01*
X117845Y-29128D01*
X117745Y-29369D01*
X117745Y-29629D01*
X117834Y-29845D01*
X117479Y-29845D01*
X117349Y-29899D01*
X117249Y-29999D01*
X117195Y-30129D01*
X117195Y-30270D01*
X117195Y-30870D01*
X117249Y-31000D01*
X117295Y-31046D01*
X117295Y-32910D01*
X116154Y-32910D01*
X116154Y-29281D01*
X115986Y-28875D01*
X115676Y-28564D01*
X115270Y-28395D01*
X114831Y-28395D01*
X114425Y-28563D01*
X114114Y-28873D01*
X113945Y-29279D01*
X113945Y-29718D01*
X114113Y-30124D01*
X114423Y-30435D01*
X114829Y-30604D01*
X115268Y-30604D01*
X115674Y-30436D01*
X115985Y-30126D01*
X116154Y-29720D01*
X116154Y-29281D01*
X116154Y-32910D01*
X111154Y-32910D01*
X111154Y-29281D01*
X110986Y-28875D01*
X110676Y-28564D01*
X110270Y-28395D01*
X109831Y-28395D01*
X109425Y-28563D01*
X109114Y-28873D01*
X108945Y-29279D01*
X108945Y-29718D01*
X109113Y-30124D01*
X109423Y-30435D01*
X109829Y-30604D01*
X110268Y-30604D01*
X110674Y-30436D01*
X110985Y-30126D01*
X111154Y-29720D01*
X111154Y-29281D01*
X111154Y-32910D01*
X104251Y-32910D01*
X104251Y-30886D01*
X103950Y-30585D01*
X103648Y-30886D01*
X103677Y-30977D01*
X103881Y-31045D01*
X104095Y-31030D01*
X104222Y-30977D01*
X104251Y-30886D01*
X104251Y-32910D01*
X103404Y-32910D01*
X103404Y-31046D01*
X103450Y-31000D01*
X103504Y-30870D01*
X103504Y-30782D01*
X103563Y-30801D01*
X103864Y-30500D01*
X103858Y-30494D01*
X103944Y-30408D01*
X103950Y-30414D01*
X103955Y-30408D01*
X104041Y-30494D01*
X104035Y-30500D01*
X104336Y-30801D01*
X104407Y-30778D01*
X104444Y-30870D01*
X104628Y-31054D01*
X104869Y-31154D01*
X105129Y-31154D01*
X105370Y-31055D01*
X105550Y-30875D01*
X105728Y-31054D01*
X105969Y-31154D01*
X106229Y-31154D01*
X106470Y-31055D01*
X106650Y-30875D01*
X106828Y-31054D01*
X107069Y-31154D01*
X107329Y-31154D01*
X107570Y-31055D01*
X107754Y-30871D01*
X107854Y-30630D01*
X107854Y-30370D01*
X107755Y-30129D01*
X107571Y-29945D01*
X107330Y-29845D01*
X107214Y-29845D01*
X107304Y-29630D01*
X107304Y-29370D01*
X107205Y-29129D01*
X107021Y-28945D01*
X106780Y-28845D01*
X106520Y-28845D01*
X106279Y-28944D01*
X106104Y-29120D01*
X106104Y-26971D01*
X119995Y-26971D01*
X119995Y-29070D01*
X119995Y-29070D01*
G37*
G54D21*
X119995Y-29070D02*
X119871Y-28945D01*
X119630Y-28845D01*
X119370Y-28845D01*
X119129Y-28944D01*
X118949Y-29124D01*
X118771Y-28945D01*
X118530Y-28845D01*
X118270Y-28845D01*
X118029Y-28944D01*
X117845Y-29128D01*
X117745Y-29369D01*
X117745Y-29629D01*
X117834Y-29845D01*
X117479Y-29845D01*
X117349Y-29899D01*
X117249Y-29999D01*
X117195Y-30129D01*
X117195Y-30270D01*
X117195Y-30870D01*
X117249Y-31000D01*
X117295Y-31046D01*
X117295Y-32910D01*
X116154Y-32910D01*
X116154Y-29281D01*
X115986Y-28875D01*
X115676Y-28564D01*
X115270Y-28395D01*
X114831Y-28395D01*
X114425Y-28563D01*
X114114Y-28873D01*
X113945Y-29279D01*
X113945Y-29718D01*
X114113Y-30124D01*
X114423Y-30435D01*
X114829Y-30604D01*
X115268Y-30604D01*
X115674Y-30436D01*
X115985Y-30126D01*
X116154Y-29720D01*
X116154Y-29281D01*
X116154Y-32910D01*
X111154Y-32910D01*
X111154Y-29281D01*
X110986Y-28875D01*
X110676Y-28564D01*
X110270Y-28395D01*
X109831Y-28395D01*
X109425Y-28563D01*
X109114Y-28873D01*
X108945Y-29279D01*
X108945Y-29718D01*
X109113Y-30124D01*
X109423Y-30435D01*
X109829Y-30604D01*
X110268Y-30604D01*
X110674Y-30436D01*
X110985Y-30126D01*
X111154Y-29720D01*
X111154Y-29281D01*
X111154Y-32910D01*
X104251Y-32910D01*
X104251Y-30886D01*
X103950Y-30585D01*
X103648Y-30886D01*
X103677Y-30977D01*
X103881Y-31045D01*
X104095Y-31030D01*
X104222Y-30977D01*
X104251Y-30886D01*
X104251Y-32910D01*
X103404Y-32910D01*
X103404Y-31046D01*
X103450Y-31000D01*
X103504Y-30870D01*
X103504Y-30782D01*
X103563Y-30801D01*
X103864Y-30500D01*
X103858Y-30494D01*
X103944Y-30408D01*
X103950Y-30414D01*
X103955Y-30408D01*
X104041Y-30494D01*
X104035Y-30500D01*
X104336Y-30801D01*
X104407Y-30778D01*
X104444Y-30870D01*
X104628Y-31054D01*
X104869Y-31154D01*
X105129Y-31154D01*
X105370Y-31055D01*
X105550Y-30875D01*
X105728Y-31054D01*
X105969Y-31154D01*
X106229Y-31154D01*
X106470Y-31055D01*
X106650Y-30875D01*
X106828Y-31054D01*
X107069Y-31154D01*
X107329Y-31154D01*
X107570Y-31055D01*
X107754Y-30871D01*
X107854Y-30630D01*
X107854Y-30370D01*
X107755Y-30129D01*
X107571Y-29945D01*
X107330Y-29845D01*
X107214Y-29845D01*
X107304Y-29630D01*
X107304Y-29370D01*
X107205Y-29129D01*
X107021Y-28945D01*
X106780Y-28845D01*
X106520Y-28845D01*
X106279Y-28944D01*
X106104Y-29120D01*
X106104Y-26971D01*
X119995Y-26971D01*
X119995Y-29070D01*
G54D10*
G36*
X134995Y-29070D02*
X134871Y-28945D01*
X134630Y-28845D01*
X134370Y-28845D01*
X134129Y-28944D01*
X133949Y-29124D01*
X133771Y-28945D01*
X133530Y-28845D01*
X133270Y-28845D01*
X133029Y-28944D01*
X132845Y-29128D01*
X132745Y-29369D01*
X132745Y-29629D01*
X132834Y-29845D01*
X132479Y-29845D01*
X132349Y-29899D01*
X132249Y-29999D01*
X132195Y-30129D01*
X132195Y-30270D01*
X132195Y-30870D01*
X132249Y-31000D01*
X132295Y-31046D01*
X132295Y-32910D01*
X131154Y-32910D01*
X131154Y-29281D01*
X130986Y-28875D01*
X130676Y-28564D01*
X130270Y-28395D01*
X129831Y-28395D01*
X129425Y-28563D01*
X129114Y-28873D01*
X128945Y-29279D01*
X128945Y-29718D01*
X129113Y-30124D01*
X129423Y-30435D01*
X129829Y-30604D01*
X130268Y-30604D01*
X130674Y-30436D01*
X130985Y-30126D01*
X131154Y-29720D01*
X131154Y-29281D01*
X131154Y-32910D01*
X126154Y-32910D01*
X126154Y-29281D01*
X125986Y-28875D01*
X125676Y-28564D01*
X125270Y-28395D01*
X124831Y-28395D01*
X124425Y-28563D01*
X124114Y-28873D01*
X123945Y-29279D01*
X123945Y-29718D01*
X124113Y-30124D01*
X124423Y-30435D01*
X124829Y-30604D01*
X125268Y-30604D01*
X125674Y-30436D01*
X125985Y-30126D01*
X126154Y-29720D01*
X126154Y-29281D01*
X126154Y-32910D01*
X119251Y-32910D01*
X119251Y-30886D01*
X118950Y-30585D01*
X118648Y-30886D01*
X118677Y-30977D01*
X118881Y-31045D01*
X119095Y-31030D01*
X119222Y-30977D01*
X119251Y-30886D01*
X119251Y-32910D01*
X118404Y-32910D01*
X118404Y-31046D01*
X118450Y-31000D01*
X118504Y-30870D01*
X118504Y-30782D01*
X118563Y-30801D01*
X118864Y-30500D01*
X118858Y-30494D01*
X118944Y-30408D01*
X118950Y-30414D01*
X118955Y-30408D01*
X119041Y-30494D01*
X119035Y-30500D01*
X119336Y-30801D01*
X119407Y-30778D01*
X119444Y-30870D01*
X119628Y-31054D01*
X119869Y-31154D01*
X120129Y-31154D01*
X120370Y-31055D01*
X120550Y-30875D01*
X120728Y-31054D01*
X120969Y-31154D01*
X121229Y-31154D01*
X121470Y-31055D01*
X121650Y-30875D01*
X121828Y-31054D01*
X122069Y-31154D01*
X122329Y-31154D01*
X122570Y-31055D01*
X122754Y-30871D01*
X122854Y-30630D01*
X122854Y-30370D01*
X122755Y-30129D01*
X122571Y-29945D01*
X122330Y-29845D01*
X122214Y-29845D01*
X122304Y-29630D01*
X122304Y-29370D01*
X122205Y-29129D01*
X122021Y-28945D01*
X121780Y-28845D01*
X121520Y-28845D01*
X121279Y-28944D01*
X121104Y-29120D01*
X121104Y-26971D01*
X134995Y-26971D01*
X134995Y-29070D01*
X134995Y-29070D01*
G37*
G54D21*
X134995Y-29070D02*
X134871Y-28945D01*
X134630Y-28845D01*
X134370Y-28845D01*
X134129Y-28944D01*
X133949Y-29124D01*
X133771Y-28945D01*
X133530Y-28845D01*
X133270Y-28845D01*
X133029Y-28944D01*
X132845Y-29128D01*
X132745Y-29369D01*
X132745Y-29629D01*
X132834Y-29845D01*
X132479Y-29845D01*
X132349Y-29899D01*
X132249Y-29999D01*
X132195Y-30129D01*
X132195Y-30270D01*
X132195Y-30870D01*
X132249Y-31000D01*
X132295Y-31046D01*
X132295Y-32910D01*
X131154Y-32910D01*
X131154Y-29281D01*
X130986Y-28875D01*
X130676Y-28564D01*
X130270Y-28395D01*
X129831Y-28395D01*
X129425Y-28563D01*
X129114Y-28873D01*
X128945Y-29279D01*
X128945Y-29718D01*
X129113Y-30124D01*
X129423Y-30435D01*
X129829Y-30604D01*
X130268Y-30604D01*
X130674Y-30436D01*
X130985Y-30126D01*
X131154Y-29720D01*
X131154Y-29281D01*
X131154Y-32910D01*
X126154Y-32910D01*
X126154Y-29281D01*
X125986Y-28875D01*
X125676Y-28564D01*
X125270Y-28395D01*
X124831Y-28395D01*
X124425Y-28563D01*
X124114Y-28873D01*
X123945Y-29279D01*
X123945Y-29718D01*
X124113Y-30124D01*
X124423Y-30435D01*
X124829Y-30604D01*
X125268Y-30604D01*
X125674Y-30436D01*
X125985Y-30126D01*
X126154Y-29720D01*
X126154Y-29281D01*
X126154Y-32910D01*
X119251Y-32910D01*
X119251Y-30886D01*
X118950Y-30585D01*
X118648Y-30886D01*
X118677Y-30977D01*
X118881Y-31045D01*
X119095Y-31030D01*
X119222Y-30977D01*
X119251Y-30886D01*
X119251Y-32910D01*
X118404Y-32910D01*
X118404Y-31046D01*
X118450Y-31000D01*
X118504Y-30870D01*
X118504Y-30782D01*
X118563Y-30801D01*
X118864Y-30500D01*
X118858Y-30494D01*
X118944Y-30408D01*
X118950Y-30414D01*
X118955Y-30408D01*
X119041Y-30494D01*
X119035Y-30500D01*
X119336Y-30801D01*
X119407Y-30778D01*
X119444Y-30870D01*
X119628Y-31054D01*
X119869Y-31154D01*
X120129Y-31154D01*
X120370Y-31055D01*
X120550Y-30875D01*
X120728Y-31054D01*
X120969Y-31154D01*
X121229Y-31154D01*
X121470Y-31055D01*
X121650Y-30875D01*
X121828Y-31054D01*
X122069Y-31154D01*
X122329Y-31154D01*
X122570Y-31055D01*
X122754Y-30871D01*
X122854Y-30630D01*
X122854Y-30370D01*
X122755Y-30129D01*
X122571Y-29945D01*
X122330Y-29845D01*
X122214Y-29845D01*
X122304Y-29630D01*
X122304Y-29370D01*
X122205Y-29129D01*
X122021Y-28945D01*
X121780Y-28845D01*
X121520Y-28845D01*
X121279Y-28944D01*
X121104Y-29120D01*
X121104Y-26971D01*
X134995Y-26971D01*
X134995Y-29070D01*
G54D10*
G36*
X142185Y-68090D02*
X142043Y-68090D01*
X142043Y-60191D01*
X141936Y-59932D01*
X141834Y-59830D01*
X141935Y-59730D01*
X142042Y-59471D01*
X142043Y-59191D01*
X141936Y-58932D01*
X141855Y-58851D01*
X141891Y-58816D01*
X141927Y-58728D01*
X141927Y-58633D01*
X141927Y-58028D01*
X141927Y-57932D01*
X141891Y-57844D01*
X141823Y-57777D01*
X141735Y-57741D01*
X141459Y-57741D01*
X141399Y-57801D01*
X141399Y-58270D01*
X141868Y-58270D01*
X141927Y-58210D01*
X141927Y-58028D01*
X141927Y-58633D01*
X141927Y-58451D01*
X141868Y-58391D01*
X141399Y-58391D01*
X141399Y-58399D01*
X141277Y-58399D01*
X141277Y-58391D01*
X141277Y-58270D01*
X141277Y-57801D01*
X141218Y-57741D01*
X141154Y-57741D01*
X141154Y-29281D01*
X140986Y-28875D01*
X140676Y-28564D01*
X140270Y-28395D01*
X139831Y-28395D01*
X139425Y-28563D01*
X139114Y-28873D01*
X138945Y-29279D01*
X138945Y-29718D01*
X139113Y-30124D01*
X139423Y-30435D01*
X139829Y-30604D01*
X140268Y-30604D01*
X140674Y-30436D01*
X140985Y-30126D01*
X141154Y-29720D01*
X141154Y-29281D01*
X141154Y-57741D01*
X140941Y-57741D01*
X140853Y-57777D01*
X140785Y-57844D01*
X140749Y-57932D01*
X140749Y-58028D01*
X140749Y-58210D01*
X140809Y-58270D01*
X141277Y-58270D01*
X141277Y-58391D01*
X140809Y-58391D01*
X140749Y-58451D01*
X140749Y-58633D01*
X140749Y-58728D01*
X140769Y-58776D01*
X134251Y-58776D01*
X134251Y-30886D01*
X133950Y-30585D01*
X133648Y-30886D01*
X133677Y-30977D01*
X133881Y-31045D01*
X134095Y-31030D01*
X134222Y-30977D01*
X134251Y-30886D01*
X134251Y-58776D01*
X133404Y-58776D01*
X133404Y-58307D01*
X133404Y-33708D01*
X133425Y-33676D01*
X133467Y-33464D01*
X133467Y-33464D01*
X133425Y-33252D01*
X133404Y-33220D01*
X133404Y-31046D01*
X133450Y-31000D01*
X133504Y-30870D01*
X133504Y-30782D01*
X133563Y-30801D01*
X133864Y-30500D01*
X133858Y-30494D01*
X133944Y-30408D01*
X133950Y-30414D01*
X133955Y-30408D01*
X134041Y-30494D01*
X134035Y-30500D01*
X134336Y-30801D01*
X134407Y-30778D01*
X134444Y-30870D01*
X134628Y-31054D01*
X134869Y-31154D01*
X135129Y-31154D01*
X135370Y-31055D01*
X135550Y-30875D01*
X135728Y-31054D01*
X135969Y-31154D01*
X136229Y-31154D01*
X136470Y-31055D01*
X136650Y-30875D01*
X136828Y-31054D01*
X137069Y-31154D01*
X137329Y-31154D01*
X137570Y-31055D01*
X137754Y-30871D01*
X137854Y-30630D01*
X137854Y-30370D01*
X137755Y-30129D01*
X137571Y-29945D01*
X137330Y-29845D01*
X137214Y-29845D01*
X137304Y-29630D01*
X137304Y-29370D01*
X137205Y-29129D01*
X137021Y-28945D01*
X136780Y-28845D01*
X136520Y-28845D01*
X136279Y-28944D01*
X136104Y-29120D01*
X136104Y-26455D01*
X136104Y-26455D01*
X136062Y-26243D01*
X136062Y-26243D01*
X136022Y-26183D01*
X135941Y-26063D01*
X135941Y-26063D01*
X135903Y-26025D01*
X135723Y-25905D01*
X135511Y-25862D01*
X120590Y-25862D01*
X120550Y-25862D01*
X105629Y-25862D01*
X105550Y-25862D01*
X90905Y-25862D01*
X75590Y-25862D01*
X60669Y-25862D01*
X45551Y-25862D01*
X45550Y-25862D01*
X30590Y-25862D01*
X30386Y-25903D01*
X26812Y-25903D01*
X26600Y-25945D01*
X26540Y-25985D01*
X26420Y-26065D01*
X26419Y-26067D01*
X26298Y-26246D01*
X26256Y-26459D01*
X26256Y-44645D01*
X26298Y-44857D01*
X26419Y-45037D01*
X40773Y-59391D01*
X40773Y-59391D01*
X40953Y-59512D01*
X40953Y-59512D01*
X40988Y-59519D01*
X41165Y-59554D01*
X71809Y-59554D01*
X71678Y-59749D01*
X71628Y-60000D01*
X71678Y-60250D01*
X71820Y-60462D01*
X72032Y-60604D01*
X72283Y-60654D01*
X72716Y-60654D01*
X72967Y-60604D01*
X73179Y-60462D01*
X73321Y-60250D01*
X73371Y-60000D01*
X73321Y-59749D01*
X73179Y-59537D01*
X73123Y-59499D01*
X73179Y-59462D01*
X73321Y-59250D01*
X73371Y-59000D01*
X73321Y-58749D01*
X73179Y-58537D01*
X73123Y-58499D01*
X73179Y-58462D01*
X73321Y-58250D01*
X73371Y-58000D01*
X73321Y-57749D01*
X73179Y-57537D01*
X73123Y-57499D01*
X73179Y-57462D01*
X73321Y-57250D01*
X73371Y-57000D01*
X73321Y-56749D01*
X73179Y-56537D01*
X73123Y-56499D01*
X73179Y-56462D01*
X73321Y-56250D01*
X73371Y-56000D01*
X73371Y-50000D01*
X73321Y-49749D01*
X73179Y-49537D01*
X73123Y-49500D01*
X73179Y-49462D01*
X73321Y-49250D01*
X73371Y-49000D01*
X73321Y-48749D01*
X73179Y-48537D01*
X73123Y-48500D01*
X73179Y-48462D01*
X73321Y-48250D01*
X73371Y-48000D01*
X73321Y-47749D01*
X73179Y-47537D01*
X73123Y-47500D01*
X73179Y-47462D01*
X73321Y-47250D01*
X73371Y-47000D01*
X73321Y-46749D01*
X73179Y-46537D01*
X73123Y-46500D01*
X73179Y-46462D01*
X73321Y-46250D01*
X73371Y-46000D01*
X73321Y-45749D01*
X73179Y-45537D01*
X72967Y-45395D01*
X72716Y-45345D01*
X72283Y-45345D01*
X72032Y-45395D01*
X71820Y-45537D01*
X71678Y-45749D01*
X71628Y-46000D01*
X71678Y-46250D01*
X71820Y-46462D01*
X71876Y-46500D01*
X71820Y-46537D01*
X71678Y-46749D01*
X71628Y-47000D01*
X71678Y-47250D01*
X71820Y-47462D01*
X71876Y-47500D01*
X71820Y-47537D01*
X71678Y-47749D01*
X71628Y-48000D01*
X71678Y-48250D01*
X71820Y-48462D01*
X71876Y-48500D01*
X71820Y-48537D01*
X71678Y-48749D01*
X71628Y-49000D01*
X71678Y-49250D01*
X71820Y-49462D01*
X71876Y-49500D01*
X71820Y-49537D01*
X71678Y-49749D01*
X71628Y-50000D01*
X71678Y-50250D01*
X71820Y-50462D01*
X72032Y-50604D01*
X72283Y-50654D01*
X72716Y-50654D01*
X72967Y-50604D01*
X73179Y-50462D01*
X73321Y-50250D01*
X73371Y-50000D01*
X73371Y-56000D01*
X73321Y-55749D01*
X73179Y-55537D01*
X72967Y-55395D01*
X72716Y-55345D01*
X72283Y-55345D01*
X72032Y-55395D01*
X71820Y-55537D01*
X71678Y-55749D01*
X71628Y-56000D01*
X71678Y-56250D01*
X71820Y-56462D01*
X71876Y-56500D01*
X71820Y-56537D01*
X71678Y-56749D01*
X71628Y-57000D01*
X71678Y-57250D01*
X71820Y-57462D01*
X71876Y-57500D01*
X71820Y-57537D01*
X71678Y-57749D01*
X71628Y-58000D01*
X71678Y-58250D01*
X71809Y-58445D01*
X54354Y-58445D01*
X54354Y-43842D01*
X54072Y-43160D01*
X53551Y-42638D01*
X52870Y-42355D01*
X52132Y-42355D01*
X51450Y-42637D01*
X50928Y-43158D01*
X50645Y-43839D01*
X50645Y-44577D01*
X50927Y-45259D01*
X51448Y-45781D01*
X52129Y-46064D01*
X52867Y-46064D01*
X53549Y-45782D01*
X54071Y-45261D01*
X54354Y-44580D01*
X54354Y-43842D01*
X54354Y-58445D01*
X41394Y-58445D01*
X27365Y-44416D01*
X27365Y-33693D01*
X27458Y-33832D01*
X27482Y-33856D01*
X27661Y-33976D01*
X27874Y-34018D01*
X42850Y-34018D01*
X42874Y-34018D01*
X57834Y-34018D01*
X57850Y-34018D01*
X72850Y-34018D01*
X87834Y-34018D01*
X87850Y-34018D01*
X102850Y-34018D01*
X117834Y-34018D01*
X117850Y-34018D01*
X132295Y-34018D01*
X132295Y-57752D01*
X129979Y-57752D01*
X129798Y-57677D01*
X129548Y-57677D01*
X129317Y-57773D01*
X129140Y-57950D01*
X129101Y-58041D01*
X129041Y-58024D01*
X128956Y-58109D01*
X128956Y-57938D01*
X128930Y-57850D01*
X128735Y-57786D01*
X128531Y-57802D01*
X128416Y-57850D01*
X128390Y-57938D01*
X128673Y-58221D01*
X128956Y-57938D01*
X128956Y-58109D01*
X128758Y-58307D01*
X129041Y-58589D01*
X129101Y-58572D01*
X129139Y-58663D01*
X129316Y-58840D01*
X129547Y-58936D01*
X129797Y-58936D01*
X129979Y-58861D01*
X132295Y-58861D01*
X132295Y-59227D01*
X132337Y-59440D01*
X132458Y-59619D01*
X132560Y-59722D01*
X132560Y-59722D01*
X132680Y-59802D01*
X132740Y-59842D01*
X132740Y-59842D01*
X132952Y-59885D01*
X132952Y-59885D01*
X140788Y-59885D01*
X140741Y-59931D01*
X140634Y-60189D01*
X140634Y-60470D01*
X140741Y-60729D01*
X140939Y-60927D01*
X141197Y-61034D01*
X141478Y-61035D01*
X141737Y-60928D01*
X141935Y-60730D01*
X142042Y-60471D01*
X142043Y-60191D01*
X142043Y-68090D01*
X135893Y-68090D01*
X135893Y-63103D01*
X135797Y-62872D01*
X135620Y-62695D01*
X135389Y-62599D01*
X135139Y-62598D01*
X134907Y-62694D01*
X134730Y-62871D01*
X134692Y-62962D01*
X134632Y-62945D01*
X134546Y-63031D01*
X134546Y-62859D01*
X134520Y-62771D01*
X134326Y-62707D01*
X134122Y-62723D01*
X134006Y-62771D01*
X133980Y-62859D01*
X134263Y-63142D01*
X134546Y-62859D01*
X134546Y-63031D01*
X134349Y-63228D01*
X134632Y-63511D01*
X134692Y-63493D01*
X134729Y-63584D01*
X134906Y-63761D01*
X135138Y-63857D01*
X135388Y-63857D01*
X135619Y-63762D01*
X135796Y-63585D01*
X135893Y-63354D01*
X135893Y-63103D01*
X135893Y-68090D01*
X134546Y-68090D01*
X134546Y-63596D01*
X134263Y-63314D01*
X134178Y-63399D01*
X134178Y-63228D01*
X133895Y-62945D01*
X133806Y-62971D01*
X133743Y-63165D01*
X133758Y-63369D01*
X133806Y-63485D01*
X133895Y-63511D01*
X134178Y-63228D01*
X134178Y-63399D01*
X133980Y-63596D01*
X134006Y-63685D01*
X134201Y-63749D01*
X134405Y-63733D01*
X134520Y-63685D01*
X134546Y-63596D01*
X134546Y-68090D01*
X131654Y-68090D01*
X131654Y-63458D01*
X131654Y-62858D01*
X131600Y-62727D01*
X131500Y-62628D01*
X131370Y-62574D01*
X131229Y-62573D01*
X130629Y-62573D01*
X130499Y-62627D01*
X130412Y-62715D01*
X130371Y-62673D01*
X130130Y-62574D01*
X129870Y-62573D01*
X129629Y-62673D01*
X129445Y-62857D01*
X129413Y-62935D01*
X129386Y-62927D01*
X129301Y-63013D01*
X129301Y-62841D01*
X129272Y-62750D01*
X129068Y-62682D01*
X128956Y-62690D01*
X128956Y-58675D01*
X128673Y-58392D01*
X128587Y-58478D01*
X128587Y-58307D01*
X128304Y-58024D01*
X128216Y-58049D01*
X128152Y-58244D01*
X128168Y-58448D01*
X128216Y-58564D01*
X128304Y-58589D01*
X128587Y-58307D01*
X128587Y-58478D01*
X128390Y-58675D01*
X128416Y-58764D01*
X128610Y-58827D01*
X128814Y-58812D01*
X128930Y-58764D01*
X128956Y-58675D01*
X128956Y-62690D01*
X128854Y-62697D01*
X128727Y-62750D01*
X128698Y-62841D01*
X129000Y-63142D01*
X129301Y-62841D01*
X129301Y-63013D01*
X129085Y-63228D01*
X129386Y-63529D01*
X129412Y-63521D01*
X129444Y-63598D01*
X129628Y-63782D01*
X129869Y-63882D01*
X130129Y-63882D01*
X130370Y-63783D01*
X130412Y-63741D01*
X130499Y-63828D01*
X130629Y-63882D01*
X130770Y-63882D01*
X131370Y-63882D01*
X131500Y-63828D01*
X131600Y-63729D01*
X131654Y-63599D01*
X131654Y-63458D01*
X131654Y-68090D01*
X129301Y-68090D01*
X129301Y-63615D01*
X129000Y-63314D01*
X128914Y-63399D01*
X128914Y-63228D01*
X128613Y-62927D01*
X128522Y-62956D01*
X128454Y-63159D01*
X128469Y-63373D01*
X128522Y-63500D01*
X128613Y-63529D01*
X128914Y-63228D01*
X128914Y-63399D01*
X128698Y-63615D01*
X128727Y-63706D01*
X128931Y-63773D01*
X129145Y-63758D01*
X129272Y-63706D01*
X129301Y-63615D01*
X129301Y-68090D01*
X126154Y-68090D01*
X126154Y-63458D01*
X126154Y-62858D01*
X126100Y-62727D01*
X126000Y-62628D01*
X125870Y-62574D01*
X125729Y-62573D01*
X125129Y-62573D01*
X124999Y-62627D01*
X124899Y-62727D01*
X124863Y-62815D01*
X124845Y-62797D01*
X124801Y-62841D01*
X124772Y-62750D01*
X124568Y-62682D01*
X124354Y-62697D01*
X124227Y-62750D01*
X124198Y-62841D01*
X124500Y-63142D01*
X124505Y-63137D01*
X124591Y-63222D01*
X124585Y-63228D01*
X124591Y-63233D01*
X124505Y-63319D01*
X124500Y-63314D01*
X124414Y-63399D01*
X124414Y-63228D01*
X124113Y-62927D01*
X124022Y-62956D01*
X123954Y-63159D01*
X123969Y-63373D01*
X124022Y-63500D01*
X124113Y-63529D01*
X124414Y-63228D01*
X124414Y-63399D01*
X124198Y-63615D01*
X124227Y-63706D01*
X124431Y-63773D01*
X124645Y-63758D01*
X124772Y-63706D01*
X124801Y-63615D01*
X124801Y-63615D01*
X124845Y-63659D01*
X124863Y-63641D01*
X124899Y-63728D01*
X124999Y-63828D01*
X125129Y-63882D01*
X125270Y-63882D01*
X125870Y-63882D01*
X126000Y-63828D01*
X126100Y-63729D01*
X126154Y-63599D01*
X126154Y-63458D01*
X126154Y-68090D01*
X124801Y-68090D01*
X114354Y-68090D01*
X114354Y-63842D01*
X114354Y-43842D01*
X114072Y-43160D01*
X113551Y-42638D01*
X112870Y-42355D01*
X112132Y-42355D01*
X111450Y-42637D01*
X110928Y-43158D01*
X110645Y-43839D01*
X110645Y-44577D01*
X110927Y-45259D01*
X111448Y-45781D01*
X112129Y-46064D01*
X112867Y-46064D01*
X113549Y-45782D01*
X114071Y-45261D01*
X114354Y-44580D01*
X114354Y-43842D01*
X114354Y-63842D01*
X114072Y-63160D01*
X113551Y-62638D01*
X112870Y-62355D01*
X112132Y-62355D01*
X111450Y-62637D01*
X110928Y-63158D01*
X110645Y-63839D01*
X110645Y-64577D01*
X110927Y-65259D01*
X111448Y-65781D01*
X112129Y-66064D01*
X112867Y-66064D01*
X113549Y-65782D01*
X114071Y-65261D01*
X114354Y-64580D01*
X114354Y-63842D01*
X114354Y-68090D01*
X92371Y-68090D01*
X92371Y-67000D01*
X92321Y-66749D01*
X92179Y-66537D01*
X92123Y-66499D01*
X92179Y-66462D01*
X92321Y-66250D01*
X92371Y-66000D01*
X92321Y-65749D01*
X92179Y-65537D01*
X92123Y-65499D01*
X92179Y-65462D01*
X92321Y-65250D01*
X92371Y-65000D01*
X92371Y-62000D01*
X92371Y-60000D01*
X92321Y-59749D01*
X92179Y-59537D01*
X92123Y-59499D01*
X92179Y-59462D01*
X92321Y-59250D01*
X92371Y-59000D01*
X92321Y-58749D01*
X92179Y-58537D01*
X92123Y-58499D01*
X92179Y-58462D01*
X92321Y-58250D01*
X92371Y-58000D01*
X92321Y-57749D01*
X92179Y-57537D01*
X92123Y-57499D01*
X92179Y-57462D01*
X92321Y-57250D01*
X92371Y-57000D01*
X92321Y-56749D01*
X92179Y-56537D01*
X92123Y-56499D01*
X92179Y-56462D01*
X92321Y-56250D01*
X92371Y-56000D01*
X92321Y-55749D01*
X92179Y-55537D01*
X92123Y-55499D01*
X92179Y-55462D01*
X92321Y-55250D01*
X92371Y-55000D01*
X92321Y-54749D01*
X92179Y-54537D01*
X92123Y-54499D01*
X92179Y-54462D01*
X92321Y-54250D01*
X92371Y-54000D01*
X92321Y-53749D01*
X92179Y-53537D01*
X92123Y-53499D01*
X92179Y-53462D01*
X92321Y-53250D01*
X92371Y-53000D01*
X92371Y-51000D01*
X92321Y-50749D01*
X92179Y-50537D01*
X92123Y-50499D01*
X92179Y-50462D01*
X92321Y-50250D01*
X92371Y-50000D01*
X92321Y-49749D01*
X92179Y-49537D01*
X92123Y-49499D01*
X92179Y-49462D01*
X92321Y-49250D01*
X92371Y-49000D01*
X92321Y-48749D01*
X92179Y-48537D01*
X92123Y-48499D01*
X92179Y-48462D01*
X92321Y-48250D01*
X92371Y-48000D01*
X92321Y-47749D01*
X92179Y-47537D01*
X92123Y-47499D01*
X92179Y-47462D01*
X92321Y-47250D01*
X92371Y-47000D01*
X92321Y-46749D01*
X92179Y-46537D01*
X92123Y-46499D01*
X92179Y-46462D01*
X92321Y-46250D01*
X92371Y-46000D01*
X92321Y-45749D01*
X92179Y-45537D01*
X92123Y-45499D01*
X92179Y-45462D01*
X92321Y-45250D01*
X92371Y-45000D01*
X92321Y-44749D01*
X92179Y-44537D01*
X92123Y-44499D01*
X92179Y-44462D01*
X92321Y-44250D01*
X92371Y-44000D01*
X92321Y-43749D01*
X92179Y-43537D01*
X91967Y-43395D01*
X91716Y-43345D01*
X91283Y-43345D01*
X91032Y-43395D01*
X90820Y-43537D01*
X90678Y-43749D01*
X90628Y-44000D01*
X90678Y-44250D01*
X90820Y-44462D01*
X90876Y-44500D01*
X90820Y-44537D01*
X90678Y-44749D01*
X90628Y-45000D01*
X90678Y-45250D01*
X90820Y-45462D01*
X90876Y-45500D01*
X90820Y-45537D01*
X90678Y-45749D01*
X90628Y-46000D01*
X90678Y-46250D01*
X90820Y-46462D01*
X90876Y-46500D01*
X90820Y-46537D01*
X90678Y-46749D01*
X90628Y-47000D01*
X90678Y-47250D01*
X90820Y-47462D01*
X90876Y-47500D01*
X90820Y-47537D01*
X90678Y-47749D01*
X90628Y-48000D01*
X90678Y-48250D01*
X90820Y-48462D01*
X90876Y-48500D01*
X90820Y-48537D01*
X90678Y-48749D01*
X90628Y-49000D01*
X90678Y-49250D01*
X90820Y-49462D01*
X90876Y-49500D01*
X90820Y-49537D01*
X90678Y-49749D01*
X90628Y-50000D01*
X90678Y-50250D01*
X90820Y-50462D01*
X90876Y-50500D01*
X90820Y-50537D01*
X90678Y-50749D01*
X90628Y-51000D01*
X90678Y-51250D01*
X90820Y-51462D01*
X91032Y-51604D01*
X91283Y-51654D01*
X91716Y-51654D01*
X91967Y-51604D01*
X92179Y-51462D01*
X92321Y-51250D01*
X92371Y-51000D01*
X92371Y-53000D01*
X92321Y-52749D01*
X92179Y-52537D01*
X91967Y-52395D01*
X91716Y-52345D01*
X91283Y-52345D01*
X91032Y-52395D01*
X90820Y-52537D01*
X90678Y-52749D01*
X90628Y-53000D01*
X90678Y-53250D01*
X90820Y-53462D01*
X90876Y-53500D01*
X90820Y-53537D01*
X90678Y-53749D01*
X90628Y-54000D01*
X90678Y-54250D01*
X90820Y-54462D01*
X90876Y-54500D01*
X90820Y-54537D01*
X90678Y-54749D01*
X90628Y-55000D01*
X90678Y-55250D01*
X90820Y-55462D01*
X90876Y-55500D01*
X90820Y-55537D01*
X90678Y-55749D01*
X90628Y-56000D01*
X90678Y-56250D01*
X90820Y-56462D01*
X90876Y-56500D01*
X90820Y-56537D01*
X90678Y-56749D01*
X90628Y-57000D01*
X90678Y-57250D01*
X90820Y-57462D01*
X90876Y-57500D01*
X90820Y-57537D01*
X90678Y-57749D01*
X90628Y-58000D01*
X90678Y-58250D01*
X90820Y-58462D01*
X90876Y-58500D01*
X90820Y-58537D01*
X90678Y-58749D01*
X90628Y-59000D01*
X90678Y-59250D01*
X90820Y-59462D01*
X90876Y-59500D01*
X90820Y-59537D01*
X90678Y-59749D01*
X90628Y-60000D01*
X90678Y-60250D01*
X90820Y-60462D01*
X91032Y-60604D01*
X91283Y-60654D01*
X91716Y-60654D01*
X91967Y-60604D01*
X92179Y-60462D01*
X92321Y-60250D01*
X92371Y-60000D01*
X92371Y-62000D01*
X92321Y-61749D01*
X92179Y-61537D01*
X91967Y-61395D01*
X91716Y-61345D01*
X91283Y-61345D01*
X91032Y-61395D01*
X90820Y-61537D01*
X90678Y-61749D01*
X90628Y-62000D01*
X90678Y-62250D01*
X90820Y-62462D01*
X90982Y-62571D01*
X90875Y-62661D01*
X90780Y-62856D01*
X90824Y-62939D01*
X91439Y-62939D01*
X91439Y-62931D01*
X91560Y-62931D01*
X91560Y-62939D01*
X92175Y-62939D01*
X92219Y-62856D01*
X92124Y-62661D01*
X92017Y-62571D01*
X92179Y-62462D01*
X92321Y-62250D01*
X92371Y-62000D01*
X92371Y-65000D01*
X92321Y-64749D01*
X92179Y-64537D01*
X92017Y-64428D01*
X92124Y-64338D01*
X92219Y-64143D01*
X92219Y-63856D01*
X92124Y-63661D01*
X91962Y-63524D01*
X91884Y-63500D01*
X91962Y-63475D01*
X92124Y-63338D01*
X92219Y-63143D01*
X92175Y-63060D01*
X91560Y-63060D01*
X91560Y-63460D01*
X91560Y-63539D01*
X91560Y-63939D01*
X92175Y-63939D01*
X92219Y-63856D01*
X92219Y-64143D01*
X92175Y-64060D01*
X91560Y-64060D01*
X91560Y-64068D01*
X91439Y-64068D01*
X91439Y-64060D01*
X91439Y-63939D01*
X91439Y-63539D01*
X91439Y-63460D01*
X91439Y-63060D01*
X90824Y-63060D01*
X90780Y-63143D01*
X90875Y-63338D01*
X91037Y-63475D01*
X91115Y-63500D01*
X91037Y-63524D01*
X90875Y-63661D01*
X90780Y-63856D01*
X90824Y-63939D01*
X91439Y-63939D01*
X91439Y-64060D01*
X90824Y-64060D01*
X90780Y-64143D01*
X90875Y-64338D01*
X90982Y-64428D01*
X90820Y-64537D01*
X90678Y-64749D01*
X90628Y-65000D01*
X90678Y-65250D01*
X90820Y-65462D01*
X90876Y-65500D01*
X90820Y-65537D01*
X90678Y-65749D01*
X90628Y-66000D01*
X90678Y-66250D01*
X90820Y-66462D01*
X90876Y-66500D01*
X90820Y-66537D01*
X90678Y-66749D01*
X90628Y-67000D01*
X90678Y-67250D01*
X90820Y-67462D01*
X91032Y-67604D01*
X91283Y-67654D01*
X91716Y-67654D01*
X91967Y-67604D01*
X92179Y-67462D01*
X92321Y-67250D01*
X92371Y-67000D01*
X92371Y-68090D01*
X91653Y-68090D01*
X90045Y-68090D01*
X90045Y-43068D01*
X90045Y-42068D01*
X90030Y-41854D01*
X89977Y-41727D01*
X89886Y-41698D01*
X89801Y-41784D01*
X89801Y-41613D01*
X89772Y-41522D01*
X89568Y-41454D01*
X89354Y-41469D01*
X89227Y-41522D01*
X89198Y-41613D01*
X89500Y-41914D01*
X89801Y-41613D01*
X89801Y-41784D01*
X89585Y-42000D01*
X89886Y-42301D01*
X89977Y-42272D01*
X90045Y-42068D01*
X90045Y-43068D01*
X90030Y-42854D01*
X89977Y-42727D01*
X89886Y-42698D01*
X89801Y-42784D01*
X89801Y-42613D01*
X89772Y-42522D01*
X89712Y-42502D01*
X89772Y-42477D01*
X89801Y-42386D01*
X89500Y-42085D01*
X89198Y-42386D01*
X89227Y-42477D01*
X89287Y-42497D01*
X89227Y-42522D01*
X89198Y-42613D01*
X89500Y-42914D01*
X89801Y-42613D01*
X89801Y-42784D01*
X89585Y-43000D01*
X89886Y-43301D01*
X89977Y-43272D01*
X90045Y-43068D01*
X90045Y-68090D01*
X89801Y-68090D01*
X89801Y-43386D01*
X89500Y-43085D01*
X89414Y-43171D01*
X89414Y-43000D01*
X89113Y-42698D01*
X89087Y-42707D01*
X89055Y-42629D01*
X88925Y-42499D01*
X89054Y-42371D01*
X89086Y-42292D01*
X89113Y-42301D01*
X89414Y-42000D01*
X89113Y-41698D01*
X89087Y-41707D01*
X89055Y-41629D01*
X88871Y-41445D01*
X88630Y-41345D01*
X88370Y-41345D01*
X88129Y-41444D01*
X87999Y-41574D01*
X87871Y-41445D01*
X87630Y-41345D01*
X87370Y-41345D01*
X87129Y-41444D01*
X86999Y-41574D01*
X86871Y-41445D01*
X86630Y-41345D01*
X86370Y-41345D01*
X86129Y-41444D01*
X85999Y-41574D01*
X85871Y-41445D01*
X85630Y-41345D01*
X85370Y-41345D01*
X85129Y-41444D01*
X84999Y-41574D01*
X84871Y-41445D01*
X84630Y-41345D01*
X84370Y-41345D01*
X84129Y-41444D01*
X83999Y-41574D01*
X83871Y-41445D01*
X83630Y-41345D01*
X83370Y-41345D01*
X83129Y-41444D01*
X82999Y-41574D01*
X82871Y-41445D01*
X82630Y-41345D01*
X82370Y-41345D01*
X82129Y-41444D01*
X81999Y-41574D01*
X81871Y-41445D01*
X81630Y-41345D01*
X81370Y-41345D01*
X81129Y-41444D01*
X80999Y-41574D01*
X80871Y-41445D01*
X80630Y-41345D01*
X80370Y-41345D01*
X80129Y-41444D01*
X79999Y-41574D01*
X79871Y-41445D01*
X79630Y-41345D01*
X79370Y-41345D01*
X79129Y-41444D01*
X78999Y-41574D01*
X78871Y-41445D01*
X78630Y-41345D01*
X78370Y-41345D01*
X78129Y-41444D01*
X77999Y-41574D01*
X77871Y-41445D01*
X77630Y-41345D01*
X77370Y-41345D01*
X77129Y-41444D01*
X76999Y-41574D01*
X76871Y-41445D01*
X76630Y-41345D01*
X76370Y-41345D01*
X76129Y-41444D01*
X75999Y-41574D01*
X75871Y-41445D01*
X75630Y-41345D01*
X75370Y-41345D01*
X75129Y-41444D01*
X74999Y-41574D01*
X74871Y-41445D01*
X74630Y-41345D01*
X74370Y-41345D01*
X74129Y-41444D01*
X73999Y-41574D01*
X73871Y-41445D01*
X73630Y-41345D01*
X73370Y-41345D01*
X73129Y-41444D01*
X72999Y-41574D01*
X72871Y-41445D01*
X72630Y-41345D01*
X72370Y-41345D01*
X72129Y-41444D01*
X71945Y-41628D01*
X71845Y-41869D01*
X71845Y-42129D01*
X71944Y-42370D01*
X72074Y-42500D01*
X71945Y-42628D01*
X71845Y-42869D01*
X71845Y-43129D01*
X71944Y-43370D01*
X72128Y-43554D01*
X72369Y-43654D01*
X72629Y-43654D01*
X72870Y-43555D01*
X73000Y-43425D01*
X73128Y-43554D01*
X73369Y-43654D01*
X73629Y-43654D01*
X73870Y-43555D01*
X74000Y-43425D01*
X74128Y-43554D01*
X74369Y-43654D01*
X74629Y-43654D01*
X74870Y-43555D01*
X75000Y-43425D01*
X75128Y-43554D01*
X75369Y-43654D01*
X75629Y-43654D01*
X75870Y-43555D01*
X76000Y-43425D01*
X76128Y-43554D01*
X76369Y-43654D01*
X76629Y-43654D01*
X76870Y-43555D01*
X77000Y-43425D01*
X77128Y-43554D01*
X77369Y-43654D01*
X77629Y-43654D01*
X77870Y-43555D01*
X78000Y-43425D01*
X78128Y-43554D01*
X78369Y-43654D01*
X78629Y-43654D01*
X78870Y-43555D01*
X79000Y-43425D01*
X79128Y-43554D01*
X79369Y-43654D01*
X79629Y-43654D01*
X79870Y-43555D01*
X80000Y-43425D01*
X80128Y-43554D01*
X80369Y-43654D01*
X80629Y-43654D01*
X80870Y-43555D01*
X81000Y-43425D01*
X81128Y-43554D01*
X81369Y-43654D01*
X81629Y-43654D01*
X81870Y-43555D01*
X82000Y-43425D01*
X82128Y-43554D01*
X82369Y-43654D01*
X82629Y-43654D01*
X82870Y-43555D01*
X83000Y-43425D01*
X83128Y-43554D01*
X83369Y-43654D01*
X83629Y-43654D01*
X83870Y-43555D01*
X84000Y-43425D01*
X84128Y-43554D01*
X84369Y-43654D01*
X84629Y-43654D01*
X84870Y-43555D01*
X85000Y-43425D01*
X85128Y-43554D01*
X85369Y-43654D01*
X85629Y-43654D01*
X85870Y-43555D01*
X86000Y-43425D01*
X86128Y-43554D01*
X86369Y-43654D01*
X86629Y-43654D01*
X86870Y-43555D01*
X87000Y-43425D01*
X87128Y-43554D01*
X87369Y-43654D01*
X87629Y-43654D01*
X87870Y-43555D01*
X88000Y-43425D01*
X88128Y-43554D01*
X88369Y-43654D01*
X88629Y-43654D01*
X88870Y-43555D01*
X89054Y-43371D01*
X89086Y-43292D01*
X89113Y-43301D01*
X89414Y-43000D01*
X89414Y-43171D01*
X89198Y-43386D01*
X89227Y-43477D01*
X89431Y-43545D01*
X89645Y-43530D01*
X89772Y-43477D01*
X89801Y-43386D01*
X89801Y-68090D01*
X89748Y-68090D01*
X89748Y-67225D01*
X89748Y-66625D01*
X89695Y-66495D01*
X89640Y-66440D01*
X89595Y-66395D01*
X89507Y-66359D01*
X89525Y-66341D01*
X89481Y-66297D01*
X89572Y-66268D01*
X89640Y-66064D01*
X89624Y-65850D01*
X89572Y-65723D01*
X89481Y-65695D01*
X89395Y-65780D01*
X89395Y-65609D01*
X89366Y-65518D01*
X89163Y-65450D01*
X88949Y-65465D01*
X88822Y-65518D01*
X88793Y-65609D01*
X89094Y-65910D01*
X89395Y-65609D01*
X89395Y-65780D01*
X89180Y-65996D01*
X89185Y-66001D01*
X89100Y-66087D01*
X89094Y-66081D01*
X89088Y-66087D01*
X89008Y-66007D01*
X89003Y-66001D01*
X89008Y-65996D01*
X88707Y-65695D01*
X88616Y-65723D01*
X88548Y-65927D01*
X88564Y-66141D01*
X88616Y-66268D01*
X88707Y-66297D01*
X88663Y-66341D01*
X88681Y-66359D01*
X88594Y-66395D01*
X88494Y-66495D01*
X88440Y-66625D01*
X88440Y-66766D01*
X88440Y-67366D01*
X88493Y-67496D01*
X88593Y-67596D01*
X88723Y-67650D01*
X88864Y-67650D01*
X89464Y-67650D01*
X89594Y-67596D01*
X89694Y-67497D01*
X89748Y-67366D01*
X89748Y-67225D01*
X89748Y-68090D01*
X88245Y-68090D01*
X88245Y-58674D01*
X88165Y-58480D01*
X88016Y-58331D01*
X87822Y-58250D01*
X87611Y-58250D01*
X87417Y-58330D01*
X87268Y-58479D01*
X87187Y-58673D01*
X87187Y-58884D01*
X87267Y-59078D01*
X87416Y-59228D01*
X87610Y-59308D01*
X87821Y-59308D01*
X88015Y-59228D01*
X88165Y-59079D01*
X88245Y-58885D01*
X88245Y-58674D01*
X88245Y-68090D01*
X86986Y-68090D01*
X86986Y-57847D01*
X86905Y-57653D01*
X86756Y-57504D01*
X86562Y-57423D01*
X86351Y-57423D01*
X86157Y-57503D01*
X86008Y-57652D01*
X85927Y-57847D01*
X85927Y-58057D01*
X86007Y-58252D01*
X86156Y-58401D01*
X86350Y-58481D01*
X86561Y-58482D01*
X86756Y-58401D01*
X86905Y-58252D01*
X86985Y-58058D01*
X86986Y-57847D01*
X86986Y-68090D01*
X85686Y-68090D01*
X85686Y-56863D01*
X85606Y-56669D01*
X85457Y-56520D01*
X85263Y-56439D01*
X85052Y-56439D01*
X84858Y-56519D01*
X84708Y-56668D01*
X84628Y-56862D01*
X84628Y-57073D01*
X84708Y-57267D01*
X84857Y-57416D01*
X85051Y-57497D01*
X85262Y-57497D01*
X85456Y-57417D01*
X85605Y-57268D01*
X85686Y-57074D01*
X85686Y-56863D01*
X85686Y-68090D01*
X54354Y-68090D01*
X54354Y-63842D01*
X54072Y-63160D01*
X53551Y-62638D01*
X52870Y-62355D01*
X52132Y-62355D01*
X51450Y-62637D01*
X50928Y-63158D01*
X50645Y-63839D01*
X50645Y-64577D01*
X50927Y-65259D01*
X51448Y-65781D01*
X52129Y-66064D01*
X52867Y-66064D01*
X53549Y-65782D01*
X54071Y-65261D01*
X54354Y-64580D01*
X54354Y-63842D01*
X54354Y-68090D01*
X26154Y-68090D01*
X26154Y-29281D01*
X25986Y-28875D01*
X25676Y-28564D01*
X25270Y-28395D01*
X24831Y-28395D01*
X24425Y-28563D01*
X24114Y-28873D01*
X23945Y-29279D01*
X23945Y-29718D01*
X24113Y-30124D01*
X24423Y-30435D01*
X24829Y-30604D01*
X25268Y-30604D01*
X25674Y-30436D01*
X25985Y-30126D01*
X26154Y-29720D01*
X26154Y-29281D01*
X26154Y-68090D01*
X23011Y-68090D01*
X23011Y-24586D01*
X142185Y-24586D01*
X142185Y-68090D01*
X142185Y-68090D01*
G37*
G54D21*
X142185Y-68090D02*
X142043Y-68090D01*
X142043Y-60191D01*
X141936Y-59932D01*
X141834Y-59830D01*
X141935Y-59730D01*
X142042Y-59471D01*
X142043Y-59191D01*
X141936Y-58932D01*
X141855Y-58851D01*
X141891Y-58816D01*
X141927Y-58728D01*
X141927Y-58633D01*
X141927Y-58028D01*
X141927Y-57932D01*
X141891Y-57844D01*
X141823Y-57777D01*
X141735Y-57741D01*
X141459Y-57741D01*
X141399Y-57801D01*
X141399Y-58270D01*
X141868Y-58270D01*
X141927Y-58210D01*
X141927Y-58028D01*
X141927Y-58633D01*
X141927Y-58451D01*
X141868Y-58391D01*
X141399Y-58391D01*
X141399Y-58399D01*
X141277Y-58399D01*
X141277Y-58391D01*
X141277Y-58270D01*
X141277Y-57801D01*
X141218Y-57741D01*
X141154Y-57741D01*
X141154Y-29281D01*
X140986Y-28875D01*
X140676Y-28564D01*
X140270Y-28395D01*
X139831Y-28395D01*
X139425Y-28563D01*
X139114Y-28873D01*
X138945Y-29279D01*
X138945Y-29718D01*
X139113Y-30124D01*
X139423Y-30435D01*
X139829Y-30604D01*
X140268Y-30604D01*
X140674Y-30436D01*
X140985Y-30126D01*
X141154Y-29720D01*
X141154Y-29281D01*
X141154Y-57741D01*
X140941Y-57741D01*
X140853Y-57777D01*
X140785Y-57844D01*
X140749Y-57932D01*
X140749Y-58028D01*
X140749Y-58210D01*
X140809Y-58270D01*
X141277Y-58270D01*
X141277Y-58391D01*
X140809Y-58391D01*
X140749Y-58451D01*
X140749Y-58633D01*
X140749Y-58728D01*
X140769Y-58776D01*
X134251Y-58776D01*
X134251Y-30886D01*
X133950Y-30585D01*
X133648Y-30886D01*
X133677Y-30977D01*
X133881Y-31045D01*
X134095Y-31030D01*
X134222Y-30977D01*
X134251Y-30886D01*
X134251Y-58776D01*
X133404Y-58776D01*
X133404Y-58307D01*
X133404Y-33708D01*
X133425Y-33676D01*
X133467Y-33464D01*
X133467Y-33464D01*
X133425Y-33252D01*
X133404Y-33220D01*
X133404Y-31046D01*
X133450Y-31000D01*
X133504Y-30870D01*
X133504Y-30782D01*
X133563Y-30801D01*
X133864Y-30500D01*
X133858Y-30494D01*
X133944Y-30408D01*
X133950Y-30414D01*
X133955Y-30408D01*
X134041Y-30494D01*
X134035Y-30500D01*
X134336Y-30801D01*
X134407Y-30778D01*
X134444Y-30870D01*
X134628Y-31054D01*
X134869Y-31154D01*
X135129Y-31154D01*
X135370Y-31055D01*
X135550Y-30875D01*
X135728Y-31054D01*
X135969Y-31154D01*
X136229Y-31154D01*
X136470Y-31055D01*
X136650Y-30875D01*
X136828Y-31054D01*
X137069Y-31154D01*
X137329Y-31154D01*
X137570Y-31055D01*
X137754Y-30871D01*
X137854Y-30630D01*
X137854Y-30370D01*
X137755Y-30129D01*
X137571Y-29945D01*
X137330Y-29845D01*
X137214Y-29845D01*
X137304Y-29630D01*
X137304Y-29370D01*
X137205Y-29129D01*
X137021Y-28945D01*
X136780Y-28845D01*
X136520Y-28845D01*
X136279Y-28944D01*
X136104Y-29120D01*
X136104Y-26455D01*
X136104Y-26455D01*
X136062Y-26243D01*
X136062Y-26243D01*
X136022Y-26183D01*
X135941Y-26063D01*
X135941Y-26063D01*
X135903Y-26025D01*
X135723Y-25905D01*
X135511Y-25862D01*
X120590Y-25862D01*
X120550Y-25862D01*
X105629Y-25862D01*
X105550Y-25862D01*
X90905Y-25862D01*
X75590Y-25862D01*
X60669Y-25862D01*
X45551Y-25862D01*
X45550Y-25862D01*
X30590Y-25862D01*
X30386Y-25903D01*
X26812Y-25903D01*
X26600Y-25945D01*
X26540Y-25985D01*
X26420Y-26065D01*
X26419Y-26067D01*
X26298Y-26246D01*
X26256Y-26459D01*
X26256Y-44645D01*
X26298Y-44857D01*
X26419Y-45037D01*
X40773Y-59391D01*
X40773Y-59391D01*
X40953Y-59512D01*
X40953Y-59512D01*
X40988Y-59519D01*
X41165Y-59554D01*
X71809Y-59554D01*
X71678Y-59749D01*
X71628Y-60000D01*
X71678Y-60250D01*
X71820Y-60462D01*
X72032Y-60604D01*
X72283Y-60654D01*
X72716Y-60654D01*
X72967Y-60604D01*
X73179Y-60462D01*
X73321Y-60250D01*
X73371Y-60000D01*
X73321Y-59749D01*
X73179Y-59537D01*
X73123Y-59499D01*
X73179Y-59462D01*
X73321Y-59250D01*
X73371Y-59000D01*
X73321Y-58749D01*
X73179Y-58537D01*
X73123Y-58499D01*
X73179Y-58462D01*
X73321Y-58250D01*
X73371Y-58000D01*
X73321Y-57749D01*
X73179Y-57537D01*
X73123Y-57499D01*
X73179Y-57462D01*
X73321Y-57250D01*
X73371Y-57000D01*
X73321Y-56749D01*
X73179Y-56537D01*
X73123Y-56499D01*
X73179Y-56462D01*
X73321Y-56250D01*
X73371Y-56000D01*
X73371Y-50000D01*
X73321Y-49749D01*
X73179Y-49537D01*
X73123Y-49500D01*
X73179Y-49462D01*
X73321Y-49250D01*
X73371Y-49000D01*
X73321Y-48749D01*
X73179Y-48537D01*
X73123Y-48500D01*
X73179Y-48462D01*
X73321Y-48250D01*
X73371Y-48000D01*
X73321Y-47749D01*
X73179Y-47537D01*
X73123Y-47500D01*
X73179Y-47462D01*
X73321Y-47250D01*
X73371Y-47000D01*
X73321Y-46749D01*
X73179Y-46537D01*
X73123Y-46500D01*
X73179Y-46462D01*
X73321Y-46250D01*
X73371Y-46000D01*
X73321Y-45749D01*
X73179Y-45537D01*
X72967Y-45395D01*
X72716Y-45345D01*
X72283Y-45345D01*
X72032Y-45395D01*
X71820Y-45537D01*
X71678Y-45749D01*
X71628Y-46000D01*
X71678Y-46250D01*
X71820Y-46462D01*
X71876Y-46500D01*
X71820Y-46537D01*
X71678Y-46749D01*
X71628Y-47000D01*
X71678Y-47250D01*
X71820Y-47462D01*
X71876Y-47500D01*
X71820Y-47537D01*
X71678Y-47749D01*
X71628Y-48000D01*
X71678Y-48250D01*
X71820Y-48462D01*
X71876Y-48500D01*
X71820Y-48537D01*
X71678Y-48749D01*
X71628Y-49000D01*
X71678Y-49250D01*
X71820Y-49462D01*
X71876Y-49500D01*
X71820Y-49537D01*
X71678Y-49749D01*
X71628Y-50000D01*
X71678Y-50250D01*
X71820Y-50462D01*
X72032Y-50604D01*
X72283Y-50654D01*
X72716Y-50654D01*
X72967Y-50604D01*
X73179Y-50462D01*
X73321Y-50250D01*
X73371Y-50000D01*
X73371Y-56000D01*
X73321Y-55749D01*
X73179Y-55537D01*
X72967Y-55395D01*
X72716Y-55345D01*
X72283Y-55345D01*
X72032Y-55395D01*
X71820Y-55537D01*
X71678Y-55749D01*
X71628Y-56000D01*
X71678Y-56250D01*
X71820Y-56462D01*
X71876Y-56500D01*
X71820Y-56537D01*
X71678Y-56749D01*
X71628Y-57000D01*
X71678Y-57250D01*
X71820Y-57462D01*
X71876Y-57500D01*
X71820Y-57537D01*
X71678Y-57749D01*
X71628Y-58000D01*
X71678Y-58250D01*
X71809Y-58445D01*
X54354Y-58445D01*
X54354Y-43842D01*
X54072Y-43160D01*
X53551Y-42638D01*
X52870Y-42355D01*
X52132Y-42355D01*
X51450Y-42637D01*
X50928Y-43158D01*
X50645Y-43839D01*
X50645Y-44577D01*
X50927Y-45259D01*
X51448Y-45781D01*
X52129Y-46064D01*
X52867Y-46064D01*
X53549Y-45782D01*
X54071Y-45261D01*
X54354Y-44580D01*
X54354Y-43842D01*
X54354Y-58445D01*
X41394Y-58445D01*
X27365Y-44416D01*
X27365Y-33693D01*
X27458Y-33832D01*
X27482Y-33856D01*
X27661Y-33976D01*
X27874Y-34018D01*
X42850Y-34018D01*
X42874Y-34018D01*
X57834Y-34018D01*
X57850Y-34018D01*
X72850Y-34018D01*
X87834Y-34018D01*
X87850Y-34018D01*
X102850Y-34018D01*
X117834Y-34018D01*
X117850Y-34018D01*
X132295Y-34018D01*
X132295Y-57752D01*
X129979Y-57752D01*
X129798Y-57677D01*
X129548Y-57677D01*
X129317Y-57773D01*
X129140Y-57950D01*
X129101Y-58041D01*
X129041Y-58024D01*
X128956Y-58109D01*
X128956Y-57938D01*
X128930Y-57850D01*
X128735Y-57786D01*
X128531Y-57802D01*
X128416Y-57850D01*
X128390Y-57938D01*
X128673Y-58221D01*
X128956Y-57938D01*
X128956Y-58109D01*
X128758Y-58307D01*
X129041Y-58589D01*
X129101Y-58572D01*
X129139Y-58663D01*
X129316Y-58840D01*
X129547Y-58936D01*
X129797Y-58936D01*
X129979Y-58861D01*
X132295Y-58861D01*
X132295Y-59227D01*
X132337Y-59440D01*
X132458Y-59619D01*
X132560Y-59722D01*
X132560Y-59722D01*
X132680Y-59802D01*
X132740Y-59842D01*
X132740Y-59842D01*
X132952Y-59885D01*
X132952Y-59885D01*
X140788Y-59885D01*
X140741Y-59931D01*
X140634Y-60189D01*
X140634Y-60470D01*
X140741Y-60729D01*
X140939Y-60927D01*
X141197Y-61034D01*
X141478Y-61035D01*
X141737Y-60928D01*
X141935Y-60730D01*
X142042Y-60471D01*
X142043Y-60191D01*
X142043Y-68090D01*
X135893Y-68090D01*
X135893Y-63103D01*
X135797Y-62872D01*
X135620Y-62695D01*
X135389Y-62599D01*
X135139Y-62598D01*
X134907Y-62694D01*
X134730Y-62871D01*
X134692Y-62962D01*
X134632Y-62945D01*
X134546Y-63031D01*
X134546Y-62859D01*
X134520Y-62771D01*
X134326Y-62707D01*
X134122Y-62723D01*
X134006Y-62771D01*
X133980Y-62859D01*
X134263Y-63142D01*
X134546Y-62859D01*
X134546Y-63031D01*
X134349Y-63228D01*
X134632Y-63511D01*
X134692Y-63493D01*
X134729Y-63584D01*
X134906Y-63761D01*
X135138Y-63857D01*
X135388Y-63857D01*
X135619Y-63762D01*
X135796Y-63585D01*
X135893Y-63354D01*
X135893Y-63103D01*
X135893Y-68090D01*
X134546Y-68090D01*
X134546Y-63596D01*
X134263Y-63314D01*
X134178Y-63399D01*
X134178Y-63228D01*
X133895Y-62945D01*
X133806Y-62971D01*
X133743Y-63165D01*
X133758Y-63369D01*
X133806Y-63485D01*
X133895Y-63511D01*
X134178Y-63228D01*
X134178Y-63399D01*
X133980Y-63596D01*
X134006Y-63685D01*
X134201Y-63749D01*
X134405Y-63733D01*
X134520Y-63685D01*
X134546Y-63596D01*
X134546Y-68090D01*
X131654Y-68090D01*
X131654Y-63458D01*
X131654Y-62858D01*
X131600Y-62727D01*
X131500Y-62628D01*
X131370Y-62574D01*
X131229Y-62573D01*
X130629Y-62573D01*
X130499Y-62627D01*
X130412Y-62715D01*
X130371Y-62673D01*
X130130Y-62574D01*
X129870Y-62573D01*
X129629Y-62673D01*
X129445Y-62857D01*
X129413Y-62935D01*
X129386Y-62927D01*
X129301Y-63013D01*
X129301Y-62841D01*
X129272Y-62750D01*
X129068Y-62682D01*
X128956Y-62690D01*
X128956Y-58675D01*
X128673Y-58392D01*
X128587Y-58478D01*
X128587Y-58307D01*
X128304Y-58024D01*
X128216Y-58049D01*
X128152Y-58244D01*
X128168Y-58448D01*
X128216Y-58564D01*
X128304Y-58589D01*
X128587Y-58307D01*
X128587Y-58478D01*
X128390Y-58675D01*
X128416Y-58764D01*
X128610Y-58827D01*
X128814Y-58812D01*
X128930Y-58764D01*
X128956Y-58675D01*
X128956Y-62690D01*
X128854Y-62697D01*
X128727Y-62750D01*
X128698Y-62841D01*
X129000Y-63142D01*
X129301Y-62841D01*
X129301Y-63013D01*
X129085Y-63228D01*
X129386Y-63529D01*
X129412Y-63521D01*
X129444Y-63598D01*
X129628Y-63782D01*
X129869Y-63882D01*
X130129Y-63882D01*
X130370Y-63783D01*
X130412Y-63741D01*
X130499Y-63828D01*
X130629Y-63882D01*
X130770Y-63882D01*
X131370Y-63882D01*
X131500Y-63828D01*
X131600Y-63729D01*
X131654Y-63599D01*
X131654Y-63458D01*
X131654Y-68090D01*
X129301Y-68090D01*
X129301Y-63615D01*
X129000Y-63314D01*
X128914Y-63399D01*
X128914Y-63228D01*
X128613Y-62927D01*
X128522Y-62956D01*
X128454Y-63159D01*
X128469Y-63373D01*
X128522Y-63500D01*
X128613Y-63529D01*
X128914Y-63228D01*
X128914Y-63399D01*
X128698Y-63615D01*
X128727Y-63706D01*
X128931Y-63773D01*
X129145Y-63758D01*
X129272Y-63706D01*
X129301Y-63615D01*
X129301Y-68090D01*
X126154Y-68090D01*
X126154Y-63458D01*
X126154Y-62858D01*
X126100Y-62727D01*
X126000Y-62628D01*
X125870Y-62574D01*
X125729Y-62573D01*
X125129Y-62573D01*
X124999Y-62627D01*
X124899Y-62727D01*
X124863Y-62815D01*
X124845Y-62797D01*
X124801Y-62841D01*
X124772Y-62750D01*
X124568Y-62682D01*
X124354Y-62697D01*
X124227Y-62750D01*
X124198Y-62841D01*
X124500Y-63142D01*
X124505Y-63137D01*
X124591Y-63222D01*
X124585Y-63228D01*
X124591Y-63233D01*
X124505Y-63319D01*
X124500Y-63314D01*
X124414Y-63399D01*
X124414Y-63228D01*
X124113Y-62927D01*
X124022Y-62956D01*
X123954Y-63159D01*
X123969Y-63373D01*
X124022Y-63500D01*
X124113Y-63529D01*
X124414Y-63228D01*
X124414Y-63399D01*
X124198Y-63615D01*
X124227Y-63706D01*
X124431Y-63773D01*
X124645Y-63758D01*
X124772Y-63706D01*
X124801Y-63615D01*
X124801Y-63615D01*
X124845Y-63659D01*
X124863Y-63641D01*
X124899Y-63728D01*
X124999Y-63828D01*
X125129Y-63882D01*
X125270Y-63882D01*
X125870Y-63882D01*
X126000Y-63828D01*
X126100Y-63729D01*
X126154Y-63599D01*
X126154Y-63458D01*
X126154Y-68090D01*
X124801Y-68090D01*
X114354Y-68090D01*
X114354Y-63842D01*
X114354Y-43842D01*
X114072Y-43160D01*
X113551Y-42638D01*
X112870Y-42355D01*
X112132Y-42355D01*
X111450Y-42637D01*
X110928Y-43158D01*
X110645Y-43839D01*
X110645Y-44577D01*
X110927Y-45259D01*
X111448Y-45781D01*
X112129Y-46064D01*
X112867Y-46064D01*
X113549Y-45782D01*
X114071Y-45261D01*
X114354Y-44580D01*
X114354Y-43842D01*
X114354Y-63842D01*
X114072Y-63160D01*
X113551Y-62638D01*
X112870Y-62355D01*
X112132Y-62355D01*
X111450Y-62637D01*
X110928Y-63158D01*
X110645Y-63839D01*
X110645Y-64577D01*
X110927Y-65259D01*
X111448Y-65781D01*
X112129Y-66064D01*
X112867Y-66064D01*
X113549Y-65782D01*
X114071Y-65261D01*
X114354Y-64580D01*
X114354Y-63842D01*
X114354Y-68090D01*
X92371Y-68090D01*
X92371Y-67000D01*
X92321Y-66749D01*
X92179Y-66537D01*
X92123Y-66499D01*
X92179Y-66462D01*
X92321Y-66250D01*
X92371Y-66000D01*
X92321Y-65749D01*
X92179Y-65537D01*
X92123Y-65499D01*
X92179Y-65462D01*
X92321Y-65250D01*
X92371Y-65000D01*
X92371Y-62000D01*
X92371Y-60000D01*
X92321Y-59749D01*
X92179Y-59537D01*
X92123Y-59499D01*
X92179Y-59462D01*
X92321Y-59250D01*
X92371Y-59000D01*
X92321Y-58749D01*
X92179Y-58537D01*
X92123Y-58499D01*
X92179Y-58462D01*
X92321Y-58250D01*
X92371Y-58000D01*
X92321Y-57749D01*
X92179Y-57537D01*
X92123Y-57499D01*
X92179Y-57462D01*
X92321Y-57250D01*
X92371Y-57000D01*
X92321Y-56749D01*
X92179Y-56537D01*
X92123Y-56499D01*
X92179Y-56462D01*
X92321Y-56250D01*
X92371Y-56000D01*
X92321Y-55749D01*
X92179Y-55537D01*
X92123Y-55499D01*
X92179Y-55462D01*
X92321Y-55250D01*
X92371Y-55000D01*
X92321Y-54749D01*
X92179Y-54537D01*
X92123Y-54499D01*
X92179Y-54462D01*
X92321Y-54250D01*
X92371Y-54000D01*
X92321Y-53749D01*
X92179Y-53537D01*
X92123Y-53499D01*
X92179Y-53462D01*
X92321Y-53250D01*
X92371Y-53000D01*
X92371Y-51000D01*
X92321Y-50749D01*
X92179Y-50537D01*
X92123Y-50499D01*
X92179Y-50462D01*
X92321Y-50250D01*
X92371Y-50000D01*
X92321Y-49749D01*
X92179Y-49537D01*
X92123Y-49499D01*
X92179Y-49462D01*
X92321Y-49250D01*
X92371Y-49000D01*
X92321Y-48749D01*
X92179Y-48537D01*
X92123Y-48499D01*
X92179Y-48462D01*
X92321Y-48250D01*
X92371Y-48000D01*
X92321Y-47749D01*
X92179Y-47537D01*
X92123Y-47499D01*
X92179Y-47462D01*
X92321Y-47250D01*
X92371Y-47000D01*
X92321Y-46749D01*
X92179Y-46537D01*
X92123Y-46499D01*
X92179Y-46462D01*
X92321Y-46250D01*
X92371Y-46000D01*
X92321Y-45749D01*
X92179Y-45537D01*
X92123Y-45499D01*
X92179Y-45462D01*
X92321Y-45250D01*
X92371Y-45000D01*
X92321Y-44749D01*
X92179Y-44537D01*
X92123Y-44499D01*
X92179Y-44462D01*
X92321Y-44250D01*
X92371Y-44000D01*
X92321Y-43749D01*
X92179Y-43537D01*
X91967Y-43395D01*
X91716Y-43345D01*
X91283Y-43345D01*
X91032Y-43395D01*
X90820Y-43537D01*
X90678Y-43749D01*
X90628Y-44000D01*
X90678Y-44250D01*
X90820Y-44462D01*
X90876Y-44500D01*
X90820Y-44537D01*
X90678Y-44749D01*
X90628Y-45000D01*
X90678Y-45250D01*
X90820Y-45462D01*
X90876Y-45500D01*
X90820Y-45537D01*
X90678Y-45749D01*
X90628Y-46000D01*
X90678Y-46250D01*
X90820Y-46462D01*
X90876Y-46500D01*
X90820Y-46537D01*
X90678Y-46749D01*
X90628Y-47000D01*
X90678Y-47250D01*
X90820Y-47462D01*
X90876Y-47500D01*
X90820Y-47537D01*
X90678Y-47749D01*
X90628Y-48000D01*
X90678Y-48250D01*
X90820Y-48462D01*
X90876Y-48500D01*
X90820Y-48537D01*
X90678Y-48749D01*
X90628Y-49000D01*
X90678Y-49250D01*
X90820Y-49462D01*
X90876Y-49500D01*
X90820Y-49537D01*
X90678Y-49749D01*
X90628Y-50000D01*
X90678Y-50250D01*
X90820Y-50462D01*
X90876Y-50500D01*
X90820Y-50537D01*
X90678Y-50749D01*
X90628Y-51000D01*
X90678Y-51250D01*
X90820Y-51462D01*
X91032Y-51604D01*
X91283Y-51654D01*
X91716Y-51654D01*
X91967Y-51604D01*
X92179Y-51462D01*
X92321Y-51250D01*
X92371Y-51000D01*
X92371Y-53000D01*
X92321Y-52749D01*
X92179Y-52537D01*
X91967Y-52395D01*
X91716Y-52345D01*
X91283Y-52345D01*
X91032Y-52395D01*
X90820Y-52537D01*
X90678Y-52749D01*
X90628Y-53000D01*
X90678Y-53250D01*
X90820Y-53462D01*
X90876Y-53500D01*
X90820Y-53537D01*
X90678Y-53749D01*
X90628Y-54000D01*
X90678Y-54250D01*
X90820Y-54462D01*
X90876Y-54500D01*
X90820Y-54537D01*
X90678Y-54749D01*
X90628Y-55000D01*
X90678Y-55250D01*
X90820Y-55462D01*
X90876Y-55500D01*
X90820Y-55537D01*
X90678Y-55749D01*
X90628Y-56000D01*
X90678Y-56250D01*
X90820Y-56462D01*
X90876Y-56500D01*
X90820Y-56537D01*
X90678Y-56749D01*
X90628Y-57000D01*
X90678Y-57250D01*
X90820Y-57462D01*
X90876Y-57500D01*
X90820Y-57537D01*
X90678Y-57749D01*
X90628Y-58000D01*
X90678Y-58250D01*
X90820Y-58462D01*
X90876Y-58500D01*
X90820Y-58537D01*
X90678Y-58749D01*
X90628Y-59000D01*
X90678Y-59250D01*
X90820Y-59462D01*
X90876Y-59500D01*
X90820Y-59537D01*
X90678Y-59749D01*
X90628Y-60000D01*
X90678Y-60250D01*
X90820Y-60462D01*
X91032Y-60604D01*
X91283Y-60654D01*
X91716Y-60654D01*
X91967Y-60604D01*
X92179Y-60462D01*
X92321Y-60250D01*
X92371Y-60000D01*
X92371Y-62000D01*
X92321Y-61749D01*
X92179Y-61537D01*
X91967Y-61395D01*
X91716Y-61345D01*
X91283Y-61345D01*
X91032Y-61395D01*
X90820Y-61537D01*
X90678Y-61749D01*
X90628Y-62000D01*
X90678Y-62250D01*
X90820Y-62462D01*
X90982Y-62571D01*
X90875Y-62661D01*
X90780Y-62856D01*
X90824Y-62939D01*
X91439Y-62939D01*
X91439Y-62931D01*
X91560Y-62931D01*
X91560Y-62939D01*
X92175Y-62939D01*
X92219Y-62856D01*
X92124Y-62661D01*
X92017Y-62571D01*
X92179Y-62462D01*
X92321Y-62250D01*
X92371Y-62000D01*
X92371Y-65000D01*
X92321Y-64749D01*
X92179Y-64537D01*
X92017Y-64428D01*
X92124Y-64338D01*
X92219Y-64143D01*
X92219Y-63856D01*
X92124Y-63661D01*
X91962Y-63524D01*
X91884Y-63500D01*
X91962Y-63475D01*
X92124Y-63338D01*
X92219Y-63143D01*
X92175Y-63060D01*
X91560Y-63060D01*
X91560Y-63460D01*
X91560Y-63539D01*
X91560Y-63939D01*
X92175Y-63939D01*
X92219Y-63856D01*
X92219Y-64143D01*
X92175Y-64060D01*
X91560Y-64060D01*
X91560Y-64068D01*
X91439Y-64068D01*
X91439Y-64060D01*
X91439Y-63939D01*
X91439Y-63539D01*
X91439Y-63460D01*
X91439Y-63060D01*
X90824Y-63060D01*
X90780Y-63143D01*
X90875Y-63338D01*
X91037Y-63475D01*
X91115Y-63500D01*
X91037Y-63524D01*
X90875Y-63661D01*
X90780Y-63856D01*
X90824Y-63939D01*
X91439Y-63939D01*
X91439Y-64060D01*
X90824Y-64060D01*
X90780Y-64143D01*
X90875Y-64338D01*
X90982Y-64428D01*
X90820Y-64537D01*
X90678Y-64749D01*
X90628Y-65000D01*
X90678Y-65250D01*
X90820Y-65462D01*
X90876Y-65500D01*
X90820Y-65537D01*
X90678Y-65749D01*
X90628Y-66000D01*
X90678Y-66250D01*
X90820Y-66462D01*
X90876Y-66500D01*
X90820Y-66537D01*
X90678Y-66749D01*
X90628Y-67000D01*
X90678Y-67250D01*
X90820Y-67462D01*
X91032Y-67604D01*
X91283Y-67654D01*
X91716Y-67654D01*
X91967Y-67604D01*
X92179Y-67462D01*
X92321Y-67250D01*
X92371Y-67000D01*
X92371Y-68090D01*
X91653Y-68090D01*
X90045Y-68090D01*
X90045Y-43068D01*
X90045Y-42068D01*
X90030Y-41854D01*
X89977Y-41727D01*
X89886Y-41698D01*
X89801Y-41784D01*
X89801Y-41613D01*
X89772Y-41522D01*
X89568Y-41454D01*
X89354Y-41469D01*
X89227Y-41522D01*
X89198Y-41613D01*
X89500Y-41914D01*
X89801Y-41613D01*
X89801Y-41784D01*
X89585Y-42000D01*
X89886Y-42301D01*
X89977Y-42272D01*
X90045Y-42068D01*
X90045Y-43068D01*
X90030Y-42854D01*
X89977Y-42727D01*
X89886Y-42698D01*
X89801Y-42784D01*
X89801Y-42613D01*
X89772Y-42522D01*
X89712Y-42502D01*
X89772Y-42477D01*
X89801Y-42386D01*
X89500Y-42085D01*
X89198Y-42386D01*
X89227Y-42477D01*
X89287Y-42497D01*
X89227Y-42522D01*
X89198Y-42613D01*
X89500Y-42914D01*
X89801Y-42613D01*
X89801Y-42784D01*
X89585Y-43000D01*
X89886Y-43301D01*
X89977Y-43272D01*
X90045Y-43068D01*
X90045Y-68090D01*
X89801Y-68090D01*
X89801Y-43386D01*
X89500Y-43085D01*
X89414Y-43171D01*
X89414Y-43000D01*
X89113Y-42698D01*
X89087Y-42707D01*
X89055Y-42629D01*
X88925Y-42499D01*
X89054Y-42371D01*
X89086Y-42292D01*
X89113Y-42301D01*
X89414Y-42000D01*
X89113Y-41698D01*
X89087Y-41707D01*
X89055Y-41629D01*
X88871Y-41445D01*
X88630Y-41345D01*
X88370Y-41345D01*
X88129Y-41444D01*
X87999Y-41574D01*
X87871Y-41445D01*
X87630Y-41345D01*
X87370Y-41345D01*
X87129Y-41444D01*
X86999Y-41574D01*
X86871Y-41445D01*
X86630Y-41345D01*
X86370Y-41345D01*
X86129Y-41444D01*
X85999Y-41574D01*
X85871Y-41445D01*
X85630Y-41345D01*
X85370Y-41345D01*
X85129Y-41444D01*
X84999Y-41574D01*
X84871Y-41445D01*
X84630Y-41345D01*
X84370Y-41345D01*
X84129Y-41444D01*
X83999Y-41574D01*
X83871Y-41445D01*
X83630Y-41345D01*
X83370Y-41345D01*
X83129Y-41444D01*
X82999Y-41574D01*
X82871Y-41445D01*
X82630Y-41345D01*
X82370Y-41345D01*
X82129Y-41444D01*
X81999Y-41574D01*
X81871Y-41445D01*
X81630Y-41345D01*
X81370Y-41345D01*
X81129Y-41444D01*
X80999Y-41574D01*
X80871Y-41445D01*
X80630Y-41345D01*
X80370Y-41345D01*
X80129Y-41444D01*
X79999Y-41574D01*
X79871Y-41445D01*
X79630Y-41345D01*
X79370Y-41345D01*
X79129Y-41444D01*
X78999Y-41574D01*
X78871Y-41445D01*
X78630Y-41345D01*
X78370Y-41345D01*
X78129Y-41444D01*
X77999Y-41574D01*
X77871Y-41445D01*
X77630Y-41345D01*
X77370Y-41345D01*
X77129Y-41444D01*
X76999Y-41574D01*
X76871Y-41445D01*
X76630Y-41345D01*
X76370Y-41345D01*
X76129Y-41444D01*
X75999Y-41574D01*
X75871Y-41445D01*
X75630Y-41345D01*
X75370Y-41345D01*
X75129Y-41444D01*
X74999Y-41574D01*
X74871Y-41445D01*
X74630Y-41345D01*
X74370Y-41345D01*
X74129Y-41444D01*
X73999Y-41574D01*
X73871Y-41445D01*
X73630Y-41345D01*
X73370Y-41345D01*
X73129Y-41444D01*
X72999Y-41574D01*
X72871Y-41445D01*
X72630Y-41345D01*
X72370Y-41345D01*
X72129Y-41444D01*
X71945Y-41628D01*
X71845Y-41869D01*
X71845Y-42129D01*
X71944Y-42370D01*
X72074Y-42500D01*
X71945Y-42628D01*
X71845Y-42869D01*
X71845Y-43129D01*
X71944Y-43370D01*
X72128Y-43554D01*
X72369Y-43654D01*
X72629Y-43654D01*
X72870Y-43555D01*
X73000Y-43425D01*
X73128Y-43554D01*
X73369Y-43654D01*
X73629Y-43654D01*
X73870Y-43555D01*
X74000Y-43425D01*
X74128Y-43554D01*
X74369Y-43654D01*
X74629Y-43654D01*
X74870Y-43555D01*
X75000Y-43425D01*
X75128Y-43554D01*
X75369Y-43654D01*
X75629Y-43654D01*
X75870Y-43555D01*
X76000Y-43425D01*
X76128Y-43554D01*
X76369Y-43654D01*
X76629Y-43654D01*
X76870Y-43555D01*
X77000Y-43425D01*
X77128Y-43554D01*
X77369Y-43654D01*
X77629Y-43654D01*
X77870Y-43555D01*
X78000Y-43425D01*
X78128Y-43554D01*
X78369Y-43654D01*
X78629Y-43654D01*
X78870Y-43555D01*
X79000Y-43425D01*
X79128Y-43554D01*
X79369Y-43654D01*
X79629Y-43654D01*
X79870Y-43555D01*
X80000Y-43425D01*
X80128Y-43554D01*
X80369Y-43654D01*
X80629Y-43654D01*
X80870Y-43555D01*
X81000Y-43425D01*
X81128Y-43554D01*
X81369Y-43654D01*
X81629Y-43654D01*
X81870Y-43555D01*
X82000Y-43425D01*
X82128Y-43554D01*
X82369Y-43654D01*
X82629Y-43654D01*
X82870Y-43555D01*
X83000Y-43425D01*
X83128Y-43554D01*
X83369Y-43654D01*
X83629Y-43654D01*
X83870Y-43555D01*
X84000Y-43425D01*
X84128Y-43554D01*
X84369Y-43654D01*
X84629Y-43654D01*
X84870Y-43555D01*
X85000Y-43425D01*
X85128Y-43554D01*
X85369Y-43654D01*
X85629Y-43654D01*
X85870Y-43555D01*
X86000Y-43425D01*
X86128Y-43554D01*
X86369Y-43654D01*
X86629Y-43654D01*
X86870Y-43555D01*
X87000Y-43425D01*
X87128Y-43554D01*
X87369Y-43654D01*
X87629Y-43654D01*
X87870Y-43555D01*
X88000Y-43425D01*
X88128Y-43554D01*
X88369Y-43654D01*
X88629Y-43654D01*
X88870Y-43555D01*
X89054Y-43371D01*
X89086Y-43292D01*
X89113Y-43301D01*
X89414Y-43000D01*
X89414Y-43171D01*
X89198Y-43386D01*
X89227Y-43477D01*
X89431Y-43545D01*
X89645Y-43530D01*
X89772Y-43477D01*
X89801Y-43386D01*
X89801Y-68090D01*
X89748Y-68090D01*
X89748Y-67225D01*
X89748Y-66625D01*
X89695Y-66495D01*
X89640Y-66440D01*
X89595Y-66395D01*
X89507Y-66359D01*
X89525Y-66341D01*
X89481Y-66297D01*
X89572Y-66268D01*
X89640Y-66064D01*
X89624Y-65850D01*
X89572Y-65723D01*
X89481Y-65695D01*
X89395Y-65780D01*
X89395Y-65609D01*
X89366Y-65518D01*
X89163Y-65450D01*
X88949Y-65465D01*
X88822Y-65518D01*
X88793Y-65609D01*
X89094Y-65910D01*
X89395Y-65609D01*
X89395Y-65780D01*
X89180Y-65996D01*
X89185Y-66001D01*
X89100Y-66087D01*
X89094Y-66081D01*
X89088Y-66087D01*
X89008Y-66007D01*
X89003Y-66001D01*
X89008Y-65996D01*
X88707Y-65695D01*
X88616Y-65723D01*
X88548Y-65927D01*
X88564Y-66141D01*
X88616Y-66268D01*
X88707Y-66297D01*
X88663Y-66341D01*
X88681Y-66359D01*
X88594Y-66395D01*
X88494Y-66495D01*
X88440Y-66625D01*
X88440Y-66766D01*
X88440Y-67366D01*
X88493Y-67496D01*
X88593Y-67596D01*
X88723Y-67650D01*
X88864Y-67650D01*
X89464Y-67650D01*
X89594Y-67596D01*
X89694Y-67497D01*
X89748Y-67366D01*
X89748Y-67225D01*
X89748Y-68090D01*
X88245Y-68090D01*
X88245Y-58674D01*
X88165Y-58480D01*
X88016Y-58331D01*
X87822Y-58250D01*
X87611Y-58250D01*
X87417Y-58330D01*
X87268Y-58479D01*
X87187Y-58673D01*
X87187Y-58884D01*
X87267Y-59078D01*
X87416Y-59228D01*
X87610Y-59308D01*
X87821Y-59308D01*
X88015Y-59228D01*
X88165Y-59079D01*
X88245Y-58885D01*
X88245Y-58674D01*
X88245Y-68090D01*
X86986Y-68090D01*
X86986Y-57847D01*
X86905Y-57653D01*
X86756Y-57504D01*
X86562Y-57423D01*
X86351Y-57423D01*
X86157Y-57503D01*
X86008Y-57652D01*
X85927Y-57847D01*
X85927Y-58057D01*
X86007Y-58252D01*
X86156Y-58401D01*
X86350Y-58481D01*
X86561Y-58482D01*
X86756Y-58401D01*
X86905Y-58252D01*
X86985Y-58058D01*
X86986Y-57847D01*
X86986Y-68090D01*
X85686Y-68090D01*
X85686Y-56863D01*
X85606Y-56669D01*
X85457Y-56520D01*
X85263Y-56439D01*
X85052Y-56439D01*
X84858Y-56519D01*
X84708Y-56668D01*
X84628Y-56862D01*
X84628Y-57073D01*
X84708Y-57267D01*
X84857Y-57416D01*
X85051Y-57497D01*
X85262Y-57497D01*
X85456Y-57417D01*
X85605Y-57268D01*
X85686Y-57074D01*
X85686Y-56863D01*
X85686Y-68090D01*
X54354Y-68090D01*
X54354Y-63842D01*
X54072Y-63160D01*
X53551Y-62638D01*
X52870Y-62355D01*
X52132Y-62355D01*
X51450Y-62637D01*
X50928Y-63158D01*
X50645Y-63839D01*
X50645Y-64577D01*
X50927Y-65259D01*
X51448Y-65781D01*
X52129Y-66064D01*
X52867Y-66064D01*
X53549Y-65782D01*
X54071Y-65261D01*
X54354Y-64580D01*
X54354Y-63842D01*
X54354Y-68090D01*
X26154Y-68090D01*
X26154Y-29281D01*
X25986Y-28875D01*
X25676Y-28564D01*
X25270Y-28395D01*
X24831Y-28395D01*
X24425Y-28563D01*
X24114Y-28873D01*
X23945Y-29279D01*
X23945Y-29718D01*
X24113Y-30124D01*
X24423Y-30435D01*
X24829Y-30604D01*
X25268Y-30604D01*
X25674Y-30436D01*
X25985Y-30126D01*
X26154Y-29720D01*
X26154Y-29281D01*
X26154Y-68090D01*
X23011Y-68090D01*
X23011Y-24586D01*
X142185Y-24586D01*
X142185Y-68090D01*
M02*
