G04 (created by PCBNEW (2013-07-07 BZR 4022)-stable) date 9/29/2015 7:05:24 PM*
%MOIN*%
G04 Gerber Fmt 3.4, Leading zero omitted, Abs format*
%FSLAX34Y34*%
G01*
G70*
G90*
G04 APERTURE LIST*
%ADD10C,0.00590551*%
%ADD11C,0.05*%
%ADD12C,0.011811*%
%ADD13C,0.00393701*%
%ADD14C,0.015*%
%ADD15C,0.006*%
%ADD16C,0.012*%
G04 APERTURE END LIST*
G54D10*
G54D11*
X75107Y-74011D02*
X75107Y-71511D01*
X75940Y-73297D01*
X76773Y-71511D01*
X76773Y-74011D01*
X79035Y-74011D02*
X79035Y-72702D01*
X78916Y-72464D01*
X78678Y-72345D01*
X78202Y-72345D01*
X77964Y-72464D01*
X79035Y-73892D02*
X78797Y-74011D01*
X78202Y-74011D01*
X77964Y-73892D01*
X77845Y-73654D01*
X77845Y-73416D01*
X77964Y-73178D01*
X78202Y-73059D01*
X78797Y-73059D01*
X79035Y-72940D01*
X81297Y-72345D02*
X81297Y-74369D01*
X81178Y-74607D01*
X81059Y-74726D01*
X80821Y-74845D01*
X80464Y-74845D01*
X80226Y-74726D01*
X81297Y-73892D02*
X81059Y-74011D01*
X80583Y-74011D01*
X80345Y-73892D01*
X80226Y-73773D01*
X80107Y-73535D01*
X80107Y-72821D01*
X80226Y-72583D01*
X80345Y-72464D01*
X80583Y-72345D01*
X81059Y-72345D01*
X81297Y-72464D01*
X83559Y-72345D02*
X83559Y-74369D01*
X83440Y-74607D01*
X83321Y-74726D01*
X83083Y-74845D01*
X82726Y-74845D01*
X82488Y-74726D01*
X83559Y-73892D02*
X83321Y-74011D01*
X82845Y-74011D01*
X82607Y-73892D01*
X82488Y-73773D01*
X82369Y-73535D01*
X82369Y-72821D01*
X82488Y-72583D01*
X82607Y-72464D01*
X82845Y-72345D01*
X83321Y-72345D01*
X83559Y-72464D01*
X84750Y-74011D02*
X84750Y-72345D01*
X84750Y-71511D02*
X84630Y-71630D01*
X84750Y-71750D01*
X84869Y-71630D01*
X84750Y-71511D01*
X84750Y-71750D01*
X86892Y-73892D02*
X86654Y-74011D01*
X86178Y-74011D01*
X85940Y-73892D01*
X85821Y-73654D01*
X85821Y-72702D01*
X85940Y-72464D01*
X86178Y-72345D01*
X86654Y-72345D01*
X86892Y-72464D01*
X87011Y-72702D01*
X87011Y-72940D01*
X85821Y-73178D01*
X57285Y-76011D02*
X57285Y-73511D01*
X57285Y-74702D02*
X58714Y-74702D01*
X58714Y-76011D02*
X58714Y-73511D01*
X58654Y-68630D02*
X58416Y-68511D01*
X58059Y-68511D01*
X57702Y-68630D01*
X57464Y-68869D01*
X57345Y-69107D01*
X57226Y-69583D01*
X57226Y-69940D01*
X57345Y-70416D01*
X57464Y-70654D01*
X57702Y-70892D01*
X58059Y-71011D01*
X58297Y-71011D01*
X58654Y-70892D01*
X58773Y-70773D01*
X58773Y-69940D01*
X58297Y-69940D01*
X58357Y-64702D02*
X57523Y-64702D01*
X57523Y-66011D02*
X57523Y-63511D01*
X58714Y-63511D01*
X57464Y-59702D02*
X58297Y-59702D01*
X58654Y-61011D02*
X57464Y-61011D01*
X57464Y-58511D01*
X58654Y-58511D01*
X57345Y-56011D02*
X57345Y-53511D01*
X57940Y-53511D01*
X58297Y-53630D01*
X58535Y-53869D01*
X58654Y-54107D01*
X58773Y-54583D01*
X58773Y-54940D01*
X58654Y-55416D01*
X58535Y-55654D01*
X58297Y-55892D01*
X57940Y-56011D01*
X57345Y-56011D01*
X58773Y-50773D02*
X58654Y-50892D01*
X58297Y-51011D01*
X58059Y-51011D01*
X57702Y-50892D01*
X57464Y-50654D01*
X57345Y-50416D01*
X57226Y-49940D01*
X57226Y-49583D01*
X57345Y-49107D01*
X57464Y-48869D01*
X57702Y-48630D01*
X58059Y-48511D01*
X58297Y-48511D01*
X58654Y-48630D01*
X58773Y-48750D01*
X58178Y-44702D02*
X58535Y-44821D01*
X58654Y-44940D01*
X58773Y-45178D01*
X58773Y-45535D01*
X58654Y-45773D01*
X58535Y-45892D01*
X58297Y-46011D01*
X57345Y-46011D01*
X57345Y-43511D01*
X58178Y-43511D01*
X58416Y-43630D01*
X58535Y-43750D01*
X58654Y-43988D01*
X58654Y-44226D01*
X58535Y-44464D01*
X58416Y-44583D01*
X58178Y-44702D01*
X57345Y-44702D01*
X57404Y-40297D02*
X58595Y-40297D01*
X57166Y-41011D02*
X58000Y-38511D01*
X58833Y-41011D01*
G54D12*
X90157Y-45209D02*
X89819Y-45209D01*
X89988Y-45209D02*
X89988Y-44618D01*
X89932Y-44702D01*
X89876Y-44759D01*
X89819Y-44787D01*
X90522Y-44618D02*
X90579Y-44618D01*
X90635Y-44646D01*
X90663Y-44674D01*
X90691Y-44730D01*
X90719Y-44843D01*
X90719Y-44984D01*
X90691Y-45096D01*
X90663Y-45152D01*
X90635Y-45180D01*
X90579Y-45209D01*
X90522Y-45209D01*
X90466Y-45180D01*
X90438Y-45152D01*
X90410Y-45096D01*
X90382Y-44984D01*
X90382Y-44843D01*
X90410Y-44730D01*
X90438Y-44674D01*
X90466Y-44646D01*
X90522Y-44618D01*
X91225Y-44815D02*
X91225Y-45209D01*
X90972Y-44815D02*
X90972Y-45124D01*
X91000Y-45180D01*
X91057Y-45209D01*
X91141Y-45209D01*
X91197Y-45180D01*
X91225Y-45152D01*
X91703Y-44899D02*
X91507Y-44899D01*
X91507Y-45209D02*
X91507Y-44618D01*
X91788Y-44618D01*
X77629Y-38174D02*
X77657Y-38146D01*
X77714Y-38118D01*
X77854Y-38118D01*
X77911Y-38146D01*
X77939Y-38174D01*
X77967Y-38230D01*
X77967Y-38287D01*
X77939Y-38371D01*
X77601Y-38709D01*
X77967Y-38709D01*
X78192Y-38174D02*
X78220Y-38146D01*
X78276Y-38118D01*
X78417Y-38118D01*
X78473Y-38146D01*
X78501Y-38174D01*
X78529Y-38230D01*
X78529Y-38287D01*
X78501Y-38371D01*
X78164Y-38709D01*
X78529Y-38709D01*
X79035Y-38315D02*
X79035Y-38709D01*
X78782Y-38315D02*
X78782Y-38624D01*
X78810Y-38680D01*
X78867Y-38709D01*
X78951Y-38709D01*
X79007Y-38680D01*
X79035Y-38652D01*
X79513Y-38399D02*
X79317Y-38399D01*
X79317Y-38709D02*
X79317Y-38118D01*
X79598Y-38118D01*
X86224Y-36119D02*
X86028Y-35837D01*
X85887Y-36119D02*
X85887Y-35528D01*
X86112Y-35528D01*
X86168Y-35556D01*
X86196Y-35584D01*
X86224Y-35640D01*
X86224Y-35725D01*
X86196Y-35781D01*
X86168Y-35809D01*
X86112Y-35837D01*
X85887Y-35837D01*
X86702Y-36090D02*
X86646Y-36119D01*
X86534Y-36119D01*
X86477Y-36090D01*
X86449Y-36034D01*
X86449Y-35809D01*
X86477Y-35753D01*
X86534Y-35725D01*
X86646Y-35725D01*
X86702Y-35753D01*
X86731Y-35809D01*
X86731Y-35865D01*
X86449Y-35922D01*
X87237Y-35725D02*
X87237Y-36203D01*
X87209Y-36259D01*
X87181Y-36287D01*
X87124Y-36315D01*
X87040Y-36315D01*
X86984Y-36287D01*
X87237Y-36090D02*
X87181Y-36119D01*
X87068Y-36119D01*
X87012Y-36090D01*
X86984Y-36062D01*
X86956Y-36006D01*
X86956Y-35837D01*
X86984Y-35781D01*
X87012Y-35753D01*
X87068Y-35725D01*
X87181Y-35725D01*
X87237Y-35753D01*
X87771Y-35725D02*
X87771Y-36119D01*
X87518Y-35725D02*
X87518Y-36034D01*
X87546Y-36090D01*
X87602Y-36119D01*
X87687Y-36119D01*
X87743Y-36090D01*
X87771Y-36062D01*
X88137Y-36119D02*
X88080Y-36090D01*
X88052Y-36034D01*
X88052Y-35528D01*
X88615Y-36119D02*
X88615Y-35809D01*
X88587Y-35753D01*
X88530Y-35725D01*
X88418Y-35725D01*
X88362Y-35753D01*
X88615Y-36090D02*
X88558Y-36119D01*
X88418Y-36119D01*
X88362Y-36090D01*
X88334Y-36034D01*
X88334Y-35978D01*
X88362Y-35922D01*
X88418Y-35894D01*
X88558Y-35894D01*
X88615Y-35865D01*
X88812Y-35725D02*
X89037Y-35725D01*
X88896Y-35528D02*
X88896Y-36034D01*
X88924Y-36090D01*
X88980Y-36119D01*
X89037Y-36119D01*
X89318Y-36119D02*
X89262Y-36090D01*
X89233Y-36062D01*
X89205Y-36006D01*
X89205Y-35837D01*
X89233Y-35781D01*
X89262Y-35753D01*
X89318Y-35725D01*
X89402Y-35725D01*
X89458Y-35753D01*
X89486Y-35781D01*
X89515Y-35837D01*
X89515Y-36006D01*
X89486Y-36062D01*
X89458Y-36090D01*
X89402Y-36119D01*
X89318Y-36119D01*
X89768Y-36119D02*
X89768Y-35725D01*
X89768Y-35837D02*
X89796Y-35781D01*
X89824Y-35753D01*
X89880Y-35725D01*
X89936Y-35725D01*
X86548Y-40447D02*
X87139Y-40250D01*
X86548Y-40053D01*
X87139Y-39856D02*
X86548Y-39856D01*
X86548Y-39716D01*
X86576Y-39631D01*
X86632Y-39575D01*
X86689Y-39547D01*
X86801Y-39519D01*
X86885Y-39519D01*
X86998Y-39547D01*
X87054Y-39575D01*
X87110Y-39631D01*
X87139Y-39716D01*
X87139Y-39856D01*
X87139Y-39266D02*
X86548Y-39266D01*
X86548Y-39125D01*
X86576Y-39041D01*
X86632Y-38985D01*
X86689Y-38956D01*
X86801Y-38928D01*
X86885Y-38928D01*
X86998Y-38956D01*
X87054Y-38985D01*
X87110Y-39041D01*
X87139Y-39125D01*
X87139Y-39266D01*
X87493Y-39772D02*
X87493Y-40053D01*
X87774Y-40081D01*
X87746Y-40053D01*
X87718Y-39997D01*
X87718Y-39856D01*
X87746Y-39800D01*
X87774Y-39772D01*
X87830Y-39744D01*
X87971Y-39744D01*
X88027Y-39772D01*
X88055Y-39800D01*
X88083Y-39856D01*
X88083Y-39997D01*
X88055Y-40053D01*
X88027Y-40081D01*
X87493Y-39575D02*
X88083Y-39378D01*
X87493Y-39181D01*
X88438Y-40531D02*
X88438Y-40166D01*
X88663Y-40363D01*
X88663Y-40278D01*
X88691Y-40222D01*
X88719Y-40194D01*
X88775Y-40166D01*
X88916Y-40166D01*
X88972Y-40194D01*
X89000Y-40222D01*
X89028Y-40278D01*
X89028Y-40447D01*
X89000Y-40503D01*
X88972Y-40531D01*
X88972Y-39913D02*
X89000Y-39884D01*
X89028Y-39913D01*
X89000Y-39941D01*
X88972Y-39913D01*
X89028Y-39913D01*
X88438Y-39688D02*
X88438Y-39322D01*
X88663Y-39519D01*
X88663Y-39435D01*
X88691Y-39378D01*
X88719Y-39350D01*
X88775Y-39322D01*
X88916Y-39322D01*
X88972Y-39350D01*
X89000Y-39378D01*
X89028Y-39435D01*
X89028Y-39603D01*
X89000Y-39660D01*
X88972Y-39688D01*
X88438Y-39153D02*
X89028Y-38956D01*
X88438Y-38760D01*
X89388Y-52009D02*
X89191Y-51727D01*
X89051Y-52009D02*
X89051Y-51418D01*
X89276Y-51418D01*
X89332Y-51446D01*
X89360Y-51474D01*
X89388Y-51530D01*
X89388Y-51615D01*
X89360Y-51671D01*
X89332Y-51699D01*
X89276Y-51727D01*
X89051Y-51727D01*
X89866Y-51980D02*
X89810Y-52009D01*
X89698Y-52009D01*
X89641Y-51980D01*
X89613Y-51924D01*
X89613Y-51699D01*
X89641Y-51643D01*
X89698Y-51615D01*
X89810Y-51615D01*
X89866Y-51643D01*
X89895Y-51699D01*
X89895Y-51755D01*
X89613Y-51812D01*
X90120Y-51980D02*
X90176Y-52009D01*
X90288Y-52009D01*
X90344Y-51980D01*
X90373Y-51924D01*
X90373Y-51896D01*
X90344Y-51840D01*
X90288Y-51812D01*
X90204Y-51812D01*
X90148Y-51784D01*
X90120Y-51727D01*
X90120Y-51699D01*
X90148Y-51643D01*
X90204Y-51615D01*
X90288Y-51615D01*
X90344Y-51643D01*
X90851Y-51980D02*
X90794Y-52009D01*
X90682Y-52009D01*
X90626Y-51980D01*
X90598Y-51924D01*
X90598Y-51699D01*
X90626Y-51643D01*
X90682Y-51615D01*
X90794Y-51615D01*
X90851Y-51643D01*
X90879Y-51699D01*
X90879Y-51755D01*
X90598Y-51812D01*
X91048Y-51615D02*
X91272Y-51615D01*
X91132Y-51418D02*
X91132Y-51924D01*
X91160Y-51980D01*
X91216Y-52009D01*
X91272Y-52009D01*
X92129Y-56128D02*
X92241Y-56128D01*
X92298Y-56156D01*
X92354Y-56212D01*
X92382Y-56325D01*
X92382Y-56522D01*
X92354Y-56634D01*
X92298Y-56690D01*
X92241Y-56719D01*
X92129Y-56719D01*
X92073Y-56690D01*
X92016Y-56634D01*
X91988Y-56522D01*
X91988Y-56325D01*
X92016Y-56212D01*
X92073Y-56156D01*
X92129Y-56128D01*
X92635Y-56128D02*
X92635Y-56606D01*
X92663Y-56662D01*
X92691Y-56690D01*
X92748Y-56719D01*
X92860Y-56719D01*
X92916Y-56690D01*
X92944Y-56662D01*
X92973Y-56606D01*
X92973Y-56128D01*
X93169Y-56128D02*
X93507Y-56128D01*
X93338Y-56719D02*
X93338Y-56128D01*
X92410Y-57663D02*
X92410Y-57073D01*
X92691Y-57663D02*
X92691Y-57073D01*
X93029Y-57663D01*
X93029Y-57073D01*
X92270Y-58046D02*
X92213Y-58018D01*
X92129Y-58018D01*
X92045Y-58046D01*
X91988Y-58102D01*
X91960Y-58158D01*
X91932Y-58271D01*
X91932Y-58355D01*
X91960Y-58468D01*
X91988Y-58524D01*
X92045Y-58580D01*
X92129Y-58608D01*
X92185Y-58608D01*
X92270Y-58580D01*
X92298Y-58552D01*
X92298Y-58355D01*
X92185Y-58355D01*
X92551Y-58608D02*
X92551Y-58018D01*
X92888Y-58608D01*
X92888Y-58018D01*
X93169Y-58608D02*
X93169Y-58018D01*
X93310Y-58018D01*
X93394Y-58046D01*
X93451Y-58102D01*
X93479Y-58158D01*
X93507Y-58271D01*
X93507Y-58355D01*
X93479Y-58468D01*
X93451Y-58524D01*
X93394Y-58580D01*
X93310Y-58608D01*
X93169Y-58608D01*
X89832Y-60380D02*
X89916Y-60409D01*
X90057Y-60409D01*
X90113Y-60380D01*
X90141Y-60352D01*
X90169Y-60296D01*
X90169Y-60240D01*
X90141Y-60184D01*
X90113Y-60155D01*
X90057Y-60127D01*
X89944Y-60099D01*
X89888Y-60071D01*
X89860Y-60043D01*
X89832Y-59987D01*
X89832Y-59930D01*
X89860Y-59874D01*
X89888Y-59846D01*
X89944Y-59818D01*
X90085Y-59818D01*
X90169Y-59846D01*
X90366Y-60015D02*
X90479Y-60409D01*
X90591Y-60127D01*
X90704Y-60409D01*
X90816Y-60015D01*
X91041Y-60409D02*
X91041Y-60015D01*
X91041Y-59818D02*
X91013Y-59846D01*
X91041Y-59874D01*
X91069Y-59846D01*
X91041Y-59818D01*
X91041Y-59874D01*
X91238Y-60015D02*
X91463Y-60015D01*
X91322Y-59818D02*
X91322Y-60324D01*
X91350Y-60380D01*
X91407Y-60409D01*
X91463Y-60409D01*
X91913Y-60380D02*
X91857Y-60409D01*
X91744Y-60409D01*
X91688Y-60380D01*
X91660Y-60352D01*
X91632Y-60296D01*
X91632Y-60127D01*
X91660Y-60071D01*
X91688Y-60043D01*
X91744Y-60015D01*
X91857Y-60015D01*
X91913Y-60043D01*
X92166Y-60409D02*
X92166Y-59818D01*
X92419Y-60409D02*
X92419Y-60099D01*
X92391Y-60043D01*
X92335Y-60015D01*
X92250Y-60015D01*
X92194Y-60043D01*
X92166Y-60071D01*
X85340Y-56136D02*
X85283Y-56108D01*
X85199Y-56108D01*
X85115Y-56136D01*
X85058Y-56192D01*
X85030Y-56249D01*
X85002Y-56361D01*
X85002Y-56445D01*
X85030Y-56558D01*
X85058Y-56614D01*
X85115Y-56670D01*
X85199Y-56699D01*
X85255Y-56699D01*
X85340Y-56670D01*
X85368Y-56642D01*
X85368Y-56445D01*
X85255Y-56445D01*
X85621Y-56699D02*
X85621Y-56108D01*
X85958Y-56699D01*
X85958Y-56108D01*
X86239Y-56699D02*
X86239Y-56108D01*
X86380Y-56108D01*
X86464Y-56136D01*
X86521Y-56192D01*
X86549Y-56249D01*
X86577Y-56361D01*
X86577Y-56445D01*
X86549Y-56558D01*
X86521Y-56614D01*
X86464Y-56670D01*
X86380Y-56699D01*
X86239Y-56699D01*
X85283Y-57418D02*
X85733Y-57418D01*
X85508Y-57643D02*
X85508Y-57193D01*
X86296Y-57053D02*
X86014Y-57053D01*
X85986Y-57334D01*
X86014Y-57306D01*
X86071Y-57278D01*
X86211Y-57278D01*
X86268Y-57306D01*
X86296Y-57334D01*
X86324Y-57390D01*
X86324Y-57531D01*
X86296Y-57587D01*
X86268Y-57615D01*
X86211Y-57643D01*
X86071Y-57643D01*
X86014Y-57615D01*
X85986Y-57587D01*
X86362Y-55339D02*
X86362Y-54748D01*
X86587Y-54748D01*
X86644Y-54776D01*
X86672Y-54804D01*
X86700Y-54860D01*
X86700Y-54945D01*
X86672Y-55001D01*
X86644Y-55029D01*
X86587Y-55057D01*
X86362Y-55057D01*
X87037Y-55339D02*
X86981Y-55310D01*
X86953Y-55282D01*
X86925Y-55226D01*
X86925Y-55057D01*
X86953Y-55001D01*
X86981Y-54973D01*
X87037Y-54945D01*
X87122Y-54945D01*
X87178Y-54973D01*
X87206Y-55001D01*
X87234Y-55057D01*
X87234Y-55226D01*
X87206Y-55282D01*
X87178Y-55310D01*
X87122Y-55339D01*
X87037Y-55339D01*
X87431Y-54945D02*
X87544Y-55339D01*
X87656Y-55057D01*
X87769Y-55339D01*
X87881Y-54945D01*
X88331Y-55310D02*
X88275Y-55339D01*
X88162Y-55339D01*
X88106Y-55310D01*
X88078Y-55254D01*
X88078Y-55029D01*
X88106Y-54973D01*
X88162Y-54945D01*
X88275Y-54945D01*
X88331Y-54973D01*
X88359Y-55029D01*
X88359Y-55085D01*
X88078Y-55142D01*
X88612Y-55339D02*
X88612Y-54945D01*
X88612Y-55057D02*
X88640Y-55001D01*
X88668Y-54973D01*
X88725Y-54945D01*
X88781Y-54945D01*
G54D13*
X40000Y-35000D02*
X43000Y-35000D01*
X40000Y-80000D02*
X40000Y-35000D01*
X94000Y-80000D02*
X40000Y-80000D01*
X94000Y-35000D02*
X94000Y-80000D01*
X42000Y-35000D02*
X94000Y-35000D01*
G54D14*
X66551Y-47007D02*
X105551Y-47007D01*
X67051Y-68007D02*
X105551Y-68007D01*
X66551Y-63007D02*
X66551Y-67507D01*
X66551Y-67507D02*
X67051Y-68007D01*
X105551Y-47007D02*
X105551Y-68007D01*
X66551Y-63007D02*
X65551Y-62007D01*
X65551Y-62007D02*
X65551Y-49007D01*
X65551Y-49007D02*
X66551Y-48007D01*
X66551Y-48007D02*
X66551Y-47007D01*
X85874Y-36927D02*
X85874Y-36677D01*
X85874Y-36677D02*
X89874Y-36677D01*
X89874Y-36677D02*
X89874Y-36927D01*
X85874Y-38427D02*
X85874Y-36927D01*
X85874Y-36927D02*
X89874Y-36927D01*
X89874Y-36927D02*
X89874Y-38427D01*
X89874Y-38427D02*
X85874Y-38427D01*
G54D10*
X49527Y-38267D02*
X49527Y-38661D01*
X49527Y-38661D02*
X50472Y-38661D01*
X50472Y-38661D02*
X50472Y-38267D01*
G54D12*
X46000Y-38228D02*
X46000Y-41771D01*
X54000Y-38228D02*
X54000Y-41771D01*
X46000Y-38228D02*
X54000Y-38228D01*
X46000Y-41771D02*
X54000Y-41771D01*
G54D10*
X49527Y-58267D02*
X49527Y-58661D01*
X49527Y-58661D02*
X50472Y-58661D01*
X50472Y-58661D02*
X50472Y-58267D01*
G54D12*
X46000Y-58228D02*
X46000Y-61771D01*
X54000Y-58228D02*
X54000Y-61771D01*
X46000Y-58228D02*
X54000Y-58228D01*
X46000Y-61771D02*
X54000Y-61771D01*
G54D10*
X49527Y-43267D02*
X49527Y-43661D01*
X49527Y-43661D02*
X50472Y-43661D01*
X50472Y-43661D02*
X50472Y-43267D01*
G54D12*
X46000Y-43228D02*
X46000Y-46771D01*
X54000Y-43228D02*
X54000Y-46771D01*
X46000Y-43228D02*
X54000Y-43228D01*
X46000Y-46771D02*
X54000Y-46771D01*
G54D10*
X49527Y-63267D02*
X49527Y-63661D01*
X49527Y-63661D02*
X50472Y-63661D01*
X50472Y-63661D02*
X50472Y-63267D01*
G54D12*
X46000Y-63228D02*
X46000Y-66771D01*
X54000Y-63228D02*
X54000Y-66771D01*
X46000Y-63228D02*
X54000Y-63228D01*
X46000Y-66771D02*
X54000Y-66771D01*
G54D10*
X49527Y-48267D02*
X49527Y-48661D01*
X49527Y-48661D02*
X50472Y-48661D01*
X50472Y-48661D02*
X50472Y-48267D01*
G54D12*
X46000Y-48228D02*
X46000Y-51771D01*
X54000Y-48228D02*
X54000Y-51771D01*
X46000Y-48228D02*
X54000Y-48228D01*
X46000Y-51771D02*
X54000Y-51771D01*
G54D10*
X49527Y-68267D02*
X49527Y-68661D01*
X49527Y-68661D02*
X50472Y-68661D01*
X50472Y-68661D02*
X50472Y-68267D01*
G54D12*
X46000Y-68228D02*
X46000Y-71771D01*
X54000Y-68228D02*
X54000Y-71771D01*
X46000Y-68228D02*
X54000Y-68228D01*
X46000Y-71771D02*
X54000Y-71771D01*
G54D10*
X49527Y-53267D02*
X49527Y-53661D01*
X49527Y-53661D02*
X50472Y-53661D01*
X50472Y-53661D02*
X50472Y-53267D01*
G54D12*
X46000Y-53228D02*
X46000Y-56771D01*
X54000Y-53228D02*
X54000Y-56771D01*
X46000Y-53228D02*
X54000Y-53228D01*
X46000Y-56771D02*
X54000Y-56771D01*
G54D10*
X49527Y-73267D02*
X49527Y-73661D01*
X49527Y-73661D02*
X50472Y-73661D01*
X50472Y-73661D02*
X50472Y-73267D01*
G54D12*
X46000Y-73228D02*
X46000Y-76771D01*
X54000Y-73228D02*
X54000Y-76771D01*
X46000Y-73228D02*
X54000Y-73228D01*
X46000Y-76771D02*
X54000Y-76771D01*
G54D15*
X90602Y-55901D02*
X91602Y-55901D01*
X91602Y-55901D02*
X91602Y-58901D01*
X91602Y-58901D02*
X90602Y-58901D01*
X90602Y-58901D02*
X90602Y-55901D01*
X91602Y-56901D02*
X90602Y-56901D01*
X88098Y-57889D02*
X87098Y-57889D01*
X87098Y-57889D02*
X87098Y-55889D01*
X87098Y-55889D02*
X88098Y-55889D01*
X88098Y-55889D02*
X88098Y-57889D01*
X91118Y-49893D02*
X91118Y-50893D01*
X91118Y-50893D02*
X89118Y-50893D01*
X89118Y-50893D02*
X89118Y-49893D01*
X89118Y-49893D02*
X91118Y-49893D01*
G54D16*
X89365Y-45421D02*
X87385Y-45421D01*
X87385Y-45421D02*
X87385Y-44421D01*
X87385Y-44421D02*
X89385Y-44421D01*
X89385Y-44421D02*
X89385Y-45421D01*
X89385Y-45171D02*
X89135Y-45421D01*
X81129Y-37248D02*
X81129Y-39228D01*
X81129Y-39228D02*
X80129Y-39228D01*
X80129Y-39228D02*
X80129Y-37228D01*
X80129Y-37228D02*
X81129Y-37228D01*
X80879Y-37228D02*
X81129Y-37478D01*
M02*
