G04 (created by PCBNEW (2013-07-07 BZR 4022)-stable) date 9/29/2015 7:05:24 PM*
%MOIN*%
G04 Gerber Fmt 3.4, Leading zero omitted, Abs format*
%FSLAX34Y34*%
G01*
G70*
G90*
G04 APERTURE LIST*
%ADD10C,0.00590551*%
%ADD11C,0.1*%
%ADD12C,0.00393701*%
G04 APERTURE END LIST*
G54D10*
G54D11*
X74785Y-64023D02*
X74785Y-59023D01*
X73119Y-62595D01*
X71452Y-59023D01*
X71452Y-64023D01*
X66928Y-64023D02*
X66928Y-61404D01*
X67166Y-60928D01*
X67642Y-60690D01*
X68595Y-60690D01*
X69071Y-60928D01*
X66928Y-63785D02*
X67404Y-64023D01*
X68595Y-64023D01*
X69071Y-63785D01*
X69309Y-63309D01*
X69309Y-62833D01*
X69071Y-62357D01*
X68595Y-62119D01*
X67404Y-62119D01*
X66928Y-61880D01*
X62404Y-60690D02*
X62404Y-64738D01*
X62642Y-65214D01*
X62880Y-65452D01*
X63357Y-65690D01*
X64071Y-65690D01*
X64547Y-65452D01*
X62404Y-63785D02*
X62880Y-64023D01*
X63833Y-64023D01*
X64309Y-63785D01*
X64547Y-63547D01*
X64785Y-63071D01*
X64785Y-61642D01*
X64547Y-61166D01*
X64309Y-60928D01*
X63833Y-60690D01*
X62880Y-60690D01*
X62404Y-60928D01*
X57880Y-60690D02*
X57880Y-64738D01*
X58119Y-65214D01*
X58357Y-65452D01*
X58833Y-65690D01*
X59547Y-65690D01*
X60023Y-65452D01*
X57880Y-63785D02*
X58357Y-64023D01*
X59309Y-64023D01*
X59785Y-63785D01*
X60023Y-63547D01*
X60261Y-63071D01*
X60261Y-61642D01*
X60023Y-61166D01*
X59785Y-60928D01*
X59309Y-60690D01*
X58357Y-60690D01*
X57880Y-60928D01*
X55499Y-64023D02*
X55499Y-60690D01*
X55499Y-59023D02*
X55738Y-59261D01*
X55499Y-59500D01*
X55261Y-59261D01*
X55499Y-59023D01*
X55499Y-59500D01*
X51214Y-63785D02*
X51690Y-64023D01*
X52642Y-64023D01*
X53119Y-63785D01*
X53357Y-63309D01*
X53357Y-61404D01*
X53119Y-60928D01*
X52642Y-60690D01*
X51690Y-60690D01*
X51214Y-60928D01*
X50976Y-61404D01*
X50976Y-61880D01*
X53357Y-62357D01*
X85309Y-49023D02*
X85309Y-52595D01*
X85547Y-53309D01*
X86023Y-53785D01*
X86738Y-54023D01*
X87214Y-54023D01*
X82928Y-54023D02*
X82928Y-49023D01*
X78166Y-54023D02*
X80547Y-54023D01*
X80547Y-49023D01*
X76738Y-52595D02*
X74357Y-52595D01*
X77214Y-54023D02*
X75547Y-49023D01*
X73880Y-54023D01*
X66500Y-53785D02*
X66976Y-54023D01*
X67928Y-54023D01*
X68404Y-53785D01*
X68642Y-53309D01*
X68642Y-51404D01*
X68404Y-50928D01*
X67928Y-50690D01*
X66976Y-50690D01*
X66500Y-50928D01*
X66261Y-51404D01*
X66261Y-51880D01*
X68642Y-52357D01*
X64119Y-51404D02*
X62452Y-51404D01*
X61738Y-54023D02*
X64119Y-54023D01*
X64119Y-49023D01*
X61738Y-49023D01*
X59595Y-54023D02*
X59595Y-49023D01*
X58404Y-49023D01*
X57690Y-49261D01*
X57214Y-49738D01*
X56976Y-50214D01*
X56738Y-51166D01*
X56738Y-51880D01*
X56976Y-52833D01*
X57214Y-53309D01*
X57690Y-53785D01*
X58404Y-54023D01*
X59595Y-54023D01*
X54595Y-54023D02*
X54595Y-49023D01*
X52928Y-52595D01*
X51261Y-49023D01*
X51261Y-54023D01*
G54D12*
X40000Y-35000D02*
X43000Y-35000D01*
X40000Y-80000D02*
X40000Y-35000D01*
X94000Y-80000D02*
X40000Y-80000D01*
X94000Y-35000D02*
X94000Y-80000D01*
X42000Y-35000D02*
X94000Y-35000D01*
M02*
