M48
;DRILL file {Pcbnew (2013-07-07 BZR 4022)-stable} date 9/29/2015 7:05:29 PM
;FORMAT={-:-/ absolute / inch / decimal}
FMAT,2
INCH,TZ
T1C0.025
T2C0.032
T3C0.040
%
G90
G05
M72
T1
X4.67Y-6.072
X4.671Y-5.066
X4.671Y-5.592
X4.678Y-4.052
X4.678Y-4.564
X4.689Y-6.563
X4.689Y-7.067
T2
X6.7551Y-5.0008
X6.7551Y-5.1008
X6.7551Y-5.2008
X6.7551Y-5.3008
X6.7551Y-5.4008
X6.7551Y-5.5008
X6.7551Y-5.6008
X6.7551Y-5.7008
X6.7551Y-5.8008
X6.7551Y-5.9008
X6.7551Y-6.0008
X6.7551Y-6.1008
X6.7551Y-6.2008
X6.7551Y-6.3008
X6.7551Y-6.4008
X6.7551Y-6.5008
X6.7551Y-6.6008
X6.7551Y-6.7008
X6.8551Y-5.0008
X6.8551Y-5.1008
X6.8551Y-5.2008
X6.8551Y-5.3008
X6.8551Y-5.4008
X6.8551Y-5.5008
X6.8551Y-5.6008
X6.8551Y-5.7008
X6.8551Y-5.8008
X6.8551Y-5.9008
X6.8551Y-6.0008
X6.8551Y-6.1008
X6.8551Y-6.2008
X6.8551Y-6.3008
X6.8551Y-6.4008
X6.8551Y-6.5008
X6.8551Y-6.6008
X6.8551Y-6.7008
X6.9551Y-4.8008
X7.0551Y-4.8008
X7.1551Y-4.8008
X7.1551Y-6.7008
X7.2551Y-4.8008
X7.2551Y-6.7008
X7.3551Y-4.8008
X7.3551Y-6.7008
X7.4551Y-4.8008
X7.4551Y-6.7008
X7.5551Y-4.8008
X7.5551Y-6.7008
X7.6551Y-4.8008
X7.6551Y-6.7008
X7.7551Y-6.7008
X7.8551Y-4.8008
X7.8551Y-6.7008
X7.9551Y-4.8008
X8.0551Y-4.8008
X8.0551Y-6.7008
X8.063Y-3.7728
X8.063Y-3.8728
X8.1551Y-4.8008
X8.1551Y-6.7008
X8.2551Y-4.8008
X8.2551Y-6.7008
X8.3551Y-4.8008
X8.3551Y-6.7008
X8.4551Y-4.8008
X8.4551Y-6.7008
X8.5551Y-4.8008
X8.5551Y-6.7008
X8.6551Y-6.7008
X8.7551Y-4.8008
X8.7551Y-6.7008
X8.7886Y-4.4921
X8.8551Y-4.8008
X8.8886Y-4.4921
X8.9151Y-6.7008
X8.9551Y-4.8008
X9.0151Y-6.7008
X9.0551Y-4.8008
X9.1151Y-6.7008
X9.1551Y-4.8008
X9.2151Y-6.7008
X9.2551Y-4.8008
X9.3151Y-6.7008
T3
X4.8Y-3.95
X4.8Y-4.05
X4.8Y-4.45
X4.8Y-4.55
X4.8Y-4.95
X4.8Y-5.05
X4.8Y-5.45
X4.8Y-5.55
X4.8Y-5.95
X4.8Y-6.05
X4.8Y-6.45
X4.8Y-6.55
X4.8Y-6.95
X4.8Y-7.05
X4.8Y-7.45
X4.8Y-7.55
X4.9Y-3.95
X4.9Y-4.05
X4.9Y-4.45
X4.9Y-4.55
X4.9Y-4.95
X4.9Y-5.05
X4.9Y-5.45
X4.9Y-5.55
X4.9Y-5.95
X4.9Y-6.05
X4.9Y-6.45
X4.9Y-6.55
X4.9Y-6.95
X4.9Y-7.05
X4.9Y-7.45
X4.9Y-7.55
X5.Y-3.95
X5.Y-4.05
X5.Y-4.45
X5.Y-4.55
X5.Y-4.95
X5.Y-5.05
X5.Y-5.45
X5.Y-5.55
X5.Y-5.95
X5.Y-6.05
X5.Y-6.45
X5.Y-6.55
X5.Y-6.95
X5.Y-7.05
X5.Y-7.45
X5.Y-7.55
X5.1Y-3.95
X5.1Y-4.05
X5.1Y-4.45
X5.1Y-4.55
X5.1Y-4.95
X5.1Y-5.05
X5.1Y-5.45
X5.1Y-5.55
X5.1Y-5.95
X5.1Y-6.05
X5.1Y-6.45
X5.1Y-6.55
X5.1Y-6.95
X5.1Y-7.05
X5.1Y-7.45
X5.1Y-7.55
X5.2Y-4.05
X5.2Y-4.55
X5.2Y-5.05
X5.2Y-5.55
X5.2Y-6.05
X5.2Y-6.55
X5.2Y-7.05
X5.2Y-7.55
X8.6874Y-3.7677
X8.7598Y-5.639
X8.7598Y-5.739
X8.7874Y-3.7677
X8.8874Y-3.7677
X8.9618Y-5.0394
X9.0618Y-5.0394
X9.1102Y-5.6402
X9.1102Y-5.7402
X9.1102Y-5.8402
T0
M30
