G04 (created by PCBNEW (2013-07-07 BZR 4022)-stable) date 8/17/2015 4:18:57 PM*
%MOIN*%
G04 Gerber Fmt 3.4, Leading zero omitted, Abs format*
%FSLAX34Y34*%
G01*
G70*
G90*
G04 APERTURE LIST*
%ADD10C,0.00590551*%
%ADD11C,0.011811*%
%ADD12C,0.008*%
%ADD13C,0.015*%
G04 APERTURE END LIST*
G54D10*
G54D11*
X101827Y-48593D02*
X101895Y-48616D01*
X102007Y-48616D01*
X102052Y-48593D01*
X102075Y-48571D01*
X102097Y-48526D01*
X102097Y-48481D01*
X102075Y-48436D01*
X102052Y-48413D01*
X102007Y-48391D01*
X101917Y-48368D01*
X101872Y-48346D01*
X101850Y-48323D01*
X101827Y-48278D01*
X101827Y-48233D01*
X101850Y-48188D01*
X101872Y-48166D01*
X101917Y-48143D01*
X102030Y-48143D01*
X102097Y-48166D01*
X102300Y-48616D02*
X102300Y-48143D01*
X102412Y-48143D01*
X102480Y-48166D01*
X102525Y-48211D01*
X102547Y-48256D01*
X102570Y-48346D01*
X102570Y-48413D01*
X102547Y-48503D01*
X102525Y-48548D01*
X102480Y-48593D01*
X102412Y-48616D01*
X102300Y-48616D01*
X102750Y-48481D02*
X102975Y-48481D01*
X102705Y-48616D02*
X102862Y-48143D01*
X103020Y-48616D01*
X100191Y-48166D02*
X100146Y-48143D01*
X100078Y-48143D01*
X100011Y-48166D01*
X99966Y-48211D01*
X99943Y-48256D01*
X99921Y-48346D01*
X99921Y-48413D01*
X99943Y-48503D01*
X99966Y-48548D01*
X100011Y-48593D01*
X100078Y-48616D01*
X100123Y-48616D01*
X100191Y-48593D01*
X100213Y-48571D01*
X100213Y-48413D01*
X100123Y-48413D01*
X100416Y-48616D02*
X100416Y-48143D01*
X100686Y-48616D01*
X100686Y-48143D01*
X100911Y-48616D02*
X100911Y-48143D01*
X101023Y-48143D01*
X101091Y-48166D01*
X101136Y-48211D01*
X101158Y-48256D01*
X101181Y-48346D01*
X101181Y-48413D01*
X101158Y-48503D01*
X101136Y-48548D01*
X101091Y-48593D01*
X101023Y-48616D01*
X100911Y-48616D01*
X97688Y-48143D02*
X97958Y-48143D01*
X97823Y-48616D02*
X97823Y-48143D01*
X98115Y-48368D02*
X98273Y-48368D01*
X98340Y-48616D02*
X98115Y-48616D01*
X98115Y-48143D01*
X98340Y-48143D01*
X98543Y-48616D02*
X98543Y-48143D01*
X98700Y-48481D01*
X98858Y-48143D01*
X98858Y-48616D01*
X99083Y-48616D02*
X99083Y-48143D01*
X99263Y-48143D01*
X99308Y-48166D01*
X99330Y-48188D01*
X99353Y-48233D01*
X99353Y-48301D01*
X99330Y-48346D01*
X99308Y-48368D01*
X99263Y-48391D01*
X99083Y-48391D01*
X95826Y-48143D02*
X95984Y-48616D01*
X96141Y-48143D01*
X96299Y-48616D02*
X96299Y-48143D01*
X96411Y-48143D01*
X96479Y-48166D01*
X96524Y-48211D01*
X96546Y-48256D01*
X96569Y-48346D01*
X96569Y-48413D01*
X96546Y-48503D01*
X96524Y-48548D01*
X96479Y-48593D01*
X96411Y-48616D01*
X96299Y-48616D01*
X96771Y-48616D02*
X96771Y-48143D01*
X96884Y-48143D01*
X96951Y-48166D01*
X96996Y-48211D01*
X97019Y-48256D01*
X97041Y-48346D01*
X97041Y-48413D01*
X97019Y-48503D01*
X96996Y-48548D01*
X96951Y-48593D01*
X96884Y-48616D01*
X96771Y-48616D01*
X93925Y-48593D02*
X93993Y-48616D01*
X94105Y-48616D01*
X94150Y-48593D01*
X94173Y-48571D01*
X94195Y-48526D01*
X94195Y-48481D01*
X94173Y-48436D01*
X94150Y-48413D01*
X94105Y-48391D01*
X94015Y-48368D01*
X93970Y-48346D01*
X93948Y-48323D01*
X93925Y-48278D01*
X93925Y-48233D01*
X93948Y-48188D01*
X93970Y-48166D01*
X94015Y-48143D01*
X94128Y-48143D01*
X94195Y-48166D01*
X94668Y-48571D02*
X94645Y-48593D01*
X94578Y-48616D01*
X94533Y-48616D01*
X94465Y-48593D01*
X94420Y-48548D01*
X94398Y-48503D01*
X94375Y-48413D01*
X94375Y-48346D01*
X94398Y-48256D01*
X94420Y-48211D01*
X94465Y-48166D01*
X94533Y-48143D01*
X94578Y-48143D01*
X94645Y-48166D01*
X94668Y-48188D01*
X95095Y-48616D02*
X94870Y-48616D01*
X94870Y-48143D01*
G54D12*
X98893Y-45275D02*
X99093Y-45275D01*
X101893Y-45275D02*
X101693Y-45275D01*
X101693Y-45275D02*
X101693Y-44875D01*
X101693Y-44875D02*
X99093Y-44875D01*
X99093Y-44875D02*
X99093Y-45675D01*
X99093Y-45675D02*
X101693Y-45675D01*
X101693Y-45675D02*
X101693Y-45275D01*
X99093Y-45075D02*
X99293Y-44875D01*
G54D13*
X95956Y-45275D02*
X96956Y-45275D01*
X96515Y-45275D02*
G75*
G03X96515Y-45275I-559J0D01*
G74*
G01*
G54D10*
X95511Y-39960D02*
X95511Y-40000D01*
X101338Y-39921D02*
X101338Y-40000D01*
X95511Y-40000D02*
X101338Y-40000D01*
X95511Y-33818D02*
X101338Y-33818D01*
X101338Y-33822D02*
X101338Y-39952D01*
X95511Y-39952D02*
X95511Y-33822D01*
X97834Y-38779D02*
X99015Y-38779D01*
X99015Y-38779D02*
X99015Y-39960D01*
X99015Y-39960D02*
X97834Y-39960D01*
X97834Y-39960D02*
X97834Y-38779D01*
X97834Y-38779D02*
X97834Y-38976D01*
G54D12*
X99747Y-43885D02*
X100056Y-43885D01*
X99890Y-44094D01*
X99961Y-44094D01*
X100009Y-44120D01*
X100032Y-44147D01*
X100056Y-44199D01*
X100056Y-44330D01*
X100032Y-44382D01*
X100009Y-44409D01*
X99961Y-44435D01*
X99818Y-44435D01*
X99770Y-44409D01*
X99747Y-44382D01*
X100366Y-43885D02*
X100413Y-43885D01*
X100461Y-43911D01*
X100485Y-43937D01*
X100509Y-43989D01*
X100532Y-44094D01*
X100532Y-44225D01*
X100509Y-44330D01*
X100485Y-44382D01*
X100461Y-44409D01*
X100413Y-44435D01*
X100366Y-44435D01*
X100318Y-44409D01*
X100294Y-44382D01*
X100270Y-44330D01*
X100247Y-44225D01*
X100247Y-44094D01*
X100270Y-43989D01*
X100294Y-43937D01*
X100318Y-43911D01*
X100366Y-43885D01*
X100747Y-44435D02*
X100747Y-43885D01*
X100794Y-44225D02*
X100937Y-44435D01*
X100937Y-44068D02*
X100747Y-44278D01*
X94343Y-43806D02*
X94628Y-43806D01*
X94486Y-44356D02*
X94486Y-43806D01*
X94795Y-44356D02*
X94795Y-43806D01*
X95009Y-44356D02*
X95009Y-44068D01*
X94986Y-44016D01*
X94938Y-43989D01*
X94866Y-43989D01*
X94819Y-44016D01*
X94795Y-44042D01*
X95438Y-44330D02*
X95390Y-44356D01*
X95295Y-44356D01*
X95247Y-44330D01*
X95224Y-44277D01*
X95224Y-44068D01*
X95247Y-44016D01*
X95295Y-43989D01*
X95390Y-43989D01*
X95438Y-44016D01*
X95462Y-44068D01*
X95462Y-44120D01*
X95224Y-44173D01*
X95676Y-44356D02*
X95676Y-43989D01*
X95676Y-44094D02*
X95700Y-44042D01*
X95724Y-44016D01*
X95771Y-43989D01*
X95819Y-43989D01*
X95986Y-44356D02*
X95986Y-43989D01*
X95986Y-44042D02*
X96009Y-44016D01*
X96057Y-43989D01*
X96128Y-43989D01*
X96176Y-44016D01*
X96200Y-44068D01*
X96200Y-44356D01*
X96200Y-44068D02*
X96224Y-44016D01*
X96271Y-43989D01*
X96343Y-43989D01*
X96390Y-44016D01*
X96414Y-44068D01*
X96414Y-44356D01*
X96652Y-44356D02*
X96652Y-43989D01*
X96652Y-43806D02*
X96628Y-43832D01*
X96652Y-43858D01*
X96676Y-43832D01*
X96652Y-43806D01*
X96652Y-43858D01*
X96866Y-44330D02*
X96914Y-44356D01*
X97009Y-44356D01*
X97057Y-44330D01*
X97081Y-44277D01*
X97081Y-44251D01*
X97057Y-44199D01*
X97009Y-44173D01*
X96938Y-44173D01*
X96890Y-44146D01*
X96866Y-44094D01*
X96866Y-44068D01*
X96890Y-44016D01*
X96938Y-43989D01*
X97009Y-43989D01*
X97057Y-44016D01*
X97224Y-43989D02*
X97414Y-43989D01*
X97295Y-43806D02*
X97295Y-44277D01*
X97319Y-44330D01*
X97366Y-44356D01*
X97414Y-44356D01*
X97652Y-44356D02*
X97605Y-44330D01*
X97581Y-44304D01*
X97557Y-44251D01*
X97557Y-44094D01*
X97581Y-44042D01*
X97605Y-44016D01*
X97652Y-43989D01*
X97724Y-43989D01*
X97771Y-44016D01*
X97795Y-44042D01*
X97819Y-44094D01*
X97819Y-44251D01*
X97795Y-44304D01*
X97771Y-44330D01*
X97724Y-44356D01*
X97652Y-44356D01*
X98033Y-44356D02*
X98033Y-43989D01*
X98033Y-44094D02*
X98057Y-44042D01*
X98081Y-44016D01*
X98128Y-43989D01*
X98176Y-43989D01*
M02*
