G04 (created by PCBNEW (2013-07-07 BZR 4022)-stable) date 8/17/2015 4:18:57 PM*
%MOIN*%
G04 Gerber Fmt 3.4, Leading zero omitted, Abs format*
%FSLAX34Y34*%
G01*
G70*
G90*
G04 APERTURE LIST*
%ADD10C,0.00590551*%
%ADD11C,0.055*%
%ADD12C,0.110236*%
%ADD13C,0.1*%
%ADD14C,0.3*%
%ADD15C,0.0354331*%
%ADD16C,0.00787402*%
G04 APERTURE END LIST*
G54D10*
G54D11*
X98893Y-45275D03*
X101893Y-45275D03*
X95956Y-45275D03*
X96956Y-45275D03*
G54D12*
X98425Y-37401D03*
X100393Y-37401D03*
X96456Y-37401D03*
X96456Y-39370D03*
G54D13*
X94488Y-47244D03*
X96456Y-47244D03*
X98425Y-47244D03*
X100393Y-47244D03*
X102362Y-47244D03*
G54D14*
X93425Y-51181D03*
X103425Y-51181D03*
X93425Y-27559D03*
X103425Y-27559D03*
G54D15*
X98421Y-45275D02*
X98421Y-47240D01*
X98421Y-47240D02*
X98425Y-47244D01*
X96956Y-45275D02*
X98421Y-45275D01*
X98421Y-45275D02*
X98893Y-45275D01*
X101893Y-45275D02*
X101893Y-45744D01*
X101893Y-45744D02*
X100393Y-47244D01*
X100393Y-37401D02*
X100393Y-43775D01*
X100393Y-43775D02*
X101893Y-45275D01*
X96456Y-37401D02*
X95074Y-37401D01*
X95074Y-37401D02*
X94488Y-37988D01*
X94488Y-37988D02*
X94488Y-47244D01*
X98425Y-37401D02*
X98425Y-37338D01*
X103216Y-46389D02*
X102362Y-47244D01*
X103216Y-36405D02*
X103216Y-46389D01*
X102944Y-36133D02*
X103216Y-36405D01*
X99629Y-36133D02*
X102944Y-36133D01*
X98425Y-37338D02*
X99629Y-36133D01*
X95956Y-45275D02*
X95956Y-46744D01*
X95956Y-46744D02*
X96456Y-47244D01*
X96456Y-39370D02*
X96456Y-43086D01*
X95956Y-43586D02*
X95956Y-45275D01*
X96456Y-43086D02*
X95956Y-43586D01*
G54D10*
G36*
X102685Y-46169D02*
X102464Y-46389D01*
X102414Y-46389D01*
X102414Y-45338D01*
X102398Y-45134D01*
X102350Y-45018D01*
X102262Y-44992D01*
X102176Y-45078D01*
X102176Y-44907D01*
X102150Y-44818D01*
X101956Y-44754D01*
X101752Y-44770D01*
X101636Y-44818D01*
X101610Y-44907D01*
X101893Y-45189D01*
X102176Y-44907D01*
X102176Y-45078D01*
X101979Y-45275D01*
X102262Y-45558D01*
X102350Y-45532D01*
X102414Y-45338D01*
X102414Y-46389D01*
X102193Y-46389D01*
X102176Y-46396D01*
X102176Y-45644D01*
X101893Y-45361D01*
X101807Y-45447D01*
X101807Y-45275D01*
X101525Y-44992D01*
X101436Y-45018D01*
X101373Y-45212D01*
X101388Y-45416D01*
X101436Y-45532D01*
X101525Y-45558D01*
X101807Y-45275D01*
X101807Y-45447D01*
X101610Y-45644D01*
X101636Y-45732D01*
X101831Y-45796D01*
X102035Y-45780D01*
X102150Y-45732D01*
X102176Y-45644D01*
X102176Y-46396D01*
X101878Y-46519D01*
X101638Y-46759D01*
X101508Y-47073D01*
X101507Y-47413D01*
X101637Y-47727D01*
X101877Y-47967D01*
X101935Y-47992D01*
X101189Y-47992D01*
X101189Y-37530D01*
X101178Y-37215D01*
X101079Y-36978D01*
X100962Y-36918D01*
X100479Y-37401D01*
X100962Y-37884D01*
X101079Y-37824D01*
X101189Y-37530D01*
X101189Y-47992D01*
X101138Y-47992D01*
X101138Y-47360D01*
X101126Y-47066D01*
X101037Y-46851D01*
X100925Y-46798D01*
X100876Y-46846D01*
X100876Y-37970D01*
X100393Y-37487D01*
X100307Y-37573D01*
X100307Y-37401D01*
X99824Y-36918D01*
X99707Y-36978D01*
X99598Y-37272D01*
X99609Y-37587D01*
X99707Y-37824D01*
X99824Y-37884D01*
X100307Y-37401D01*
X100307Y-37573D01*
X99910Y-37970D01*
X99970Y-38087D01*
X100265Y-38197D01*
X100579Y-38185D01*
X100817Y-38087D01*
X100876Y-37970D01*
X100876Y-46846D01*
X100839Y-46883D01*
X100839Y-46712D01*
X100786Y-46600D01*
X100510Y-46499D01*
X100216Y-46511D01*
X100001Y-46600D01*
X99947Y-46712D01*
X100393Y-47158D01*
X100839Y-46712D01*
X100839Y-46883D01*
X100479Y-47244D01*
X100925Y-47690D01*
X101037Y-47636D01*
X101138Y-47360D01*
X101138Y-47992D01*
X100839Y-47992D01*
X100839Y-47775D01*
X100393Y-47329D01*
X100307Y-47415D01*
X100307Y-47244D01*
X99861Y-46798D01*
X99750Y-46851D01*
X99648Y-47127D01*
X99661Y-47421D01*
X99750Y-47636D01*
X99861Y-47690D01*
X100307Y-47244D01*
X100307Y-47415D01*
X99947Y-47775D01*
X100001Y-47887D01*
X100277Y-47988D01*
X100571Y-47976D01*
X100786Y-47887D01*
X100839Y-47775D01*
X100839Y-47992D01*
X98852Y-47992D01*
X98908Y-47968D01*
X99149Y-47728D01*
X99279Y-47414D01*
X99279Y-47074D01*
X99149Y-46760D01*
X98952Y-46563D01*
X98952Y-45904D01*
X99018Y-45905D01*
X99249Y-45809D01*
X99426Y-45632D01*
X99522Y-45401D01*
X99523Y-45150D01*
X99427Y-44919D01*
X99250Y-44742D01*
X99019Y-44646D01*
X98769Y-44646D01*
X98537Y-44741D01*
X98535Y-44744D01*
X98421Y-44744D01*
X97315Y-44744D01*
X97313Y-44742D01*
X97082Y-44646D01*
X96832Y-44646D01*
X96600Y-44741D01*
X96488Y-44854D01*
X96488Y-43806D01*
X96832Y-43462D01*
X96947Y-43290D01*
X96947Y-43290D01*
X96988Y-43086D01*
X96988Y-40300D01*
X97051Y-40274D01*
X97051Y-40885D01*
X99854Y-40885D01*
X99854Y-38192D01*
X99137Y-38192D01*
X99325Y-38004D01*
X99488Y-37613D01*
X99488Y-37191D01*
X99440Y-37075D01*
X99850Y-36665D01*
X100091Y-36665D01*
X99970Y-36715D01*
X99910Y-36832D01*
X100393Y-37315D01*
X100876Y-36832D01*
X100817Y-36715D01*
X100682Y-36665D01*
X102685Y-36665D01*
X102685Y-46169D01*
X102685Y-46169D01*
G37*
G54D16*
X102685Y-46169D02*
X102464Y-46389D01*
X102414Y-46389D01*
X102414Y-45338D01*
X102398Y-45134D01*
X102350Y-45018D01*
X102262Y-44992D01*
X102176Y-45078D01*
X102176Y-44907D01*
X102150Y-44818D01*
X101956Y-44754D01*
X101752Y-44770D01*
X101636Y-44818D01*
X101610Y-44907D01*
X101893Y-45189D01*
X102176Y-44907D01*
X102176Y-45078D01*
X101979Y-45275D01*
X102262Y-45558D01*
X102350Y-45532D01*
X102414Y-45338D01*
X102414Y-46389D01*
X102193Y-46389D01*
X102176Y-46396D01*
X102176Y-45644D01*
X101893Y-45361D01*
X101807Y-45447D01*
X101807Y-45275D01*
X101525Y-44992D01*
X101436Y-45018D01*
X101373Y-45212D01*
X101388Y-45416D01*
X101436Y-45532D01*
X101525Y-45558D01*
X101807Y-45275D01*
X101807Y-45447D01*
X101610Y-45644D01*
X101636Y-45732D01*
X101831Y-45796D01*
X102035Y-45780D01*
X102150Y-45732D01*
X102176Y-45644D01*
X102176Y-46396D01*
X101878Y-46519D01*
X101638Y-46759D01*
X101508Y-47073D01*
X101507Y-47413D01*
X101637Y-47727D01*
X101877Y-47967D01*
X101935Y-47992D01*
X101189Y-47992D01*
X101189Y-37530D01*
X101178Y-37215D01*
X101079Y-36978D01*
X100962Y-36918D01*
X100479Y-37401D01*
X100962Y-37884D01*
X101079Y-37824D01*
X101189Y-37530D01*
X101189Y-47992D01*
X101138Y-47992D01*
X101138Y-47360D01*
X101126Y-47066D01*
X101037Y-46851D01*
X100925Y-46798D01*
X100876Y-46846D01*
X100876Y-37970D01*
X100393Y-37487D01*
X100307Y-37573D01*
X100307Y-37401D01*
X99824Y-36918D01*
X99707Y-36978D01*
X99598Y-37272D01*
X99609Y-37587D01*
X99707Y-37824D01*
X99824Y-37884D01*
X100307Y-37401D01*
X100307Y-37573D01*
X99910Y-37970D01*
X99970Y-38087D01*
X100265Y-38197D01*
X100579Y-38185D01*
X100817Y-38087D01*
X100876Y-37970D01*
X100876Y-46846D01*
X100839Y-46883D01*
X100839Y-46712D01*
X100786Y-46600D01*
X100510Y-46499D01*
X100216Y-46511D01*
X100001Y-46600D01*
X99947Y-46712D01*
X100393Y-47158D01*
X100839Y-46712D01*
X100839Y-46883D01*
X100479Y-47244D01*
X100925Y-47690D01*
X101037Y-47636D01*
X101138Y-47360D01*
X101138Y-47992D01*
X100839Y-47992D01*
X100839Y-47775D01*
X100393Y-47329D01*
X100307Y-47415D01*
X100307Y-47244D01*
X99861Y-46798D01*
X99750Y-46851D01*
X99648Y-47127D01*
X99661Y-47421D01*
X99750Y-47636D01*
X99861Y-47690D01*
X100307Y-47244D01*
X100307Y-47415D01*
X99947Y-47775D01*
X100001Y-47887D01*
X100277Y-47988D01*
X100571Y-47976D01*
X100786Y-47887D01*
X100839Y-47775D01*
X100839Y-47992D01*
X98852Y-47992D01*
X98908Y-47968D01*
X99149Y-47728D01*
X99279Y-47414D01*
X99279Y-47074D01*
X99149Y-46760D01*
X98952Y-46563D01*
X98952Y-45904D01*
X99018Y-45905D01*
X99249Y-45809D01*
X99426Y-45632D01*
X99522Y-45401D01*
X99523Y-45150D01*
X99427Y-44919D01*
X99250Y-44742D01*
X99019Y-44646D01*
X98769Y-44646D01*
X98537Y-44741D01*
X98535Y-44744D01*
X98421Y-44744D01*
X97315Y-44744D01*
X97313Y-44742D01*
X97082Y-44646D01*
X96832Y-44646D01*
X96600Y-44741D01*
X96488Y-44854D01*
X96488Y-43806D01*
X96832Y-43462D01*
X96947Y-43290D01*
X96947Y-43290D01*
X96988Y-43086D01*
X96988Y-40300D01*
X97051Y-40274D01*
X97051Y-40885D01*
X99854Y-40885D01*
X99854Y-38192D01*
X99137Y-38192D01*
X99325Y-38004D01*
X99488Y-37613D01*
X99488Y-37191D01*
X99440Y-37075D01*
X99850Y-36665D01*
X100091Y-36665D01*
X99970Y-36715D01*
X99910Y-36832D01*
X100393Y-37315D01*
X100876Y-36832D01*
X100817Y-36715D01*
X100682Y-36665D01*
X102685Y-36665D01*
X102685Y-46169D01*
M02*
