G04 (created by PCBNEW (2013-07-07 BZR 4022)-stable) date 7/15/2015 5:50:03 PM*
%MOIN*%
G04 Gerber Fmt 3.4, Leading zero omitted, Abs format*
%FSLAX34Y34*%
G01*
G70*
G90*
G04 APERTURE LIST*
%ADD10C,0.00590551*%
%ADD11C,0.00295276*%
%ADD12C,0.00393701*%
%ADD13C,0.00492126*%
%ADD14C,0.00984252*%
%ADD15C,0.005*%
%ADD16C,0.0024*%
%ADD17C,0.0047*%
G04 APERTURE END LIST*
G54D10*
G54D11*
X80972Y-58450D02*
X80972Y-58506D01*
X80933Y-58388D02*
X80972Y-58450D01*
X81011Y-58388D01*
X80488Y-58555D02*
X80566Y-58673D01*
X80566Y-58555D02*
X80488Y-58673D01*
G54D12*
X80643Y-58303D02*
X80992Y-58303D01*
X80653Y-58683D02*
X80653Y-58303D01*
G54D11*
X78593Y-59046D02*
X78593Y-59102D01*
X78554Y-58984D02*
X78593Y-59046D01*
X78633Y-58984D01*
X78661Y-58984D02*
X78740Y-59102D01*
X78740Y-58984D02*
X78661Y-59102D01*
X78785Y-59102D02*
X78785Y-58984D01*
X78852Y-59102D01*
X78852Y-58984D01*
X78908Y-59102D02*
X78908Y-59024D01*
X78908Y-58984D02*
X78903Y-58990D01*
X78908Y-58996D01*
X78914Y-58990D01*
X78908Y-58984D01*
X78908Y-58996D01*
G54D13*
X78107Y-58258D02*
X78107Y-58061D01*
X78107Y-58155D02*
X78220Y-58155D01*
X78220Y-58258D02*
X78220Y-58061D01*
X78314Y-58258D02*
X78314Y-58061D01*
X78379Y-58202D01*
X78445Y-58061D01*
X78445Y-58258D01*
X78651Y-58240D02*
X78642Y-58249D01*
X78614Y-58258D01*
X78595Y-58258D01*
X78567Y-58249D01*
X78548Y-58230D01*
X78539Y-58211D01*
X78529Y-58174D01*
X78529Y-58146D01*
X78539Y-58108D01*
X78548Y-58090D01*
X78567Y-58071D01*
X78595Y-58061D01*
X78614Y-58061D01*
X78642Y-58071D01*
X78651Y-58080D01*
X78829Y-58061D02*
X78735Y-58061D01*
X78726Y-58155D01*
X78735Y-58146D01*
X78754Y-58136D01*
X78801Y-58136D01*
X78820Y-58146D01*
X78829Y-58155D01*
X78839Y-58174D01*
X78839Y-58221D01*
X78829Y-58240D01*
X78820Y-58249D01*
X78801Y-58258D01*
X78754Y-58258D01*
X78735Y-58249D01*
X78726Y-58240D01*
X78951Y-58146D02*
X78932Y-58136D01*
X78923Y-58127D01*
X78914Y-58108D01*
X78914Y-58099D01*
X78923Y-58080D01*
X78932Y-58071D01*
X78951Y-58061D01*
X78989Y-58061D01*
X79007Y-58071D01*
X79017Y-58080D01*
X79026Y-58099D01*
X79026Y-58108D01*
X79017Y-58127D01*
X79007Y-58136D01*
X78989Y-58146D01*
X78951Y-58146D01*
X78932Y-58155D01*
X78923Y-58165D01*
X78914Y-58183D01*
X78914Y-58221D01*
X78923Y-58240D01*
X78932Y-58249D01*
X78951Y-58258D01*
X78989Y-58258D01*
X79007Y-58249D01*
X79017Y-58240D01*
X79026Y-58221D01*
X79026Y-58183D01*
X79017Y-58165D01*
X79007Y-58155D01*
X78989Y-58146D01*
X79139Y-58146D02*
X79120Y-58136D01*
X79110Y-58127D01*
X79101Y-58108D01*
X79101Y-58099D01*
X79110Y-58080D01*
X79120Y-58071D01*
X79139Y-58061D01*
X79176Y-58061D01*
X79195Y-58071D01*
X79204Y-58080D01*
X79214Y-58099D01*
X79214Y-58108D01*
X79204Y-58127D01*
X79195Y-58136D01*
X79176Y-58146D01*
X79139Y-58146D01*
X79120Y-58155D01*
X79110Y-58165D01*
X79101Y-58183D01*
X79101Y-58221D01*
X79110Y-58240D01*
X79120Y-58249D01*
X79139Y-58258D01*
X79176Y-58258D01*
X79195Y-58249D01*
X79204Y-58240D01*
X79214Y-58221D01*
X79214Y-58183D01*
X79204Y-58165D01*
X79195Y-58155D01*
X79176Y-58146D01*
X79279Y-58061D02*
X79401Y-58061D01*
X79335Y-58136D01*
X79363Y-58136D01*
X79382Y-58146D01*
X79392Y-58155D01*
X79401Y-58174D01*
X79401Y-58221D01*
X79392Y-58240D01*
X79382Y-58249D01*
X79363Y-58258D01*
X79307Y-58258D01*
X79288Y-58249D01*
X79279Y-58240D01*
X80459Y-54830D02*
X80459Y-54961D01*
X80412Y-54755D02*
X80365Y-54895D01*
X80487Y-54895D01*
X80562Y-54942D02*
X80572Y-54952D01*
X80562Y-54961D01*
X80553Y-54952D01*
X80562Y-54942D01*
X80562Y-54961D01*
X80637Y-54764D02*
X80769Y-54764D01*
X80684Y-54961D01*
X80928Y-54830D02*
X80928Y-54961D01*
X80844Y-54830D02*
X80844Y-54933D01*
X80853Y-54952D01*
X80872Y-54961D01*
X80900Y-54961D01*
X80919Y-54952D01*
X80928Y-54942D01*
X81087Y-54858D02*
X81022Y-54858D01*
X81022Y-54961D02*
X81022Y-54764D01*
X81115Y-54764D01*
X78269Y-54774D02*
X78288Y-54774D01*
X78307Y-54783D01*
X78316Y-54793D01*
X78326Y-54812D01*
X78335Y-54849D01*
X78335Y-54896D01*
X78326Y-54933D01*
X78316Y-54952D01*
X78307Y-54962D01*
X78288Y-54971D01*
X78269Y-54971D01*
X78251Y-54962D01*
X78241Y-54952D01*
X78232Y-54933D01*
X78223Y-54896D01*
X78223Y-54849D01*
X78232Y-54812D01*
X78241Y-54793D01*
X78251Y-54783D01*
X78269Y-54774D01*
X78419Y-54952D02*
X78429Y-54962D01*
X78419Y-54971D01*
X78410Y-54962D01*
X78419Y-54952D01*
X78419Y-54971D01*
X78504Y-54793D02*
X78513Y-54783D01*
X78532Y-54774D01*
X78579Y-54774D01*
X78597Y-54783D01*
X78607Y-54793D01*
X78616Y-54812D01*
X78616Y-54830D01*
X78607Y-54858D01*
X78494Y-54971D01*
X78616Y-54971D01*
X78691Y-54793D02*
X78701Y-54783D01*
X78719Y-54774D01*
X78766Y-54774D01*
X78785Y-54783D01*
X78794Y-54793D01*
X78804Y-54812D01*
X78804Y-54830D01*
X78794Y-54858D01*
X78682Y-54971D01*
X78804Y-54971D01*
X78972Y-54840D02*
X78972Y-54971D01*
X78888Y-54840D02*
X78888Y-54943D01*
X78897Y-54962D01*
X78916Y-54971D01*
X78944Y-54971D01*
X78963Y-54962D01*
X78972Y-54952D01*
X79132Y-54868D02*
X79066Y-54868D01*
X79066Y-54971D02*
X79066Y-54774D01*
X79160Y-54774D01*
X76469Y-54756D02*
X76488Y-54756D01*
X76507Y-54766D01*
X76516Y-54775D01*
X76526Y-54794D01*
X76535Y-54831D01*
X76535Y-54878D01*
X76526Y-54916D01*
X76516Y-54934D01*
X76507Y-54944D01*
X76488Y-54953D01*
X76469Y-54953D01*
X76451Y-54944D01*
X76441Y-54934D01*
X76432Y-54916D01*
X76423Y-54878D01*
X76423Y-54831D01*
X76432Y-54794D01*
X76441Y-54775D01*
X76451Y-54766D01*
X76469Y-54756D01*
X76619Y-54934D02*
X76629Y-54944D01*
X76619Y-54953D01*
X76610Y-54944D01*
X76619Y-54934D01*
X76619Y-54953D01*
X76816Y-54953D02*
X76704Y-54953D01*
X76760Y-54953D02*
X76760Y-54756D01*
X76741Y-54784D01*
X76723Y-54803D01*
X76704Y-54813D01*
X76985Y-54822D02*
X76985Y-54953D01*
X76901Y-54822D02*
X76901Y-54925D01*
X76910Y-54944D01*
X76929Y-54953D01*
X76957Y-54953D01*
X76976Y-54944D01*
X76985Y-54934D01*
X77144Y-54850D02*
X77079Y-54850D01*
X77079Y-54953D02*
X77079Y-54756D01*
X77172Y-54756D01*
G54D14*
X76305Y-57866D02*
X76437Y-58259D01*
X76568Y-57866D01*
X76699Y-58259D02*
X76699Y-57866D01*
X76793Y-57866D01*
X76849Y-57884D01*
X76886Y-57922D01*
X76905Y-57959D01*
X76924Y-58034D01*
X76924Y-58091D01*
X76905Y-58166D01*
X76886Y-58203D01*
X76849Y-58241D01*
X76793Y-58259D01*
X76699Y-58259D01*
X77093Y-58259D02*
X77093Y-57866D01*
X77186Y-57866D01*
X77243Y-57884D01*
X77280Y-57922D01*
X77299Y-57959D01*
X77318Y-58034D01*
X77318Y-58091D01*
X77299Y-58166D01*
X77280Y-58203D01*
X77243Y-58241D01*
X77186Y-58259D01*
X77093Y-58259D01*
X80359Y-55914D02*
X80321Y-55895D01*
X80265Y-55895D01*
X80209Y-55914D01*
X80172Y-55951D01*
X80153Y-55989D01*
X80134Y-56064D01*
X80134Y-56120D01*
X80153Y-56195D01*
X80172Y-56233D01*
X80209Y-56270D01*
X80265Y-56289D01*
X80303Y-56289D01*
X80359Y-56270D01*
X80378Y-56251D01*
X80378Y-56120D01*
X80303Y-56120D01*
X80546Y-56289D02*
X80546Y-55895D01*
X80771Y-56289D01*
X80771Y-55895D01*
X80959Y-56289D02*
X80959Y-55895D01*
X81053Y-55895D01*
X81109Y-55914D01*
X81146Y-55951D01*
X81165Y-55989D01*
X81184Y-56064D01*
X81184Y-56120D01*
X81165Y-56195D01*
X81146Y-56233D01*
X81109Y-56270D01*
X81053Y-56289D01*
X80959Y-56289D01*
X78222Y-56260D02*
X78278Y-56279D01*
X78372Y-56279D01*
X78410Y-56260D01*
X78428Y-56241D01*
X78447Y-56204D01*
X78447Y-56166D01*
X78428Y-56129D01*
X78410Y-56110D01*
X78372Y-56091D01*
X78297Y-56073D01*
X78260Y-56054D01*
X78241Y-56035D01*
X78222Y-55998D01*
X78222Y-55960D01*
X78241Y-55923D01*
X78260Y-55904D01*
X78297Y-55885D01*
X78391Y-55885D01*
X78447Y-55904D01*
X78616Y-56279D02*
X78616Y-55885D01*
X78710Y-55885D01*
X78766Y-55904D01*
X78803Y-55941D01*
X78822Y-55979D01*
X78841Y-56054D01*
X78841Y-56110D01*
X78822Y-56185D01*
X78803Y-56223D01*
X78766Y-56260D01*
X78710Y-56279D01*
X78616Y-56279D01*
X78991Y-56166D02*
X79178Y-56166D01*
X78953Y-56279D02*
X79085Y-55885D01*
X79216Y-56279D01*
X76291Y-56260D02*
X76347Y-56279D01*
X76441Y-56279D01*
X76478Y-56260D01*
X76497Y-56241D01*
X76516Y-56204D01*
X76516Y-56166D01*
X76497Y-56129D01*
X76478Y-56110D01*
X76441Y-56091D01*
X76366Y-56073D01*
X76328Y-56054D01*
X76309Y-56035D01*
X76291Y-55998D01*
X76291Y-55960D01*
X76309Y-55923D01*
X76328Y-55904D01*
X76366Y-55885D01*
X76459Y-55885D01*
X76516Y-55904D01*
X76909Y-56241D02*
X76891Y-56260D01*
X76834Y-56279D01*
X76797Y-56279D01*
X76741Y-56260D01*
X76703Y-56223D01*
X76684Y-56185D01*
X76666Y-56110D01*
X76666Y-56054D01*
X76684Y-55979D01*
X76703Y-55941D01*
X76741Y-55904D01*
X76797Y-55885D01*
X76834Y-55885D01*
X76891Y-55904D01*
X76909Y-55923D01*
X77266Y-56279D02*
X77078Y-56279D01*
X77078Y-55885D01*
G54D10*
X76377Y-55118D02*
X81102Y-55118D01*
X78149Y-58464D02*
X79330Y-58464D01*
X79330Y-58464D02*
X79330Y-59645D01*
X79330Y-59645D02*
X78149Y-59645D01*
X78149Y-59645D02*
X78149Y-58464D01*
X78149Y-58464D02*
X78149Y-58661D01*
X78307Y-58582D02*
G75*
G03X78307Y-58582I-39J0D01*
G74*
G01*
X78149Y-59055D02*
X78149Y-58858D01*
X78149Y-59055D02*
X78149Y-58464D01*
X78149Y-58464D02*
X79330Y-58464D01*
X79330Y-58464D02*
X79330Y-59055D01*
X79330Y-59055D02*
X79330Y-59645D01*
X79330Y-59645D02*
X78149Y-59645D01*
X78149Y-59645D02*
X78149Y-59055D01*
G54D15*
X76521Y-54580D02*
X76521Y-54080D01*
X77021Y-54580D02*
X77021Y-54090D01*
X77171Y-54580D02*
X76371Y-54580D01*
X76371Y-54580D02*
X76371Y-54080D01*
X76371Y-54080D02*
X77171Y-54080D01*
X77171Y-54080D02*
X77171Y-54580D01*
X80958Y-54080D02*
X80958Y-54580D01*
X80458Y-54080D02*
X80458Y-54570D01*
X80308Y-54080D02*
X81108Y-54080D01*
X81108Y-54080D02*
X81108Y-54580D01*
X81108Y-54580D02*
X80308Y-54580D01*
X80308Y-54580D02*
X80308Y-54080D01*
X78110Y-53600D02*
X78110Y-54580D01*
X79370Y-54580D02*
X79370Y-53600D01*
X79190Y-53600D02*
X79190Y-54580D01*
X78290Y-54580D02*
X78290Y-53600D01*
X78110Y-54580D02*
X79370Y-54580D01*
X79370Y-53600D02*
X78110Y-53600D01*
G54D10*
X78449Y-54490D02*
X78449Y-54096D01*
X78599Y-54096D01*
X78637Y-54115D01*
X78655Y-54133D01*
X78674Y-54171D01*
X78674Y-54227D01*
X78655Y-54265D01*
X78637Y-54283D01*
X78599Y-54302D01*
X78449Y-54302D01*
X79049Y-54490D02*
X78824Y-54490D01*
X78937Y-54490D02*
X78937Y-54096D01*
X78899Y-54152D01*
X78862Y-54190D01*
X78824Y-54208D01*
X75178Y-55071D02*
X75234Y-55089D01*
X75253Y-55108D01*
X75271Y-55146D01*
X75271Y-55202D01*
X75253Y-55239D01*
X75234Y-55258D01*
X75196Y-55277D01*
X75046Y-55277D01*
X75046Y-54883D01*
X75178Y-54883D01*
X75215Y-54902D01*
X75234Y-54921D01*
X75253Y-54958D01*
X75253Y-54996D01*
X75234Y-55033D01*
X75215Y-55052D01*
X75178Y-55071D01*
X75046Y-55071D01*
X75515Y-54883D02*
X75590Y-54883D01*
X75628Y-54902D01*
X75665Y-54940D01*
X75684Y-55014D01*
X75684Y-55146D01*
X75665Y-55221D01*
X75628Y-55258D01*
X75590Y-55277D01*
X75515Y-55277D01*
X75478Y-55258D01*
X75440Y-55221D01*
X75421Y-55146D01*
X75421Y-55014D01*
X75440Y-54940D01*
X75478Y-54902D01*
X75515Y-54883D01*
X76040Y-55277D02*
X75853Y-55277D01*
X75853Y-54883D01*
X76115Y-54883D02*
X76340Y-54883D01*
X76227Y-55277D02*
X76227Y-54883D01*
X76377Y-55314D02*
X76677Y-55314D01*
X76996Y-55239D02*
X76977Y-55258D01*
X76921Y-55277D01*
X76884Y-55277D01*
X76827Y-55258D01*
X76790Y-55221D01*
X76771Y-55183D01*
X76752Y-55108D01*
X76752Y-55052D01*
X76771Y-54977D01*
X76790Y-54940D01*
X76827Y-54902D01*
X76884Y-54883D01*
X76921Y-54883D01*
X76977Y-54902D01*
X76996Y-54921D01*
X77240Y-54883D02*
X77315Y-54883D01*
X77352Y-54902D01*
X77390Y-54940D01*
X77409Y-55014D01*
X77409Y-55146D01*
X77390Y-55221D01*
X77352Y-55258D01*
X77315Y-55277D01*
X77240Y-55277D01*
X77202Y-55258D01*
X77165Y-55221D01*
X77146Y-55146D01*
X77146Y-55014D01*
X77165Y-54940D01*
X77202Y-54902D01*
X77240Y-54883D01*
X77577Y-55277D02*
X77577Y-54883D01*
X77802Y-55277D01*
X77802Y-54883D01*
X77990Y-55277D02*
X77990Y-54883D01*
X78215Y-55277D01*
X78215Y-54883D01*
X78308Y-55314D02*
X78608Y-55314D01*
X78683Y-55258D02*
X78740Y-55277D01*
X78833Y-55277D01*
X78871Y-55258D01*
X78890Y-55239D01*
X78908Y-55202D01*
X78908Y-55164D01*
X78890Y-55127D01*
X78871Y-55108D01*
X78833Y-55089D01*
X78758Y-55071D01*
X78721Y-55052D01*
X78702Y-55033D01*
X78683Y-54996D01*
X78683Y-54958D01*
X78702Y-54921D01*
X78721Y-54902D01*
X78758Y-54883D01*
X78852Y-54883D01*
X78908Y-54902D01*
X79077Y-55277D02*
X79077Y-54883D01*
X79265Y-55277D02*
X79265Y-54883D01*
X79490Y-55277D01*
X79490Y-54883D01*
X79883Y-54902D02*
X79846Y-54883D01*
X79790Y-54883D01*
X79733Y-54902D01*
X79696Y-54940D01*
X79677Y-54977D01*
X79658Y-55052D01*
X79658Y-55108D01*
X79677Y-55183D01*
X79696Y-55221D01*
X79733Y-55258D01*
X79790Y-55277D01*
X79827Y-55277D01*
X79883Y-55258D01*
X79902Y-55239D01*
X79902Y-55108D01*
X79827Y-55108D01*
X80258Y-55277D02*
X80071Y-55277D01*
X80071Y-54883D01*
X80389Y-55071D02*
X80521Y-55071D01*
X80577Y-55277D02*
X80389Y-55277D01*
X80389Y-54883D01*
X80577Y-54883D01*
X80652Y-55314D02*
X80952Y-55314D01*
X81027Y-55258D02*
X81083Y-55277D01*
X81177Y-55277D01*
X81214Y-55258D01*
X81233Y-55239D01*
X81252Y-55202D01*
X81252Y-55164D01*
X81233Y-55127D01*
X81214Y-55108D01*
X81177Y-55089D01*
X81102Y-55071D01*
X81064Y-55052D01*
X81046Y-55033D01*
X81027Y-54996D01*
X81027Y-54958D01*
X81046Y-54921D01*
X81064Y-54902D01*
X81102Y-54883D01*
X81196Y-54883D01*
X81252Y-54902D01*
X81421Y-54883D02*
X81421Y-55202D01*
X81439Y-55239D01*
X81458Y-55258D01*
X81496Y-55277D01*
X81571Y-55277D01*
X81608Y-55258D01*
X81627Y-55239D01*
X81646Y-55202D01*
X81646Y-54883D01*
X81833Y-55277D02*
X81833Y-54883D01*
X81983Y-54883D01*
X82020Y-54902D01*
X82039Y-54921D01*
X82058Y-54958D01*
X82058Y-55014D01*
X82039Y-55052D01*
X82020Y-55071D01*
X81983Y-55089D01*
X81833Y-55089D01*
X82227Y-55277D02*
X82227Y-54883D01*
X82377Y-54883D01*
X82414Y-54902D01*
X82433Y-54921D01*
X82452Y-54958D01*
X82452Y-55014D01*
X82433Y-55052D01*
X82414Y-55071D01*
X82377Y-55089D01*
X82227Y-55089D01*
X78055Y-57639D02*
X78055Y-57245D01*
X78187Y-57527D01*
X78318Y-57245D01*
X78318Y-57639D01*
X78487Y-57527D02*
X78674Y-57527D01*
X78449Y-57639D02*
X78580Y-57245D01*
X78712Y-57639D01*
X79049Y-57264D02*
X79011Y-57245D01*
X78955Y-57245D01*
X78899Y-57264D01*
X78862Y-57302D01*
X78843Y-57339D01*
X78824Y-57414D01*
X78824Y-57470D01*
X78843Y-57545D01*
X78862Y-57583D01*
X78899Y-57620D01*
X78955Y-57639D01*
X78993Y-57639D01*
X79049Y-57620D01*
X79068Y-57602D01*
X79068Y-57470D01*
X78993Y-57470D01*
X79443Y-57639D02*
X79218Y-57639D01*
X79330Y-57639D02*
X79330Y-57245D01*
X79293Y-57302D01*
X79255Y-57339D01*
X79218Y-57358D01*
X77455Y-58230D02*
X77455Y-57836D01*
X77455Y-58023D02*
X77680Y-58023D01*
X77680Y-58230D02*
X77680Y-57836D01*
X77868Y-58230D02*
X77868Y-57836D01*
X77999Y-58117D01*
X78130Y-57836D01*
X78130Y-58230D01*
X78543Y-58192D02*
X78524Y-58211D01*
X78468Y-58230D01*
X78430Y-58230D01*
X78374Y-58211D01*
X78337Y-58173D01*
X78318Y-58136D01*
X78299Y-58061D01*
X78299Y-58005D01*
X78318Y-57930D01*
X78337Y-57892D01*
X78374Y-57855D01*
X78430Y-57836D01*
X78468Y-57836D01*
X78524Y-57855D01*
X78543Y-57874D01*
X78899Y-57836D02*
X78712Y-57836D01*
X78693Y-58023D01*
X78712Y-58005D01*
X78749Y-57986D01*
X78843Y-57986D01*
X78880Y-58005D01*
X78899Y-58023D01*
X78918Y-58061D01*
X78918Y-58155D01*
X78899Y-58192D01*
X78880Y-58211D01*
X78843Y-58230D01*
X78749Y-58230D01*
X78712Y-58211D01*
X78693Y-58192D01*
X79143Y-58005D02*
X79105Y-57986D01*
X79086Y-57967D01*
X79068Y-57930D01*
X79068Y-57911D01*
X79086Y-57874D01*
X79105Y-57855D01*
X79143Y-57836D01*
X79218Y-57836D01*
X79255Y-57855D01*
X79274Y-57874D01*
X79293Y-57911D01*
X79293Y-57930D01*
X79274Y-57967D01*
X79255Y-57986D01*
X79218Y-58005D01*
X79143Y-58005D01*
X79105Y-58023D01*
X79086Y-58042D01*
X79068Y-58080D01*
X79068Y-58155D01*
X79086Y-58192D01*
X79105Y-58211D01*
X79143Y-58230D01*
X79218Y-58230D01*
X79255Y-58211D01*
X79274Y-58192D01*
X79293Y-58155D01*
X79293Y-58080D01*
X79274Y-58042D01*
X79255Y-58023D01*
X79218Y-58005D01*
X79518Y-58005D02*
X79480Y-57986D01*
X79461Y-57967D01*
X79443Y-57930D01*
X79443Y-57911D01*
X79461Y-57874D01*
X79480Y-57855D01*
X79518Y-57836D01*
X79593Y-57836D01*
X79630Y-57855D01*
X79649Y-57874D01*
X79668Y-57911D01*
X79668Y-57930D01*
X79649Y-57967D01*
X79630Y-57986D01*
X79593Y-58005D01*
X79518Y-58005D01*
X79480Y-58023D01*
X79461Y-58042D01*
X79443Y-58080D01*
X79443Y-58155D01*
X79461Y-58192D01*
X79480Y-58211D01*
X79518Y-58230D01*
X79593Y-58230D01*
X79630Y-58211D01*
X79649Y-58192D01*
X79668Y-58155D01*
X79668Y-58080D01*
X79649Y-58042D01*
X79630Y-58023D01*
X79593Y-58005D01*
X79799Y-57836D02*
X80043Y-57836D01*
X79911Y-57986D01*
X79968Y-57986D01*
X80005Y-58005D01*
X80024Y-58023D01*
X80043Y-58061D01*
X80043Y-58155D01*
X80024Y-58192D01*
X80005Y-58211D01*
X79968Y-58230D01*
X79855Y-58230D01*
X79818Y-58211D01*
X79799Y-58192D01*
G54D16*
X76751Y-54757D02*
X76746Y-54762D01*
X76729Y-54768D01*
X76718Y-54768D01*
X76701Y-54762D01*
X76690Y-54751D01*
X76684Y-54740D01*
X76678Y-54717D01*
X76678Y-54701D01*
X76684Y-54678D01*
X76690Y-54667D01*
X76701Y-54656D01*
X76718Y-54650D01*
X76729Y-54650D01*
X76746Y-54656D01*
X76751Y-54661D01*
X76796Y-54661D02*
X76802Y-54656D01*
X76813Y-54650D01*
X76841Y-54650D01*
X76853Y-54656D01*
X76858Y-54661D01*
X76864Y-54672D01*
X76864Y-54684D01*
X76858Y-54701D01*
X76791Y-54768D01*
X76864Y-54768D01*
X80688Y-53977D02*
X80683Y-53982D01*
X80666Y-53988D01*
X80655Y-53988D01*
X80638Y-53982D01*
X80627Y-53971D01*
X80621Y-53960D01*
X80615Y-53937D01*
X80615Y-53921D01*
X80621Y-53898D01*
X80627Y-53887D01*
X80638Y-53876D01*
X80655Y-53870D01*
X80666Y-53870D01*
X80683Y-53876D01*
X80688Y-53881D01*
X80728Y-53870D02*
X80801Y-53870D01*
X80762Y-53915D01*
X80778Y-53915D01*
X80790Y-53921D01*
X80795Y-53926D01*
X80801Y-53937D01*
X80801Y-53965D01*
X80795Y-53977D01*
X80790Y-53982D01*
X80778Y-53988D01*
X80745Y-53988D01*
X80733Y-53982D01*
X80728Y-53977D01*
G54D17*
X78717Y-53461D02*
X78707Y-53470D01*
X78679Y-53480D01*
X78661Y-53480D01*
X78632Y-53470D01*
X78614Y-53452D01*
X78604Y-53433D01*
X78595Y-53395D01*
X78595Y-53367D01*
X78604Y-53330D01*
X78614Y-53311D01*
X78632Y-53292D01*
X78661Y-53283D01*
X78679Y-53283D01*
X78707Y-53292D01*
X78717Y-53302D01*
X78904Y-53480D02*
X78792Y-53480D01*
X78848Y-53480D02*
X78848Y-53283D01*
X78829Y-53311D01*
X78811Y-53330D01*
X78792Y-53339D01*
M02*
