G04 (created by PCBNEW (2013-07-07 BZR 4022)-stable) date 8/6/2015 3:57:57 PM*
%MOIN*%
G04 Gerber Fmt 3.4, Leading zero omitted, Abs format*
%FSLAX34Y34*%
G01*
G70*
G90*
G04 APERTURE LIST*
%ADD10C,0.00590551*%
%ADD11C,0.0075*%
%ADD12C,0.00393701*%
%ADD13C,0.00295276*%
%ADD14C,0.00492126*%
%ADD15C,0.00984252*%
%ADD16C,0.005*%
%ADD17C,0.00125*%
%ADD18C,0.0024*%
G04 APERTURE END LIST*
G54D10*
G54D11*
X81129Y-58385D02*
X81129Y-58528D01*
X81029Y-58228D02*
X81129Y-58385D01*
X81229Y-58228D01*
X80090Y-58564D02*
X80290Y-58864D01*
X80290Y-58564D02*
X80090Y-58864D01*
G54D10*
X80504Y-58745D02*
X80608Y-58641D01*
G54D12*
X80395Y-58652D02*
X80395Y-58649D01*
G54D10*
X80494Y-58751D02*
X80395Y-58652D01*
X80495Y-58053D02*
X80495Y-58752D01*
X81150Y-58057D02*
X81073Y-58134D01*
X81146Y-58056D02*
X81079Y-57989D01*
X80501Y-58055D02*
X81144Y-58055D01*
G54D13*
X78593Y-58215D02*
X78593Y-58271D01*
X78554Y-58153D02*
X78593Y-58215D01*
X78633Y-58153D01*
X78661Y-58153D02*
X78740Y-58271D01*
X78740Y-58153D02*
X78661Y-58271D01*
X78785Y-58271D02*
X78785Y-58153D01*
X78852Y-58271D01*
X78852Y-58153D01*
X78908Y-58271D02*
X78908Y-58193D01*
X78908Y-58153D02*
X78903Y-58159D01*
X78908Y-58164D01*
X78914Y-58159D01*
X78908Y-58153D01*
X78908Y-58164D01*
G54D14*
X80319Y-54764D02*
X80337Y-54764D01*
X80356Y-54774D01*
X80365Y-54783D01*
X80375Y-54802D01*
X80384Y-54839D01*
X80384Y-54886D01*
X80375Y-54924D01*
X80365Y-54942D01*
X80356Y-54952D01*
X80337Y-54961D01*
X80319Y-54961D01*
X80300Y-54952D01*
X80290Y-54942D01*
X80281Y-54924D01*
X80272Y-54886D01*
X80272Y-54839D01*
X80281Y-54802D01*
X80290Y-54783D01*
X80300Y-54774D01*
X80319Y-54764D01*
X80469Y-54942D02*
X80478Y-54952D01*
X80469Y-54961D01*
X80459Y-54952D01*
X80469Y-54942D01*
X80469Y-54961D01*
X80553Y-54783D02*
X80562Y-54774D01*
X80581Y-54764D01*
X80628Y-54764D01*
X80647Y-54774D01*
X80656Y-54783D01*
X80665Y-54802D01*
X80665Y-54820D01*
X80656Y-54849D01*
X80544Y-54961D01*
X80665Y-54961D01*
X80740Y-54783D02*
X80750Y-54774D01*
X80769Y-54764D01*
X80815Y-54764D01*
X80834Y-54774D01*
X80844Y-54783D01*
X80853Y-54802D01*
X80853Y-54820D01*
X80844Y-54849D01*
X80731Y-54961D01*
X80853Y-54961D01*
X81022Y-54830D02*
X81022Y-54961D01*
X80937Y-54830D02*
X80937Y-54933D01*
X80947Y-54952D01*
X80965Y-54961D01*
X80994Y-54961D01*
X81012Y-54952D01*
X81022Y-54942D01*
X81181Y-54858D02*
X81115Y-54858D01*
X81115Y-54961D02*
X81115Y-54764D01*
X81209Y-54764D01*
X78269Y-54774D02*
X78288Y-54774D01*
X78307Y-54783D01*
X78316Y-54793D01*
X78326Y-54812D01*
X78335Y-54849D01*
X78335Y-54896D01*
X78326Y-54933D01*
X78316Y-54952D01*
X78307Y-54962D01*
X78288Y-54971D01*
X78269Y-54971D01*
X78251Y-54962D01*
X78241Y-54952D01*
X78232Y-54933D01*
X78223Y-54896D01*
X78223Y-54849D01*
X78232Y-54812D01*
X78241Y-54793D01*
X78251Y-54783D01*
X78269Y-54774D01*
X78419Y-54952D02*
X78429Y-54962D01*
X78419Y-54971D01*
X78410Y-54962D01*
X78419Y-54952D01*
X78419Y-54971D01*
X78597Y-54840D02*
X78597Y-54971D01*
X78551Y-54765D02*
X78504Y-54905D01*
X78626Y-54905D01*
X78682Y-54774D02*
X78813Y-54774D01*
X78729Y-54971D01*
X78972Y-54840D02*
X78972Y-54971D01*
X78888Y-54840D02*
X78888Y-54943D01*
X78897Y-54962D01*
X78916Y-54971D01*
X78944Y-54971D01*
X78963Y-54962D01*
X78972Y-54952D01*
X79132Y-54868D02*
X79066Y-54868D01*
X79066Y-54971D02*
X79066Y-54774D01*
X79160Y-54774D01*
X76469Y-54756D02*
X76488Y-54756D01*
X76507Y-54766D01*
X76516Y-54775D01*
X76526Y-54794D01*
X76535Y-54831D01*
X76535Y-54878D01*
X76526Y-54916D01*
X76516Y-54934D01*
X76507Y-54944D01*
X76488Y-54953D01*
X76469Y-54953D01*
X76451Y-54944D01*
X76441Y-54934D01*
X76432Y-54916D01*
X76423Y-54878D01*
X76423Y-54831D01*
X76432Y-54794D01*
X76441Y-54775D01*
X76451Y-54766D01*
X76469Y-54756D01*
X76619Y-54934D02*
X76629Y-54944D01*
X76619Y-54953D01*
X76610Y-54944D01*
X76619Y-54934D01*
X76619Y-54953D01*
X76816Y-54953D02*
X76704Y-54953D01*
X76760Y-54953D02*
X76760Y-54756D01*
X76741Y-54784D01*
X76723Y-54803D01*
X76704Y-54813D01*
X76985Y-54822D02*
X76985Y-54953D01*
X76901Y-54822D02*
X76901Y-54925D01*
X76910Y-54944D01*
X76929Y-54953D01*
X76957Y-54953D01*
X76976Y-54944D01*
X76985Y-54934D01*
X77144Y-54850D02*
X77079Y-54850D01*
X77079Y-54953D02*
X77079Y-54756D01*
X77172Y-54756D01*
G54D15*
X76305Y-57866D02*
X76437Y-58259D01*
X76568Y-57866D01*
X76699Y-58259D02*
X76699Y-57866D01*
X76793Y-57866D01*
X76849Y-57884D01*
X76886Y-57922D01*
X76905Y-57959D01*
X76924Y-58034D01*
X76924Y-58091D01*
X76905Y-58166D01*
X76886Y-58203D01*
X76849Y-58241D01*
X76793Y-58259D01*
X76699Y-58259D01*
X77093Y-58259D02*
X77093Y-57866D01*
X77186Y-57866D01*
X77243Y-57884D01*
X77280Y-57922D01*
X77299Y-57959D01*
X77318Y-58034D01*
X77318Y-58091D01*
X77299Y-58166D01*
X77280Y-58203D01*
X77243Y-58241D01*
X77186Y-58259D01*
X77093Y-58259D01*
X80359Y-55914D02*
X80321Y-55895D01*
X80265Y-55895D01*
X80209Y-55914D01*
X80172Y-55951D01*
X80153Y-55989D01*
X80134Y-56064D01*
X80134Y-56120D01*
X80153Y-56195D01*
X80172Y-56233D01*
X80209Y-56270D01*
X80265Y-56289D01*
X80303Y-56289D01*
X80359Y-56270D01*
X80378Y-56251D01*
X80378Y-56120D01*
X80303Y-56120D01*
X80546Y-56289D02*
X80546Y-55895D01*
X80771Y-56289D01*
X80771Y-55895D01*
X80959Y-56289D02*
X80959Y-55895D01*
X81053Y-55895D01*
X81109Y-55914D01*
X81146Y-55951D01*
X81165Y-55989D01*
X81184Y-56064D01*
X81184Y-56120D01*
X81165Y-56195D01*
X81146Y-56233D01*
X81109Y-56270D01*
X81053Y-56289D01*
X80959Y-56289D01*
X78222Y-56260D02*
X78278Y-56279D01*
X78372Y-56279D01*
X78410Y-56260D01*
X78428Y-56241D01*
X78447Y-56204D01*
X78447Y-56166D01*
X78428Y-56129D01*
X78410Y-56110D01*
X78372Y-56091D01*
X78297Y-56073D01*
X78260Y-56054D01*
X78241Y-56035D01*
X78222Y-55998D01*
X78222Y-55960D01*
X78241Y-55923D01*
X78260Y-55904D01*
X78297Y-55885D01*
X78391Y-55885D01*
X78447Y-55904D01*
X78616Y-56279D02*
X78616Y-55885D01*
X78710Y-55885D01*
X78766Y-55904D01*
X78803Y-55941D01*
X78822Y-55979D01*
X78841Y-56054D01*
X78841Y-56110D01*
X78822Y-56185D01*
X78803Y-56223D01*
X78766Y-56260D01*
X78710Y-56279D01*
X78616Y-56279D01*
X78991Y-56166D02*
X79178Y-56166D01*
X78953Y-56279D02*
X79085Y-55885D01*
X79216Y-56279D01*
X76291Y-56260D02*
X76347Y-56279D01*
X76441Y-56279D01*
X76478Y-56260D01*
X76497Y-56241D01*
X76516Y-56204D01*
X76516Y-56166D01*
X76497Y-56129D01*
X76478Y-56110D01*
X76441Y-56091D01*
X76366Y-56073D01*
X76328Y-56054D01*
X76309Y-56035D01*
X76291Y-55998D01*
X76291Y-55960D01*
X76309Y-55923D01*
X76328Y-55904D01*
X76366Y-55885D01*
X76459Y-55885D01*
X76516Y-55904D01*
X76909Y-56241D02*
X76891Y-56260D01*
X76834Y-56279D01*
X76797Y-56279D01*
X76741Y-56260D01*
X76703Y-56223D01*
X76684Y-56185D01*
X76666Y-56110D01*
X76666Y-56054D01*
X76684Y-55979D01*
X76703Y-55941D01*
X76741Y-55904D01*
X76797Y-55885D01*
X76834Y-55885D01*
X76891Y-55904D01*
X76909Y-55923D01*
X77266Y-56279D02*
X77078Y-56279D01*
X77078Y-55885D01*
G54D10*
X76377Y-55118D02*
X81102Y-55118D01*
X78149Y-58464D02*
X79330Y-58464D01*
X79330Y-58464D02*
X79330Y-59645D01*
X79330Y-59645D02*
X78149Y-59645D01*
X78149Y-59645D02*
X78149Y-58464D01*
X78149Y-58464D02*
X78149Y-58661D01*
X78307Y-58582D02*
G75*
G03X78307Y-58582I-39J0D01*
G74*
G01*
X78149Y-59055D02*
X78149Y-58858D01*
X78149Y-59055D02*
X78149Y-58464D01*
X78149Y-58464D02*
X79330Y-58464D01*
X79330Y-58464D02*
X79330Y-59055D01*
X79330Y-59055D02*
X79330Y-59645D01*
X79330Y-59645D02*
X78149Y-59645D01*
X78149Y-59645D02*
X78149Y-59055D01*
G54D16*
X76521Y-54580D02*
X76521Y-54080D01*
X77021Y-54580D02*
X77021Y-54090D01*
X77171Y-54580D02*
X76371Y-54580D01*
X76371Y-54580D02*
X76371Y-54080D01*
X76371Y-54080D02*
X77171Y-54080D01*
X77171Y-54080D02*
X77171Y-54580D01*
X80958Y-54080D02*
X80958Y-54580D01*
X80458Y-54080D02*
X80458Y-54570D01*
X80308Y-54080D02*
X81108Y-54080D01*
X81108Y-54080D02*
X81108Y-54580D01*
X81108Y-54580D02*
X80308Y-54580D01*
X80308Y-54580D02*
X80308Y-54080D01*
X78990Y-54080D02*
X78990Y-54580D01*
X78490Y-54080D02*
X78490Y-54570D01*
X78340Y-54080D02*
X79140Y-54080D01*
X79140Y-54080D02*
X79140Y-54580D01*
X79140Y-54580D02*
X78340Y-54580D01*
X78340Y-54580D02*
X78340Y-54080D01*
G54D17*
X78653Y-59075D02*
X78653Y-59025D01*
X78669Y-59060D01*
X78686Y-59025D01*
X78686Y-59075D01*
X78707Y-59060D02*
X78731Y-59060D01*
X78703Y-59075D02*
X78719Y-59025D01*
X78736Y-59075D01*
X78779Y-59027D02*
X78774Y-59025D01*
X78767Y-59025D01*
X78760Y-59027D01*
X78755Y-59032D01*
X78753Y-59037D01*
X78750Y-59046D01*
X78750Y-59053D01*
X78753Y-59063D01*
X78755Y-59068D01*
X78760Y-59072D01*
X78767Y-59075D01*
X78772Y-59075D01*
X78779Y-59072D01*
X78781Y-59070D01*
X78781Y-59053D01*
X78772Y-59053D01*
X78829Y-59075D02*
X78800Y-59075D01*
X78815Y-59075D02*
X78815Y-59025D01*
X78810Y-59032D01*
X78805Y-59037D01*
X78800Y-59039D01*
G54D18*
X76754Y-54386D02*
X76748Y-54392D01*
X76731Y-54397D01*
X76720Y-54397D01*
X76703Y-54392D01*
X76692Y-54380D01*
X76686Y-54369D01*
X76681Y-54347D01*
X76681Y-54330D01*
X76686Y-54307D01*
X76692Y-54296D01*
X76703Y-54285D01*
X76720Y-54279D01*
X76731Y-54279D01*
X76748Y-54285D01*
X76754Y-54291D01*
X76799Y-54291D02*
X76804Y-54285D01*
X76816Y-54279D01*
X76844Y-54279D01*
X76855Y-54285D01*
X76861Y-54291D01*
X76866Y-54302D01*
X76866Y-54313D01*
X76861Y-54330D01*
X76793Y-54397D01*
X76866Y-54397D01*
X80690Y-54365D02*
X80684Y-54371D01*
X80667Y-54376D01*
X80656Y-54376D01*
X80639Y-54371D01*
X80628Y-54359D01*
X80622Y-54348D01*
X80617Y-54326D01*
X80617Y-54309D01*
X80622Y-54286D01*
X80628Y-54275D01*
X80639Y-54264D01*
X80656Y-54258D01*
X80667Y-54258D01*
X80684Y-54264D01*
X80690Y-54270D01*
X80729Y-54258D02*
X80802Y-54258D01*
X80763Y-54303D01*
X80780Y-54303D01*
X80791Y-54309D01*
X80797Y-54314D01*
X80802Y-54326D01*
X80802Y-54354D01*
X80797Y-54365D01*
X80791Y-54371D01*
X80780Y-54376D01*
X80746Y-54376D01*
X80735Y-54371D01*
X80729Y-54365D01*
X78721Y-54371D02*
X78715Y-54377D01*
X78698Y-54382D01*
X78687Y-54382D01*
X78670Y-54377D01*
X78659Y-54365D01*
X78653Y-54354D01*
X78648Y-54332D01*
X78648Y-54315D01*
X78653Y-54292D01*
X78659Y-54281D01*
X78670Y-54270D01*
X78687Y-54264D01*
X78698Y-54264D01*
X78715Y-54270D01*
X78721Y-54276D01*
X78833Y-54382D02*
X78766Y-54382D01*
X78800Y-54382D02*
X78800Y-54264D01*
X78788Y-54281D01*
X78777Y-54292D01*
X78766Y-54298D01*
M02*
