G04 (created by PCBNEW (2013-07-07 BZR 4022)-stable) date 8/6/2015 3:57:57 PM*
%MOIN*%
G04 Gerber Fmt 3.4, Leading zero omitted, Abs format*
%FSLAX34Y34*%
G01*
G70*
G90*
G04 APERTURE LIST*
%ADD10C,0.00590551*%
%ADD11C,0.0019685*%
%ADD12C,0.011811*%
G04 APERTURE END LIST*
G54D10*
G54D11*
X81457Y-59609D02*
X81457Y-59531D01*
X81457Y-59561D02*
X81450Y-59557D01*
X81435Y-59557D01*
X81427Y-59561D01*
X81424Y-59564D01*
X81420Y-59572D01*
X81420Y-59594D01*
X81424Y-59602D01*
X81427Y-59606D01*
X81435Y-59609D01*
X81450Y-59609D01*
X81457Y-59606D01*
X81394Y-59557D02*
X81375Y-59609D01*
X81356Y-59557D02*
X81375Y-59609D01*
X81382Y-59628D01*
X81386Y-59632D01*
X81394Y-59636D01*
X81326Y-59609D02*
X81326Y-59557D01*
X81326Y-59531D02*
X81330Y-59534D01*
X81326Y-59538D01*
X81323Y-59534D01*
X81326Y-59531D01*
X81326Y-59538D01*
X81255Y-59557D02*
X81255Y-59636D01*
X81255Y-59606D02*
X81263Y-59609D01*
X81278Y-59609D01*
X81285Y-59606D01*
X81289Y-59602D01*
X81293Y-59594D01*
X81293Y-59572D01*
X81289Y-59564D01*
X81285Y-59561D01*
X81278Y-59557D01*
X81263Y-59557D01*
X81255Y-59561D01*
X81218Y-59609D02*
X81218Y-59557D01*
X81218Y-59531D02*
X81221Y-59534D01*
X81218Y-59538D01*
X81214Y-59534D01*
X81218Y-59531D01*
X81218Y-59538D01*
G54D12*
X80666Y-55493D02*
X80666Y-55915D01*
X80694Y-55999D01*
X80750Y-56055D01*
X80835Y-56084D01*
X80891Y-56084D01*
X80385Y-56084D02*
X80385Y-55493D01*
X79822Y-56084D02*
X80104Y-56084D01*
X80104Y-55493D01*
X79654Y-55915D02*
X79372Y-55915D01*
X79710Y-56084D02*
X79513Y-55493D01*
X79316Y-56084D01*
X78444Y-56055D02*
X78501Y-56084D01*
X78613Y-56084D01*
X78669Y-56055D01*
X78697Y-55999D01*
X78697Y-55774D01*
X78669Y-55718D01*
X78613Y-55690D01*
X78501Y-55690D01*
X78444Y-55718D01*
X78416Y-55774D01*
X78416Y-55830D01*
X78697Y-55887D01*
X78163Y-55774D02*
X77966Y-55774D01*
X77882Y-56084D02*
X78163Y-56084D01*
X78163Y-55493D01*
X77882Y-55493D01*
X77629Y-56084D02*
X77629Y-55493D01*
X77488Y-55493D01*
X77404Y-55521D01*
X77348Y-55577D01*
X77320Y-55634D01*
X77291Y-55746D01*
X77291Y-55830D01*
X77320Y-55943D01*
X77348Y-55999D01*
X77404Y-56055D01*
X77488Y-56084D01*
X77629Y-56084D01*
X77038Y-56084D02*
X77038Y-55493D01*
X76841Y-55915D01*
X76645Y-55493D01*
X76645Y-56084D01*
M02*
